{"glyphs":{"0":{"ha":610,"x_min":43,"x_max":632,"o":"m 275 -15 q 106 49 168 -15 q 43 219 43 113 q 46 265 43 235 l 100 707 q 198 910 115 833 q 399 988 281 988 q 569 924 507 988 q 632 753 632 861 q 629 707 632 738 l 575 265 q 478 62 561 139 q 275 -15 394 -15 m 296 153 q 354 181 331 153 q 385 254 378 208 l 442 718 q 443 738 443 725 q 426 797 443 775 q 378 819 408 819 q 321 792 344 819 q 292 718 297 764 l 235 254 q 233 233 233 247 q 250 175 233 197 q 296 153 267 153 z "},"1":{"ha":383,"x_min":85,"x_max":425,"o":"m 226 968 q 247 972 238 972 l 410 972 q 425 956 425 972 l 310 17 q 303 5 308 10 q 292 0 299 0 l 133 0 q 122 5 126 0 q 119 17 118 10 l 213 775 q 207 781 213 781 l 101 768 l 99 768 q 85 783 85 768 l 96 903 q 111 922 97 917 l 226 968 z "},"2":{"ha":590,"x_min":10,"x_max":617,"o":"m 260 176 q 258 171 257 174 q 263 168 260 168 l 544 168 q 556 163 551 168 q 558 151 560 158 l 542 17 q 536 5 542 10 q 524 0 531 0 l 25 0 q 14 5 18 0 q 11 17 10 10 l 29 157 q 38 178 29 168 q 125 278 81 229 q 324 515 265 438 q 422 740 422 651 q 407 796 422 776 q 365 815 392 815 q 312 790 333 815 q 288 724 290 764 l 281 667 q 274 655 279 660 q 261 650 268 650 l 101 650 q 90 655 94 650 q 88 667 86 660 l 96 732 q 197 915 115 846 q 394 983 279 983 q 556 922 496 983 q 617 758 617 861 q 614 715 617 746 q 574 578 604 643 q 485 438 543 514 q 331 257 421 357 q 296 217 314 236 q 260 176 278 197 z "},"3":{"ha":588,"x_min":28,"x_max":635,"o":"m 561 411 q 556 308 561 357 q 538 204 546 242 q 442 47 514 104 q 264 -11 371 -11 q 90 50 153 -11 q 35 213 28 111 q 40 293 35 238 q 58 310 43 310 l 215 310 q 231 293 233 310 q 226 233 226 263 q 242 177 226 197 q 285 157 257 157 q 331 176 311 157 q 361 229 351 196 q 378 329 365 250 q 383 432 385 394 q 367 481 382 463 q 326 499 351 499 q 283 481 306 499 q 272 475 275 475 q 261 482 265 475 l 190 567 q 188 576 188 569 q 193 590 188 585 l 381 797 q 378 806 386 806 l 135 806 q 124 810 128 806 q 121 822 119 815 l 138 956 q 144 967 139 963 q 156 972 149 972 l 619 972 q 631 967 626 972 q 633 956 635 963 l 617 817 q 607 796 615 807 l 432 600 q 433 592 426 592 q 526 536 492 586 q 561 411 561 486 z "},"4":{"ha":651,"x_min":24,"x_max":657,"o":"m 642 422 q 653 417 649 422 q 656 406 657 413 l 639 263 q 633 251 638 256 q 621 246 628 246 l 579 246 q 571 239 571 246 l 543 17 q 538 5 543 10 q 525 0 532 0 l 368 0 q 357 5 361 0 q 354 17 353 10 l 381 239 q 375 246 383 246 l 39 246 q 24 263 24 246 l 38 376 l 43 397 l 292 958 q 311 972 299 972 l 482 972 q 494 967 490 972 q 493 953 497 963 l 267 431 q 271 422 265 422 l 397 422 q 404 429 404 422 l 422 574 q 428 585 424 581 q 440 590 433 590 l 597 590 q 609 585 604 590 q 613 574 614 581 l 594 429 q 600 422 594 422 l 642 422 z "},"5":{"ha":592,"x_min":46,"x_max":642,"o":"m 576 389 q 575 352 576 378 q 571 303 574 326 q 556 215 564 247 q 463 49 538 108 q 272 -11 388 -11 q 105 44 164 -11 q 46 210 46 100 l 47 249 q 65 265 50 265 l 222 265 q 238 249 238 265 l 238 226 q 293 157 242 157 q 339 176 319 157 q 368 228 358 194 q 381 304 376 264 q 385 375 385 331 q 328 440 381 440 q 256 392 275 440 q 236 376 249 376 l 78 376 q 63 393 63 376 l 132 956 q 138 967 133 963 q 150 972 143 972 l 626 972 q 638 967 633 972 q 640 956 642 963 l 624 821 q 617 809 622 814 q 606 804 613 804 l 310 804 q 303 797 303 804 l 274 564 q 276 558 274 560 q 282 561 278 557 q 340 597 307 585 q 407 610 372 610 q 538 551 493 610 q 576 389 583 493 z "},"6":{"ha":593,"x_min":46,"x_max":614,"o":"m 576 385 q 572 303 578 361 l 560 219 q 466 49 542 110 q 275 -11 390 -11 q 107 44 167 -11 q 49 210 47 100 q 53 286 46 244 l 106 735 q 198 916 119 849 q 394 983 276 983 q 554 927 494 983 q 614 775 614 871 q 611 735 614 763 l 607 693 q 601 681 606 686 q 589 676 596 676 l 431 676 q 419 681 424 676 q 417 693 415 686 l 421 724 q 410 786 425 761 q 374 811 396 811 q 322 787 343 811 q 294 724 300 763 l 278 583 q 279 578 276 579 q 286 581 282 578 q 392 619 335 619 q 528 564 479 619 q 578 414 578 508 q 576 385 578 394 m 368 235 q 381 317 378 293 q 386 403 386 358 q 372 453 386 435 q 333 471 358 471 q 286 452 306 471 q 260 400 267 433 q 244 317 247 332 q 239 231 242 289 q 252 175 238 194 q 294 156 267 156 q 340 176 321 156 q 368 235 360 197 z "},"7":{"ha":549,"x_min":82,"x_max":626,"o":"m 99 0 q 88 6 90 0 q 88 19 85 11 l 403 796 q 397 804 406 804 l 250 804 q 242 797 244 804 l 236 749 q 230 737 235 742 q 218 732 225 732 l 97 732 q 82 749 82 732 l 110 956 q 116 967 111 963 q 128 972 121 972 l 611 972 q 622 967 618 972 q 625 956 626 963 l 608 814 q 603 794 606 803 l 285 14 q 265 0 278 0 l 99 0 z "},"8":{"ha":593,"x_min":44,"x_max":617,"o":"m 494 513 q 493 503 488 507 q 550 421 535 474 q 563 331 563 382 q 560 281 563 299 q 522 153 553 219 q 418 33 485 76 q 268 -11 351 -11 q 129 32 185 -11 q 54 153 74 75 q 44 226 44 186 q 49 281 44 254 q 89 417 57 357 q 168 501 114 468 q 169 510 176 506 q 113 593 126 542 q 100 678 100 633 q 103 722 100 707 q 143 851 111 799 q 245 953 179 917 q 392 990 311 990 q 526 955 469 990 q 603 853 582 919 q 617 767 617 817 q 614 722 617 753 q 572 594 607 656 q 494 513 544 543 m 303 761 q 288 704 292 739 q 286 678 286 694 q 289 640 286 663 q 304 596 290 613 q 340 579 318 579 q 382 596 364 579 q 408 642 400 613 q 425 703 421 668 q 426 726 426 711 q 422 764 426 747 q 406 806 419 790 q 371 822 392 822 q 330 806 347 822 q 303 761 313 790 m 361 232 q 374 293 369 258 q 376 335 376 308 q 375 365 376 356 q 358 413 372 396 q 322 431 344 431 q 280 413 299 431 q 251 363 261 394 q 238 296 240 325 q 235 229 233 257 q 250 176 236 196 q 289 157 264 157 q 333 177 314 157 q 361 232 353 197 z "},"9":{"ha":586,"x_min":38,"x_max":603,"o":"m 546 238 q 453 56 532 124 q 257 -11 375 -11 q 97 45 157 -11 q 38 197 38 101 q 40 238 38 210 l 44 279 q 51 291 46 286 q 64 296 57 296 l 221 296 q 232 291 228 296 q 235 279 236 286 l 232 249 q 231 231 231 242 q 244 181 231 200 q 278 161 258 161 q 329 185 308 161 q 356 249 350 210 l 372 388 q 371 392 374 392 q 364 390 368 393 q 260 353 317 353 q 122 409 172 353 q 72 561 72 465 l 74 588 q 79 669 74 611 q 93 753 88 724 q 186 922 110 861 q 376 983 263 983 q 543 930 483 983 q 603 769 603 876 q 599 686 603 717 l 546 238 m 392 572 q 406 656 397 594 q 413 742 411 700 q 399 797 414 778 q 357 817 385 817 q 311 796 331 817 q 283 738 292 775 q 271 656 276 706 q 264 569 265 617 q 279 519 265 538 q 319 501 293 501 q 365 520 346 501 q 392 572 383 539 z "},"\u0000":{"ha":0,"x_min":0,"x_max":0,"o":""},"\r":{"ha":269,"x_min":0,"x_max":0,"o":""}," ":{"ha":269,"x_min":0,"x_max":0,"o":""},"A":{"ha":650,"x_min":-11,"x_max":606,"o":"m 428 0 q 413 15 413 0 l 407 149 q 406 153 408 151 q 400 156 403 156 l 229 156 q 221 149 221 156 l 182 15 q 163 0 178 0 l 6 0 q -6 18 -11 0 l 307 957 q 326 972 311 972 l 508 972 q 525 957 522 972 l 606 18 l 606 14 q 590 0 606 0 l 428 0 m 268 314 q 272 307 265 307 l 393 307 q 400 314 400 307 l 383 693 q 379 697 382 697 q 375 693 376 697 l 268 314 z "},"Á":{"ha":650,"x_min":-11,"x_max":606,"o":"m 428 0 q 413 15 413 0 l 407 149 q 406 153 408 151 q 400 156 403 156 l 229 156 q 221 149 221 156 l 182 15 q 163 0 178 0 l 6 0 q -6 18 -11 0 l 307 957 q 326 972 311 972 l 508 972 q 525 957 522 972 l 606 18 l 606 14 q 590 0 606 0 l 428 0 m 268 314 q 272 307 265 307 l 393 307 q 400 314 400 307 l 383 693 q 379 697 382 697 q 375 693 376 697 l 268 314 m 356 1058 q 342 1067 342 1058 q 346 1078 342 1072 l 442 1219 q 464 1231 449 1231 l 589 1231 q 601 1222 601 1231 q 596 1210 601 1215 l 475 1068 q 454 1058 465 1058 l 356 1058 z "},"Ă":{"ha":650,"x_min":-11,"x_max":607,"o":"m 428 0 q 413 15 413 0 l 407 149 q 406 153 408 151 q 400 156 403 156 l 229 156 q 221 149 221 156 l 182 15 q 163 0 178 0 l 6 0 q -6 18 -11 0 l 307 957 q 326 972 311 972 l 508 972 q 525 957 522 972 l 606 18 l 606 14 q 590 0 606 0 l 428 0 m 268 314 q 272 307 265 307 l 393 307 q 400 314 400 307 l 383 693 q 379 697 382 697 q 375 693 376 697 l 268 314 m 424 1021 q 317 1061 356 1021 q 282 1168 279 1101 q 299 1185 282 1185 l 365 1185 q 381 1168 381 1185 q 397 1124 382 1140 q 435 1107 411 1107 q 478 1124 458 1107 q 504 1168 497 1140 q 524 1185 508 1185 l 590 1185 q 604 1168 607 1185 q 541 1061 590 1101 q 424 1021 492 1021 z "},"Ắ":{"ha":650,"x_min":-11,"x_max":629,"o":"m 428 0 q 413 15 413 0 l 407 149 q 406 153 408 151 q 400 156 403 156 l 229 156 q 221 149 221 156 l 182 15 q 163 0 178 0 l 6 0 q -6 18 -11 0 l 307 957 q 326 972 311 972 l 508 972 q 525 957 522 972 l 606 18 l 606 14 q 590 0 606 0 l 428 0 m 268 314 q 272 307 265 307 l 393 307 q 400 314 400 307 l 383 693 q 379 697 382 697 q 375 693 376 697 l 268 314 z "},"Ặ":{"ha":650,"x_min":-11,"x_max":610,"o":"m 428 0 q 413 15 413 0 l 407 149 q 406 153 408 151 q 400 156 403 156 l 229 156 q 221 149 221 156 l 182 15 q 163 0 178 0 l 6 0 q -6 18 -11 0 l 307 957 q 326 972 311 972 l 508 972 q 525 957 522 972 l 606 18 l 606 14 q 590 0 606 0 l 428 0 m 268 314 q 272 307 265 307 l 393 307 q 400 314 400 307 l 383 693 q 379 697 382 697 q 375 693 376 697 l 268 314 m 258 -333 q 193 -308 218 -333 q 168 -243 168 -283 q 201 -158 168 -192 q 283 -125 235 -125 q 348 -149 324 -125 q 372 -211 372 -172 q 339 -298 372 -262 q 258 -333 306 -333 m 426 1043 q 320 1083 358 1043 q 285 1190 282 1124 q 301 1207 285 1207 l 368 1207 q 383 1190 383 1207 q 399 1146 385 1163 q 438 1129 414 1129 q 480 1146 461 1129 q 507 1190 499 1163 q 526 1207 511 1207 l 593 1207 q 607 1190 610 1207 q 544 1083 593 1124 q 426 1043 494 1043 z "},"Ằ":{"ha":650,"x_min":-11,"x_max":610,"o":"m 428 0 q 413 15 413 0 l 407 149 q 406 153 408 151 q 400 156 403 156 l 229 156 q 221 149 221 156 l 182 15 q 163 0 178 0 l 6 0 q -6 18 -11 0 l 307 957 q 326 972 311 972 l 508 972 q 525 957 522 972 l 606 18 l 606 14 q 590 0 606 0 l 428 0 m 268 314 q 272 307 265 307 l 393 307 q 400 314 400 307 l 383 693 q 379 697 382 697 q 375 693 376 697 l 268 314 z "},"Ẳ":{"ha":650,"x_min":-11,"x_max":608,"o":"m 428 0 q 413 15 413 0 l 407 149 q 406 153 408 151 q 400 156 403 156 l 229 156 q 221 149 221 156 l 182 15 q 163 0 178 0 l 6 0 q -6 18 -11 0 l 307 957 q 326 972 311 972 l 508 972 q 525 957 522 972 l 606 18 l 606 14 q 590 0 606 0 l 428 0 m 268 314 q 272 307 265 307 l 393 307 q 400 314 400 307 l 383 693 q 379 697 382 697 q 375 693 376 697 l 268 314 m 439 1246 q 428 1254 431 1249 q 431 1268 425 1260 q 475 1325 447 1300 q 495 1350 489 1340 q 503 1375 501 1360 l 503 1379 q 494 1397 503 1390 q 474 1404 486 1404 q 447 1397 458 1404 q 418 1369 435 1389 q 406 1361 413 1363 q 393 1365 399 1360 l 358 1394 q 353 1404 353 1399 q 358 1418 353 1413 q 418 1471 389 1456 q 489 1486 447 1486 q 565 1461 538 1486 q 593 1392 593 1436 q 579 1335 593 1357 q 538 1288 565 1313 q 501 1247 508 1258 q 479 1238 492 1236 l 439 1246 m 426 1043 q 320 1083 358 1043 q 285 1190 282 1124 q 301 1207 285 1207 l 368 1207 q 383 1190 383 1207 q 399 1146 385 1163 q 438 1129 414 1129 q 480 1146 461 1129 q 507 1190 499 1163 q 526 1207 511 1207 l 593 1207 q 607 1190 608 1207 q 544 1083 593 1124 q 426 1043 494 1043 z "},"Ẵ":{"ha":650,"x_min":-11,"x_max":681,"o":"m 428 0 q 413 15 413 0 l 407 149 q 406 153 408 151 q 400 156 403 156 l 229 156 q 221 149 221 156 l 182 15 q 163 0 178 0 l 6 0 q -6 18 -11 0 l 307 957 q 326 972 311 972 l 508 972 q 525 957 522 972 l 606 18 l 606 14 q 590 0 606 0 l 428 0 m 268 314 q 272 307 265 307 l 393 307 q 400 314 400 307 l 383 693 q 379 697 382 697 q 375 693 376 697 l 268 314 z "},"Ǎ":{"ha":650,"x_min":-11,"x_max":647,"o":"m 428 0 q 413 15 413 0 l 407 149 q 406 153 408 151 q 400 156 403 156 l 229 156 q 221 149 221 156 l 182 15 q 163 0 178 0 l 6 0 q -6 18 -11 0 l 307 957 q 326 972 311 972 l 508 972 q 525 957 522 972 l 606 18 l 606 14 q 590 0 606 0 l 428 0 m 268 314 q 272 307 265 307 l 393 307 q 400 314 400 307 l 383 693 q 379 697 382 697 q 375 693 376 697 l 268 314 z "},"Â":{"ha":650,"x_min":-11,"x_max":624,"o":"m 428 0 q 413 15 413 0 l 407 149 q 406 153 408 151 q 400 156 403 156 l 229 156 q 221 149 221 156 l 182 15 q 163 0 178 0 l 6 0 q -6 18 -11 0 l 307 957 q 326 972 311 972 l 508 972 q 525 957 522 972 l 606 18 l 606 14 q 590 0 606 0 l 428 0 m 268 314 q 272 307 265 307 l 393 307 q 400 314 400 307 l 383 693 q 379 697 382 697 q 375 693 376 697 l 268 314 m 244 1056 q 232 1064 232 1056 q 236 1075 232 1069 l 339 1219 q 360 1231 346 1231 l 533 1231 q 550 1219 546 1231 l 622 1075 q 624 1068 624 1072 q 608 1056 624 1056 l 490 1056 q 472 1068 476 1056 l 442 1146 q 433 1146 438 1153 l 383 1068 q 374 1059 381 1063 q 363 1056 368 1056 l 244 1056 z "},"Ấ":{"ha":650,"x_min":-11,"x_max":883,"o":"m 428 0 q 413 15 413 0 l 407 149 q 406 153 408 151 q 400 156 403 156 l 229 156 q 221 149 221 156 l 182 15 q 163 0 178 0 l 6 0 q -6 18 -11 0 l 307 957 q 326 972 311 972 l 508 972 q 525 957 522 972 l 606 18 l 606 14 q 590 0 606 0 l 428 0 m 268 314 q 272 307 265 307 l 393 307 q 400 314 400 307 l 383 693 q 379 697 382 697 q 375 693 376 697 l 268 314 z "},"Ậ":{"ha":650,"x_min":-11,"x_max":624,"o":"m 428 0 q 413 15 413 0 l 407 149 q 406 153 408 151 q 400 156 403 156 l 229 156 q 221 149 221 156 l 182 15 q 163 0 178 0 l 6 0 q -6 18 -11 0 l 307 957 q 326 972 311 972 l 508 972 q 525 957 522 972 l 606 18 l 606 14 q 590 0 606 0 l 428 0 m 268 314 q 272 307 265 307 l 393 307 q 400 314 400 307 l 383 693 q 379 697 382 697 q 375 693 376 697 l 268 314 m 258 -333 q 193 -308 218 -333 q 168 -243 168 -283 q 201 -158 168 -192 q 283 -125 235 -125 q 348 -149 324 -125 q 372 -211 372 -172 q 339 -298 372 -262 q 258 -333 306 -333 m 244 1056 q 232 1064 232 1056 q 236 1075 232 1069 l 339 1219 q 360 1231 346 1231 l 533 1231 q 550 1219 546 1231 l 622 1075 q 624 1068 624 1072 q 608 1056 624 1056 l 490 1056 q 472 1068 476 1056 l 442 1146 q 433 1146 438 1153 l 383 1068 q 374 1059 381 1063 q 363 1056 368 1056 l 244 1056 z "},"Ầ":{"ha":650,"x_min":-11,"x_max":733,"o":"m 428 0 q 413 15 413 0 l 407 149 q 406 153 408 151 q 400 156 403 156 l 229 156 q 221 149 221 156 l 182 15 q 163 0 178 0 l 6 0 q -6 18 -11 0 l 307 957 q 326 972 311 972 l 508 972 q 525 957 522 972 l 606 18 l 606 14 q 590 0 606 0 l 428 0 m 268 314 q 272 307 265 307 l 393 307 q 400 314 400 307 l 383 693 q 379 697 382 697 q 375 693 376 697 l 268 314 z "},"Ẩ":{"ha":650,"x_min":-11,"x_max":797,"o":"m 428 0 q 413 15 413 0 l 407 149 q 406 153 408 151 q 400 156 403 156 l 229 156 q 221 149 221 156 l 182 15 q 163 0 178 0 l 6 0 q -6 18 -11 0 l 307 957 q 326 972 311 972 l 508 972 q 525 957 522 972 l 606 18 l 606 14 q 590 0 606 0 l 428 0 m 268 314 q 272 307 265 307 l 393 307 q 400 314 400 307 l 383 693 q 379 697 382 697 q 375 693 376 697 l 268 314 m 633 1199 q 622 1206 625 1200 q 624 1219 619 1211 q 653 1265 638 1249 q 672 1285 669 1282 q 694 1309 688 1299 q 704 1336 701 1319 q 696 1359 706 1350 q 671 1368 686 1368 q 643 1360 656 1368 q 610 1329 631 1351 q 586 1325 599 1315 l 549 1357 q 543 1368 543 1361 q 549 1381 543 1375 q 612 1438 581 1421 q 688 1456 643 1456 q 768 1429 739 1456 q 797 1356 797 1403 q 783 1294 797 1318 q 738 1240 768 1271 q 700 1200 710 1215 q 679 1190 692 1188 l 633 1199 m 244 1056 q 232 1064 232 1056 q 236 1075 232 1069 l 339 1219 q 360 1231 346 1231 l 533 1231 q 550 1219 546 1231 l 622 1075 q 624 1068 624 1072 q 608 1056 624 1056 l 490 1056 q 472 1068 476 1056 l 442 1146 q 433 1146 438 1153 l 383 1068 q 374 1059 381 1063 q 363 1056 368 1056 l 244 1056 z "},"Ẫ":{"ha":650,"x_min":-11,"x_max":663,"o":"m 428 0 q 413 15 413 0 l 407 149 q 406 153 408 151 q 400 156 403 156 l 229 156 q 221 149 221 156 l 182 15 q 163 0 178 0 l 6 0 q -6 18 -11 0 l 307 957 q 326 972 311 972 l 508 972 q 525 957 522 972 l 606 18 l 606 14 q 590 0 606 0 l 428 0 m 268 314 q 272 307 265 307 l 393 307 q 400 314 400 307 l 383 693 q 379 697 382 697 q 375 693 376 697 l 268 314 z "},"Ä":{"ha":650,"x_min":-11,"x_max":672,"o":"m 428 0 q 413 15 413 0 l 407 149 q 406 153 408 151 q 400 156 403 156 l 229 156 q 221 149 221 156 l 182 15 q 163 0 178 0 l 6 0 q -6 18 -11 0 l 307 957 q 326 972 311 972 l 508 972 q 525 957 522 972 l 606 18 l 606 14 q 590 0 606 0 l 428 0 m 268 314 q 272 307 265 307 l 393 307 q 400 314 400 307 l 383 693 q 379 697 382 697 q 375 693 376 697 l 268 314 z "},"Ạ":{"ha":650,"x_min":-11,"x_max":606,"o":"m 428 0 q 413 15 413 0 l 407 149 q 406 153 408 151 q 400 156 403 156 l 229 156 q 221 149 221 156 l 182 15 q 163 0 178 0 l 6 0 q -6 18 -11 0 l 307 957 q 326 972 311 972 l 508 972 q 525 957 522 972 l 606 18 l 606 14 q 590 0 606 0 l 428 0 m 268 314 q 272 307 265 307 l 393 307 q 400 314 400 307 l 383 693 q 379 697 382 697 q 375 693 376 697 l 268 314 m 258 -333 q 193 -308 218 -333 q 168 -243 168 -283 q 201 -158 168 -192 q 283 -125 235 -125 q 348 -149 324 -125 q 372 -211 372 -172 q 339 -298 372 -262 q 258 -333 306 -333 z "},"À":{"ha":650,"x_min":-11,"x_max":606,"o":"m 428 0 q 413 15 413 0 l 407 149 q 406 153 408 151 q 400 156 403 156 l 229 156 q 221 149 221 156 l 182 15 q 163 0 178 0 l 6 0 q -6 18 -11 0 l 307 957 q 326 972 311 972 l 508 972 q 525 957 522 972 l 606 18 l 606 14 q 590 0 606 0 l 428 0 m 268 314 q 272 307 265 307 l 393 307 q 400 314 400 307 l 383 693 q 379 697 382 697 q 375 693 376 697 l 268 314 m 489 1078 q 490 1069 490 1075 q 475 1058 490 1058 l 374 1058 q 356 1068 364 1058 l 271 1210 q 268 1219 268 1215 q 272 1227 268 1224 q 283 1231 276 1231 l 408 1231 q 426 1219 421 1231 l 489 1078 z "},"Ả":{"ha":650,"x_min":-11,"x_max":606,"o":"m 428 0 q 413 15 413 0 l 407 149 q 406 153 408 151 q 400 156 403 156 l 229 156 q 221 149 221 156 l 182 15 q 163 0 178 0 l 6 0 q -6 18 -11 0 l 307 957 q 326 972 311 972 l 508 972 q 525 957 522 972 l 606 18 l 606 14 q 590 0 606 0 l 428 0 m 268 314 q 272 307 265 307 l 393 307 q 400 314 400 307 l 383 693 q 379 697 382 697 q 375 693 376 697 l 268 314 m 408 1031 q 399 1051 390 1035 q 451 1122 417 1088 q 474 1149 467 1138 q 483 1178 482 1160 q 475 1201 485 1192 q 450 1211 465 1211 q 418 1202 432 1211 q 383 1169 404 1193 q 371 1161 378 1163 q 358 1165 364 1160 l 317 1200 q 311 1211 311 1204 q 317 1224 311 1218 q 385 1287 353 1268 q 465 1306 418 1306 q 553 1277 522 1306 q 585 1199 585 1249 q 569 1132 585 1157 q 519 1075 553 1107 q 479 1031 488 1043 q 458 1021 469 1019 l 408 1031 z "},"Ā":{"ha":650,"x_min":-11,"x_max":606,"o":"m 428 0 q 413 15 413 0 l 407 149 q 406 153 408 151 q 400 156 403 156 l 229 156 q 221 149 221 156 l 182 15 q 163 0 178 0 l 6 0 q -6 18 -11 0 l 307 957 q 326 972 311 972 l 508 972 q 525 957 522 972 l 606 18 l 606 14 q 590 0 606 0 l 428 0 m 268 314 q 272 307 265 307 l 393 307 q 400 314 400 307 l 383 693 q 379 697 382 697 q 375 693 376 697 l 268 314 m 292 1065 q 281 1070 285 1065 q 278 1082 276 1075 l 290 1182 q 296 1194 290 1189 q 308 1199 301 1199 l 572 1199 q 583 1194 579 1199 q 586 1182 588 1189 l 574 1082 q 567 1070 572 1075 q 556 1065 563 1065 l 292 1065 z "},"Ą":{"ha":650,"x_min":-11,"x_max":606,"o":"m 428 0 q 413 15 413 0 l 407 149 q 406 153 408 151 q 400 156 403 156 l 229 156 q 221 149 221 156 l 182 15 q 163 0 178 0 l 6 0 q -6 18 -11 0 l 307 957 q 326 972 311 972 l 508 972 q 525 957 522 972 l 606 18 l 606 14 q 590 0 606 0 l 428 0 m 268 314 q 272 307 265 307 l 393 307 q 400 314 400 307 l 383 693 q 379 697 382 697 q 375 693 376 697 l 268 314 m 578 -236 q 575 -249 578 -244 q 564 -256 572 -254 q 499 -265 525 -265 q 424 -242 454 -265 q 393 -162 393 -218 q 474 -8 393 -79 q 494 0 482 0 l 579 0 q 592 -7 592 0 q 583 -21 592 -12 q 521 -122 521 -76 q 532 -152 521 -143 q 561 -158 543 -161 l 565 -158 q 578 -172 578 -158 l 578 -236 z "},"Å":{"ha":650,"x_min":-11,"x_max":615,"o":"m 428 0 q 413 15 413 0 l 407 149 q 406 153 408 151 q 400 156 403 156 l 229 156 q 221 149 221 156 l 182 15 q 163 0 178 0 l 6 0 q -6 18 -11 0 l 307 957 q 326 972 311 972 l 508 972 q 525 957 522 972 l 606 18 l 606 14 q 590 0 606 0 l 428 0 m 268 314 q 272 307 265 307 l 393 307 q 400 314 400 307 l 383 693 q 379 697 382 697 q 375 693 376 697 l 268 314 m 426 1040 q 320 1083 361 1040 q 279 1190 279 1125 q 305 1288 279 1243 q 374 1358 331 1332 q 468 1385 418 1385 q 574 1343 532 1385 q 615 1236 615 1301 q 590 1138 615 1183 q 520 1067 564 1093 q 426 1040 476 1040 m 439 1143 q 492 1167 468 1143 q 515 1222 515 1190 q 498 1266 515 1249 q 456 1283 481 1283 q 403 1260 426 1283 q 381 1204 381 1238 q 397 1160 381 1178 q 439 1143 413 1143 z "},"Ã":{"ha":650,"x_min":-11,"x_max":661,"o":"m 428 0 q 413 15 413 0 l 407 149 q 406 153 408 151 q 400 156 403 156 l 229 156 q 221 149 221 156 l 182 15 q 163 0 178 0 l 6 0 q -6 18 -11 0 l 307 957 q 326 972 311 972 l 508 972 q 525 957 522 972 l 606 18 l 606 14 q 590 0 606 0 l 428 0 m 268 314 q 272 307 265 307 l 393 307 q 400 314 400 307 l 383 693 q 379 697 382 697 q 375 693 376 697 l 268 314 m 521 1072 q 450 1097 490 1072 q 424 1113 439 1103 q 397 1122 410 1122 q 344 1092 367 1122 q 321 1086 335 1078 l 269 1128 q 267 1150 261 1136 q 324 1222 290 1197 q 396 1246 358 1246 q 478 1214 439 1246 q 491 1204 482 1211 q 510 1193 500 1197 q 531 1189 519 1189 q 582 1217 561 1189 q 606 1224 594 1233 l 656 1185 q 661 1174 661 1179 q 653 1153 661 1165 q 589 1092 625 1111 q 521 1072 553 1072 z "},"Æ":{"ha":1018,"x_min":-6,"x_max":1072,"o":"m 1054 821 q 1048 809 1053 814 q 1036 804 1043 804 l 756 804 q 751 802 753 804 q 749 797 749 800 l 722 578 q 728 571 719 571 l 888 571 q 899 566 894 571 q 901 554 903 561 l 886 419 q 879 408 885 413 q 867 403 874 403 l 707 403 q 700 396 700 403 l 672 175 q 678 168 672 168 l 958 168 q 969 163 965 168 q 972 151 974 158 l 956 17 q 949 5 954 10 q 938 0 944 0 l 475 0 q 464 5 468 0 q 461 17 460 10 l 478 149 q 472 156 478 156 l 271 156 q 264 150 267 156 l 196 13 q 175 0 190 0 l 8 0 q -3 6 -1 0 q -1 19 -6 11 l 493 960 q 513 972 497 972 l 1057 972 q 1068 967 1064 972 q 1071 956 1072 963 l 1054 821 m 346 315 q 350 307 344 307 l 490 307 q 499 314 497 307 l 547 703 q 544 708 547 708 q 539 704 542 708 l 346 315 z "},"B":{"ha":633,"x_min":33,"x_max":650,"o":"m 607 274 q 509 71 593 142 q 303 0 425 0 l 49 0 q 38 5 42 0 q 35 17 33 10 l 150 956 q 156 967 151 963 q 168 972 161 972 l 393 972 q 583 917 515 972 q 650 754 650 863 q 647 707 650 740 q 531 507 631 571 q 529 499 525 503 q 610 317 610 435 q 607 274 610 304 m 328 804 q 321 797 321 804 l 293 579 q 299 572 293 572 l 347 572 q 430 610 400 572 q 460 714 460 647 q 438 781 460 758 q 376 804 417 804 l 328 804 m 310 169 q 383 203 354 169 q 421 297 413 236 q 422 326 422 307 q 401 403 422 375 q 343 431 381 431 l 282 431 q 274 424 276 431 l 244 176 q 250 169 242 169 l 310 169 z "},"C":{"ha":625,"x_min":49,"x_max":647,"o":"m 286 -11 q 113 51 176 -11 q 49 218 49 113 q 51 263 49 232 l 107 713 q 203 910 121 836 q 408 983 286 983 q 583 922 519 983 q 647 754 647 860 q 644 713 647 740 l 642 697 q 635 685 640 690 q 624 681 631 681 l 465 674 q 451 689 450 674 l 456 725 q 457 742 457 731 q 438 795 457 775 q 388 815 419 815 q 328 790 353 815 q 297 725 303 765 l 239 246 q 238 231 238 240 q 256 177 238 197 q 306 157 275 157 q 367 181 342 157 q 397 246 392 206 l 401 283 q 408 295 403 290 q 419 300 413 300 l 576 293 q 588 288 583 293 q 590 276 592 283 l 589 263 q 490 63 574 138 q 286 -11 407 -11 z "},"Ć":{"ha":625,"x_min":49,"x_max":647,"o":"m 286 -11 q 113 51 176 -11 q 49 218 49 113 q 51 263 49 232 l 107 713 q 203 910 121 836 q 408 983 286 983 q 583 922 519 983 q 647 754 647 860 q 644 713 647 740 l 642 697 q 635 685 640 690 q 624 681 631 681 l 465 674 q 451 689 450 674 l 456 725 q 457 742 457 731 q 438 795 457 775 q 388 815 419 815 q 328 790 353 815 q 297 725 303 765 l 239 246 q 238 231 238 240 q 256 177 238 197 q 306 157 275 157 q 367 181 342 157 q 397 246 392 206 l 401 283 q 408 295 403 290 q 419 300 413 300 l 576 293 q 588 288 583 293 q 590 276 592 283 l 589 263 q 490 63 574 138 q 286 -11 407 -11 m 344 1058 q 331 1067 331 1058 q 335 1078 331 1072 l 431 1219 q 453 1231 438 1231 l 578 1231 q 590 1222 590 1231 q 585 1210 590 1215 l 464 1068 q 443 1058 454 1058 l 344 1058 z "},"Č":{"ha":625,"x_min":49,"x_max":647,"o":"m 286 -11 q 113 51 176 -11 q 49 218 49 113 q 51 263 49 232 l 107 713 q 203 910 121 836 q 408 983 286 983 q 583 922 519 983 q 647 754 647 860 q 644 713 647 740 l 642 697 q 635 685 640 690 q 624 681 631 681 l 465 674 q 451 689 450 674 l 456 725 q 457 742 457 731 q 438 795 457 775 q 388 815 419 815 q 328 790 353 815 q 297 725 303 765 l 239 246 q 238 231 238 240 q 256 177 238 197 q 306 157 275 157 q 367 181 342 157 q 397 246 392 206 l 401 283 q 408 295 403 290 q 419 300 413 300 l 576 293 q 588 288 583 293 q 590 276 592 283 l 589 263 q 490 63 574 138 q 286 -11 407 -11 m 249 1211 q 247 1219 247 1214 q 263 1231 247 1231 l 379 1231 q 397 1218 393 1231 l 429 1140 q 436 1140 432 1133 l 486 1218 q 507 1231 494 1231 l 626 1231 q 639 1222 639 1231 q 635 1211 639 1218 l 528 1067 q 507 1056 519 1056 l 333 1056 q 315 1067 321 1056 l 249 1211 z "},"Ç":{"ha":625,"x_min":49,"x_max":647,"o":"m 642 697 q 635 685 640 690 q 624 681 631 681 l 465 674 q 451 689 450 674 l 456 725 q 457 742 457 731 q 438 795 457 775 q 388 815 419 815 q 328 790 353 815 q 297 725 303 765 l 239 246 q 238 231 238 240 q 256 177 238 197 q 306 157 275 157 q 367 181 342 157 q 397 246 392 206 l 401 283 q 408 295 403 290 q 419 300 413 300 l 576 293 q 588 288 583 293 q 590 276 592 283 l 589 263 q 513 86 575 157 q 357 -4 451 15 q 353 -12 347 -7 q 388 -115 388 -61 q 378 -171 388 -146 q 251 -257 347 -257 q 189 -247 215 -257 q 181 -228 176 -243 l 197 -164 q 218 -151 201 -149 q 247 -145 233 -154 q 265 -117 260 -136 q 268 -97 268 -103 q 225 -7 268 -54 l 218 -3 q 93 73 138 15 q 49 218 49 131 q 51 263 49 232 l 107 713 q 203 910 121 836 q 408 983 286 983 q 583 922 519 983 q 647 754 647 860 q 644 713 647 740 l 642 697 z "},"Ĉ":{"ha":625,"x_min":49,"x_max":647,"o":"m 286 -11 q 113 51 176 -11 q 49 218 49 113 q 51 263 49 232 l 107 713 q 203 910 121 836 q 408 983 286 983 q 583 922 519 983 q 647 754 647 860 q 644 713 647 740 l 642 697 q 635 685 640 690 q 624 681 631 681 l 465 674 q 451 689 450 674 l 456 725 q 457 742 457 731 q 438 795 457 775 q 388 815 419 815 q 328 790 353 815 q 297 725 303 765 l 239 246 q 238 231 238 240 q 256 177 238 197 q 306 157 275 157 q 367 181 342 157 q 397 246 392 206 l 401 283 q 408 295 403 290 q 419 300 413 300 l 576 293 q 588 288 583 293 q 590 276 592 283 l 589 263 q 490 63 574 138 q 286 -11 407 -11 m 233 1056 q 221 1064 221 1056 q 225 1075 221 1069 l 328 1219 q 349 1231 335 1231 l 522 1231 q 539 1219 535 1231 l 611 1075 q 613 1068 613 1072 q 597 1056 613 1056 l 479 1056 q 461 1068 465 1056 l 431 1146 q 422 1146 426 1153 l 372 1068 q 363 1059 369 1063 q 351 1056 357 1056 l 233 1056 z "},"Ċ":{"ha":625,"x_min":49,"x_max":647,"o":"m 286 -11 q 113 51 176 -11 q 49 218 49 113 q 51 263 49 232 l 107 713 q 203 910 121 836 q 408 983 286 983 q 583 922 519 983 q 647 754 647 860 q 644 713 647 740 l 642 697 q 635 685 640 690 q 624 681 631 681 l 465 674 q 451 689 450 674 l 456 725 q 457 742 457 731 q 438 795 457 775 q 388 815 419 815 q 328 790 353 815 q 297 725 303 765 l 239 246 q 238 231 238 240 q 256 177 238 197 q 306 157 275 157 q 367 181 342 157 q 397 246 392 206 l 401 283 q 408 295 403 290 q 419 300 413 300 l 576 293 q 588 288 583 293 q 590 276 592 283 l 589 263 q 490 63 574 138 q 286 -11 407 -11 m 417 1053 q 349 1080 375 1053 q 322 1149 322 1107 q 358 1237 322 1201 q 444 1272 393 1272 q 513 1247 488 1272 q 539 1178 539 1221 q 503 1089 539 1125 q 417 1053 467 1053 z "},"D":{"ha":642,"x_min":33,"x_max":653,"o":"m 49 0 q 38 5 42 0 q 35 17 33 10 l 150 956 q 156 967 151 963 q 168 972 161 972 l 411 972 q 588 910 524 972 q 653 744 653 849 q 650 703 653 731 l 596 269 q 498 74 581 147 q 292 0 415 0 l 49 0 m 244 175 q 250 168 242 168 l 311 169 q 374 201 347 171 q 408 282 401 232 l 458 690 q 460 714 460 699 q 441 780 460 756 q 388 804 422 804 l 328 804 q 321 797 321 804 l 244 175 z "},"Ð":{"ha":682,"x_min":75,"x_max":694,"o":"m 454 972 q 630 910 565 972 q 694 744 694 849 q 692 703 694 731 l 638 269 q 540 74 624 147 q 335 0 457 0 l 90 0 q 79 5 83 0 q 76 17 75 10 l 129 446 q 124 453 129 453 l 104 453 q 93 458 97 453 q 90 469 89 463 l 100 549 q 106 560 101 556 q 118 565 111 565 l 136 565 q 144 572 144 565 l 192 956 q 198 967 193 963 q 210 972 203 972 l 454 972 m 500 690 q 501 714 501 699 q 482 780 501 756 q 428 804 463 804 l 369 804 q 363 797 363 804 l 335 572 q 340 565 332 565 l 390 565 q 401 560 397 565 q 404 549 406 556 l 394 469 q 388 458 393 463 q 376 453 383 453 l 326 453 q 319 446 319 453 l 286 175 q 292 168 283 168 l 351 169 q 415 201 388 171 q 450 282 442 231 l 500 690 z "},"Ď":{"ha":642,"x_min":33,"x_max":653,"o":"m 49 0 q 38 5 42 0 q 35 17 33 10 l 150 956 q 156 967 151 963 q 168 972 161 972 l 411 972 q 588 910 524 972 q 653 744 653 849 q 650 703 653 731 l 596 269 q 498 74 581 147 q 292 0 415 0 l 49 0 m 244 175 q 250 168 242 168 l 311 169 q 374 201 347 171 q 408 282 401 232 l 458 690 q 460 714 460 699 q 441 780 460 756 q 388 804 422 804 l 328 804 q 321 797 321 804 l 244 175 z "},"Đ":{"ha":682,"x_min":75,"x_max":694,"o":"m 454 972 q 630 910 565 972 q 694 744 694 849 q 692 703 694 731 l 638 269 q 540 74 624 147 q 335 0 457 0 l 90 0 q 79 5 83 0 q 76 17 75 10 l 129 446 q 124 453 129 453 l 104 453 q 93 458 97 453 q 90 469 89 463 l 100 549 q 106 560 101 556 q 118 565 111 565 l 136 565 q 144 572 144 565 l 192 956 q 198 967 193 963 q 210 972 203 972 l 454 972 m 500 690 q 501 714 501 699 q 482 780 501 756 q 428 804 463 804 l 369 804 q 363 797 363 804 l 335 572 q 340 565 332 565 l 390 565 q 401 560 397 565 q 404 549 406 556 l 394 469 q 388 458 393 463 q 376 453 383 453 l 326 453 q 319 446 319 453 l 286 175 q 292 168 283 168 l 351 169 q 415 201 388 171 q 450 282 442 231 l 500 690 z "},"E":{"ha":590,"x_min":33,"x_max":646,"o":"m 628 821 q 622 809 626 814 q 610 804 617 804 l 328 804 q 321 797 321 804 l 293 578 q 299 571 293 571 l 461 571 q 472 566 468 571 q 475 554 476 561 l 458 419 q 452 408 457 413 q 440 403 447 403 l 279 403 q 271 396 271 403 l 244 175 q 250 168 242 168 l 531 168 q 542 163 538 168 q 546 151 547 158 l 529 17 q 523 5 528 10 q 511 0 518 0 l 49 0 q 38 5 42 0 q 35 17 33 10 l 150 956 q 156 967 151 963 q 168 972 161 972 l 631 972 q 642 967 638 972 q 644 956 646 963 l 628 821 z "},"É":{"ha":590,"x_min":33,"x_max":646,"o":"m 628 821 q 622 809 626 814 q 610 804 617 804 l 328 804 q 321 797 321 804 l 293 578 q 299 571 293 571 l 461 571 q 472 566 468 571 q 475 554 476 561 l 458 419 q 452 408 457 413 q 440 403 447 403 l 279 403 q 271 396 271 403 l 244 175 q 250 168 242 168 l 531 168 q 542 163 538 168 q 546 151 547 158 l 529 17 q 523 5 528 10 q 511 0 518 0 l 49 0 q 38 5 42 0 q 35 17 33 10 l 150 956 q 156 967 151 963 q 168 972 161 972 l 631 972 q 642 967 638 972 q 644 956 646 963 l 628 821 m 339 1058 q 325 1067 325 1058 q 329 1078 325 1072 l 425 1219 q 447 1231 432 1231 l 572 1231 q 585 1222 585 1231 q 579 1210 585 1215 l 458 1068 q 438 1058 449 1058 l 339 1058 z "},"Ě":{"ha":590,"x_min":33,"x_max":646,"o":"m 628 821 q 622 809 626 814 q 610 804 617 804 l 328 804 q 321 797 321 804 l 293 578 q 299 571 293 571 l 461 571 q 472 566 468 571 q 475 554 476 561 l 458 419 q 452 408 457 413 q 440 403 447 403 l 279 403 q 271 396 271 403 l 244 175 q 250 168 242 168 l 531 168 q 542 163 538 168 q 546 151 547 158 l 529 17 q 523 5 528 10 q 511 0 518 0 l 49 0 q 38 5 42 0 q 35 17 33 10 l 150 956 q 156 967 151 963 q 168 972 161 972 l 631 972 q 642 967 638 972 q 644 956 646 963 l 628 821 m 242 1211 q 240 1219 240 1214 q 256 1231 240 1231 l 372 1231 q 390 1218 386 1231 l 422 1140 q 429 1140 425 1133 l 479 1218 q 500 1231 488 1231 l 619 1231 q 632 1222 632 1231 q 628 1211 632 1218 l 521 1067 q 500 1056 513 1056 l 326 1056 q 308 1067 314 1056 l 242 1211 z "},"Ȩ":{"ha":590,"x_min":33,"x_max":646,"o":"m 628 821 q 622 809 626 814 q 610 804 617 804 l 328 804 q 321 797 321 804 l 293 578 q 299 571 293 571 l 461 571 q 472 566 468 571 q 475 554 476 561 l 458 419 q 452 408 457 413 q 440 403 447 403 l 279 403 q 271 396 271 403 l 244 175 q 250 168 242 168 l 531 168 q 542 163 538 168 q 546 151 547 158 l 529 17 q 523 5 528 10 q 511 0 518 0 l 347 0 q 342 -3 343 0 q 343 -8 340 -6 q 372 -104 372 -57 q 363 -160 372 -135 q 313 -226 346 -207 q 238 -246 279 -246 q 175 -236 201 -246 q 166 -230 168 -235 q 167 -217 164 -225 l 182 -153 q 203 -140 186 -137 q 231 -134 218 -143 q 251 -106 244 -125 q 254 -86 254 -94 q 217 -4 254 -46 q 207 0 213 0 l 49 0 q 38 5 42 0 q 35 17 33 10 l 150 956 q 156 967 151 963 q 168 972 161 972 l 631 972 q 642 967 638 972 q 644 956 646 963 l 628 821 z "},"Ê":{"ha":590,"x_min":33,"x_max":646,"o":"m 628 821 q 622 809 626 814 q 610 804 617 804 l 328 804 q 321 797 321 804 l 293 578 q 299 571 293 571 l 461 571 q 472 566 468 571 q 475 554 476 561 l 458 419 q 452 408 457 413 q 440 403 447 403 l 279 403 q 271 396 271 403 l 244 175 q 250 168 242 168 l 531 168 q 542 163 538 168 q 546 151 547 158 l 529 17 q 523 5 528 10 q 511 0 518 0 l 49 0 q 38 5 42 0 q 35 17 33 10 l 150 956 q 156 967 151 963 q 168 972 161 972 l 631 972 q 642 967 638 972 q 644 956 646 963 l 628 821 m 226 1056 q 214 1064 214 1056 q 218 1075 214 1069 l 321 1219 q 342 1231 328 1231 l 515 1231 q 532 1219 528 1231 l 604 1075 q 606 1068 606 1072 q 590 1056 606 1056 l 472 1056 q 454 1068 458 1056 l 424 1146 q 415 1146 419 1153 l 365 1068 q 356 1059 363 1063 q 344 1056 350 1056 l 226 1056 z "},"Ế":{"ha":590,"x_min":33,"x_max":865,"o":"m 628 821 q 622 809 626 814 q 610 804 617 804 l 328 804 q 321 797 321 804 l 293 578 q 299 571 293 571 l 461 571 q 472 566 468 571 q 475 554 476 561 l 458 419 q 452 408 457 413 q 440 403 447 403 l 279 403 q 271 396 271 403 l 244 175 q 250 168 242 168 l 531 168 q 542 163 538 168 q 546 151 547 158 l 529 17 q 523 5 528 10 q 511 0 518 0 l 49 0 q 38 5 42 0 q 35 17 33 10 l 150 956 q 156 967 151 963 q 168 972 161 972 l 631 972 q 642 967 638 972 q 644 956 646 963 l 628 821 z "},"Ệ":{"ha":590,"x_min":33,"x_max":646,"o":"m 628 821 q 622 809 626 814 q 610 804 617 804 l 328 804 q 321 797 321 804 l 293 578 q 299 571 293 571 l 461 571 q 472 566 468 571 q 475 554 476 561 l 458 419 q 452 408 457 413 q 440 403 447 403 l 279 403 q 271 396 271 403 l 244 175 q 250 168 242 168 l 531 168 q 542 163 538 168 q 546 151 547 158 l 529 17 q 523 5 528 10 q 511 0 518 0 l 49 0 q 38 5 42 0 q 35 17 33 10 l 150 956 q 156 967 151 963 q 168 972 161 972 l 631 972 q 642 967 638 972 q 644 956 646 963 l 628 821 m 231 -333 q 165 -308 190 -333 q 140 -243 140 -283 q 174 -158 140 -192 q 256 -125 207 -125 q 320 -149 296 -125 q 344 -211 344 -172 q 311 -298 344 -262 q 231 -333 278 -333 m 226 1056 q 214 1064 214 1056 q 218 1075 214 1069 l 321 1219 q 342 1231 328 1231 l 515 1231 q 532 1219 528 1231 l 604 1075 q 606 1068 606 1072 q 590 1056 606 1056 l 472 1056 q 454 1068 458 1056 l 424 1146 q 415 1146 419 1153 l 365 1068 q 356 1059 363 1063 q 344 1056 350 1056 l 226 1056 z "},"Ề":{"ha":590,"x_min":33,"x_max":715,"o":"m 628 821 q 622 809 626 814 q 610 804 617 804 l 328 804 q 321 797 321 804 l 293 578 q 299 571 293 571 l 461 571 q 472 566 468 571 q 475 554 476 561 l 458 419 q 452 408 457 413 q 440 403 447 403 l 279 403 q 271 396 271 403 l 244 175 q 250 168 242 168 l 531 168 q 542 163 538 168 q 546 151 547 158 l 529 17 q 523 5 528 10 q 511 0 518 0 l 49 0 q 38 5 42 0 q 35 17 33 10 l 150 956 q 156 967 151 963 q 168 972 161 972 l 631 972 q 642 967 638 972 q 644 956 646 963 l 628 821 z "},"Ể":{"ha":590,"x_min":33,"x_max":779,"o":"m 628 821 q 622 809 626 814 q 610 804 617 804 l 328 804 q 321 797 321 804 l 293 578 q 299 571 293 571 l 461 571 q 472 566 468 571 q 475 554 476 561 l 458 419 q 452 408 457 413 q 440 403 447 403 l 279 403 q 271 396 271 403 l 244 175 q 250 168 242 168 l 531 168 q 542 163 538 168 q 546 151 547 158 l 529 17 q 523 5 528 10 q 511 0 518 0 l 49 0 q 38 5 42 0 q 35 17 33 10 l 150 956 q 156 967 151 963 q 168 972 161 972 l 631 972 q 642 967 638 972 q 644 956 646 963 l 628 821 m 615 1199 q 604 1206 607 1200 q 606 1219 601 1211 q 635 1265 619 1249 q 654 1285 651 1282 q 676 1309 669 1299 q 686 1336 683 1319 q 678 1359 688 1350 q 653 1368 668 1368 q 625 1360 638 1368 q 592 1329 613 1351 q 568 1325 581 1315 l 531 1357 q 525 1368 525 1361 q 531 1381 525 1375 q 594 1438 563 1421 q 669 1456 625 1456 q 750 1429 721 1456 q 779 1356 779 1403 q 765 1294 779 1318 q 719 1240 750 1271 q 682 1200 692 1215 q 661 1190 674 1188 l 615 1199 m 226 1056 q 214 1064 214 1056 q 218 1075 214 1069 l 321 1219 q 342 1231 328 1231 l 515 1231 q 532 1219 528 1231 l 604 1075 q 606 1068 606 1072 q 590 1056 606 1056 l 472 1056 q 454 1068 458 1056 l 424 1146 q 415 1146 419 1153 l 365 1068 q 356 1059 363 1063 q 344 1056 350 1056 l 226 1056 z "},"Ễ":{"ha":590,"x_min":33,"x_max":646,"o":"m 628 821 q 622 809 626 814 q 610 804 617 804 l 328 804 q 321 797 321 804 l 293 578 q 299 571 293 571 l 461 571 q 472 566 468 571 q 475 554 476 561 l 458 419 q 452 408 457 413 q 440 403 447 403 l 279 403 q 271 396 271 403 l 244 175 q 250 168 242 168 l 531 168 q 542 163 538 168 q 546 151 547 158 l 529 17 q 523 5 528 10 q 511 0 518 0 l 49 0 q 38 5 42 0 q 35 17 33 10 l 150 956 q 156 967 151 963 q 168 972 161 972 l 631 972 q 642 967 638 972 q 644 956 646 963 l 628 821 z "},"Ë":{"ha":590,"x_min":33,"x_max":654,"o":"m 628 821 q 622 809 626 814 q 610 804 617 804 l 328 804 q 321 797 321 804 l 293 578 q 299 571 293 571 l 461 571 q 472 566 468 571 q 475 554 476 561 l 458 419 q 452 408 457 413 q 440 403 447 403 l 279 403 q 271 396 271 403 l 244 175 q 250 168 242 168 l 531 168 q 542 163 538 168 q 546 151 547 158 l 529 17 q 523 5 528 10 q 511 0 518 0 l 49 0 q 38 5 42 0 q 35 17 33 10 l 150 956 q 156 967 151 963 q 168 972 161 972 l 631 972 q 642 967 638 972 q 644 956 646 963 l 628 821 z "},"Ė":{"ha":590,"x_min":33,"x_max":646,"o":"m 628 821 q 622 809 626 814 q 610 804 617 804 l 328 804 q 321 797 321 804 l 293 578 q 299 571 293 571 l 461 571 q 472 566 468 571 q 475 554 476 561 l 458 419 q 452 408 457 413 q 440 403 447 403 l 279 403 q 271 396 271 403 l 244 175 q 250 168 242 168 l 531 168 q 542 163 538 168 q 546 151 547 158 l 529 17 q 523 5 528 10 q 511 0 518 0 l 49 0 q 38 5 42 0 q 35 17 33 10 l 150 956 q 156 967 151 963 q 168 972 161 972 l 631 972 q 642 967 638 972 q 644 956 646 963 l 628 821 m 410 1053 q 342 1080 368 1053 q 315 1149 315 1107 q 351 1237 315 1201 q 438 1272 386 1272 q 506 1247 481 1272 q 532 1178 532 1221 q 496 1089 532 1125 q 410 1053 460 1053 z "},"Ẹ":{"ha":590,"x_min":33,"x_max":646,"o":"m 628 821 q 622 809 626 814 q 610 804 617 804 l 328 804 q 321 797 321 804 l 293 578 q 299 571 293 571 l 461 571 q 472 566 468 571 q 475 554 476 561 l 458 419 q 452 408 457 413 q 440 403 447 403 l 279 403 q 271 396 271 403 l 244 175 q 250 168 242 168 l 531 168 q 542 163 538 168 q 546 151 547 158 l 529 17 q 523 5 528 10 q 511 0 518 0 l 49 0 q 38 5 42 0 q 35 17 33 10 l 150 956 q 156 967 151 963 q 168 972 161 972 l 631 972 q 642 967 638 972 q 644 956 646 963 l 628 821 m 231 -333 q 165 -308 190 -333 q 140 -243 140 -283 q 174 -158 140 -192 q 256 -125 207 -125 q 320 -149 296 -125 q 344 -211 344 -172 q 311 -298 344 -262 q 231 -333 278 -333 z "},"È":{"ha":590,"x_min":33,"x_max":646,"o":"m 628 821 q 622 809 626 814 q 610 804 617 804 l 328 804 q 321 797 321 804 l 293 578 q 299 571 293 571 l 461 571 q 472 566 468 571 q 475 554 476 561 l 458 419 q 452 408 457 413 q 440 403 447 403 l 279 403 q 271 396 271 403 l 244 175 q 250 168 242 168 l 531 168 q 542 163 538 168 q 546 151 547 158 l 529 17 q 523 5 528 10 q 511 0 518 0 l 49 0 q 38 5 42 0 q 35 17 33 10 l 150 956 q 156 967 151 963 q 168 972 161 972 l 631 972 q 642 967 638 972 q 644 956 646 963 l 628 821 m 472 1078 q 474 1069 474 1075 q 458 1058 474 1058 l 357 1058 q 339 1068 347 1058 l 254 1210 q 251 1219 251 1215 q 256 1227 251 1224 q 267 1231 260 1231 l 392 1231 q 410 1219 404 1231 l 472 1078 z "},"Ẻ":{"ha":590,"x_min":33,"x_max":646,"o":"m 628 821 q 622 809 626 814 q 610 804 617 804 l 328 804 q 321 797 321 804 l 293 578 q 299 571 293 571 l 461 571 q 472 566 468 571 q 475 554 476 561 l 458 419 q 452 408 457 413 q 440 403 447 403 l 279 403 q 271 396 271 403 l 244 175 q 250 168 242 168 l 531 168 q 542 163 538 168 q 546 151 547 158 l 529 17 q 523 5 528 10 q 511 0 518 0 l 49 0 q 38 5 42 0 q 35 17 33 10 l 150 956 q 156 967 151 963 q 168 972 161 972 l 631 972 q 642 967 638 972 q 644 956 646 963 l 628 821 m 390 1031 q 381 1051 372 1035 q 433 1122 399 1088 q 456 1149 449 1138 q 465 1178 464 1160 q 457 1201 467 1192 q 432 1211 447 1211 q 400 1202 414 1211 q 365 1169 386 1193 q 353 1161 360 1163 q 340 1165 346 1160 l 299 1200 q 293 1211 293 1204 q 299 1224 293 1218 q 367 1287 335 1268 q 447 1306 400 1306 q 535 1277 504 1306 q 567 1199 567 1249 q 551 1132 567 1157 q 501 1075 535 1107 q 461 1031 469 1043 q 440 1021 451 1019 l 390 1031 z "},"Ē":{"ha":590,"x_min":33,"x_max":646,"o":"m 628 821 q 622 809 626 814 q 610 804 617 804 l 328 804 q 321 797 321 804 l 293 578 q 299 571 293 571 l 461 571 q 472 566 468 571 q 475 554 476 561 l 458 419 q 452 408 457 413 q 440 403 447 403 l 279 403 q 271 396 271 403 l 244 175 q 250 168 242 168 l 531 168 q 542 163 538 168 q 546 151 547 158 l 529 17 q 523 5 528 10 q 511 0 518 0 l 49 0 q 38 5 42 0 q 35 17 33 10 l 150 956 q 156 967 151 963 q 168 972 161 972 l 631 972 q 642 967 638 972 q 644 956 646 963 l 628 821 m 274 1065 q 263 1070 267 1065 q 260 1082 258 1075 l 272 1182 q 278 1194 272 1189 q 290 1199 283 1199 l 554 1199 q 565 1194 561 1199 q 568 1182 569 1189 l 556 1082 q 549 1070 554 1075 q 538 1065 544 1065 l 274 1065 z "},"Ę":{"ha":590,"x_min":33,"x_max":646,"o":"m 628 821 q 622 809 626 814 q 610 804 617 804 l 328 804 q 321 797 321 804 l 293 578 q 299 571 293 571 l 461 571 q 472 566 468 571 q 475 554 476 561 l 458 419 q 452 408 457 413 q 440 403 447 403 l 279 403 q 271 396 271 403 l 244 175 q 250 168 242 168 l 531 168 q 542 163 538 168 q 546 151 547 158 l 529 17 q 523 5 528 10 q 511 0 518 0 l 340 0 q 332 -3 335 0 q 264 -108 264 -64 q 275 -140 264 -131 q 304 -147 286 -150 l 308 -147 q 321 -160 321 -147 l 321 -224 q 308 -243 321 -239 q 243 -253 279 -253 q 167 -229 197 -253 q 138 -150 138 -206 q 203 -8 138 -75 q 205 -3 206 -6 q 201 0 204 0 l 49 0 q 38 5 42 0 q 35 17 33 10 l 150 956 q 156 967 151 963 q 168 972 161 972 l 631 972 q 642 967 638 972 q 644 956 646 963 l 628 821 z "},"Ẽ":{"ha":590,"x_min":33,"x_max":646,"o":"m 628 821 q 622 809 626 814 q 610 804 617 804 l 328 804 q 321 797 321 804 l 293 578 q 299 571 293 571 l 461 571 q 472 566 468 571 q 475 554 476 561 l 458 419 q 452 408 457 413 q 440 403 447 403 l 279 403 q 271 396 271 403 l 244 175 q 250 168 242 168 l 531 168 q 542 163 538 168 q 546 151 547 158 l 529 17 q 523 5 528 10 q 511 0 518 0 l 49 0 q 38 5 42 0 q 35 17 33 10 l 150 956 q 156 967 151 963 q 168 972 161 972 l 631 972 q 642 967 638 972 q 644 956 646 963 l 628 821 m 503 1072 q 432 1097 472 1072 q 406 1113 421 1103 q 379 1122 392 1122 q 326 1092 349 1122 q 303 1086 317 1078 l 251 1128 q 249 1150 243 1136 q 306 1222 272 1197 q 378 1246 340 1246 q 460 1214 421 1246 q 473 1204 464 1211 q 492 1193 482 1197 q 513 1189 501 1189 q 564 1217 543 1189 q 588 1224 576 1233 l 638 1185 q 643 1174 643 1179 q 635 1153 643 1165 q 571 1092 607 1111 q 503 1072 535 1072 z "},"F":{"ha":567,"x_min":33,"x_max":644,"o":"m 626 821 q 620 809 625 814 q 608 804 615 804 l 328 804 q 321 797 321 804 l 293 578 q 299 571 293 571 l 460 571 q 471 566 467 571 q 474 554 475 561 l 457 419 q 451 408 456 413 q 439 403 446 403 l 279 403 q 271 396 271 403 l 225 17 q 218 5 224 10 q 206 0 213 0 l 49 0 q 38 5 42 0 q 35 17 33 10 l 150 956 q 156 967 151 963 q 168 972 161 972 l 629 972 q 640 967 636 972 q 643 956 644 963 l 626 821 z "},"G":{"ha":629,"x_min":47,"x_max":647,"o":"m 286 -11 q 111 49 175 -11 q 47 211 47 108 q 50 251 47 224 l 107 721 q 203 912 121 840 q 408 983 286 983 q 583 923 518 983 q 647 760 647 863 q 644 719 647 747 l 639 667 q 632 655 638 660 q 619 650 626 650 l 463 650 q 451 655 456 650 q 449 667 447 660 l 456 722 q 457 739 457 728 q 438 794 457 774 q 388 815 419 815 q 328 790 353 815 q 297 722 303 764 l 239 250 q 253 183 235 208 q 306 157 271 157 q 367 183 342 157 q 397 250 392 208 l 411 361 q 406 368 411 368 l 346 368 q 335 373 339 368 q 332 385 331 378 l 347 508 q 353 520 347 515 q 365 525 358 525 l 604 525 q 619 508 619 525 l 588 251 q 490 60 574 132 q 286 -11 407 -11 z "},"Ğ":{"ha":629,"x_min":47,"x_max":647,"o":"m 286 -11 q 111 49 175 -11 q 47 211 47 108 q 50 251 47 224 l 107 721 q 203 912 121 840 q 408 983 286 983 q 583 923 518 983 q 647 760 647 863 q 644 719 647 747 l 639 667 q 632 655 638 660 q 619 650 626 650 l 463 650 q 451 655 456 650 q 449 667 447 660 l 456 722 q 457 739 457 728 q 438 794 457 774 q 388 815 419 815 q 328 790 353 815 q 297 722 303 764 l 239 250 q 253 183 235 208 q 306 157 271 157 q 367 183 342 157 q 397 250 392 208 l 411 361 q 406 368 411 368 l 346 368 q 335 373 339 368 q 332 385 331 378 l 347 508 q 353 520 347 515 q 365 525 358 525 l 604 525 q 619 508 619 525 l 588 251 q 490 60 574 132 q 286 -11 407 -11 m 413 1021 q 306 1061 344 1021 q 271 1168 268 1101 q 288 1185 271 1185 l 354 1185 q 369 1168 369 1185 q 385 1124 371 1140 q 424 1107 400 1107 q 467 1124 447 1107 q 493 1168 486 1140 q 513 1185 497 1185 l 579 1185 q 593 1168 596 1185 q 530 1061 579 1101 q 413 1021 481 1021 z "},"Ĝ":{"ha":629,"x_min":47,"x_max":647,"o":"m 286 -11 q 111 49 175 -11 q 47 211 47 108 q 50 251 47 224 l 107 721 q 203 912 121 840 q 408 983 286 983 q 583 923 518 983 q 647 760 647 863 q 644 719 647 747 l 639 667 q 632 655 638 660 q 619 650 626 650 l 463 650 q 451 655 456 650 q 449 667 447 660 l 456 722 q 457 739 457 728 q 438 794 457 774 q 388 815 419 815 q 328 790 353 815 q 297 722 303 764 l 239 250 q 253 183 235 208 q 306 157 271 157 q 367 183 342 157 q 397 250 392 208 l 411 361 q 406 368 411 368 l 346 368 q 335 373 339 368 q 332 385 331 378 l 347 508 q 353 520 347 515 q 365 525 358 525 l 604 525 q 619 508 619 525 l 588 251 q 490 60 574 132 q 286 -11 407 -11 m 233 1056 q 221 1064 221 1056 q 225 1075 221 1069 l 328 1219 q 349 1231 335 1231 l 522 1231 q 539 1219 535 1231 l 611 1075 q 613 1068 613 1072 q 597 1056 613 1056 l 479 1056 q 461 1068 465 1056 l 431 1146 q 422 1146 426 1153 l 372 1068 q 363 1059 369 1063 q 351 1056 357 1056 l 233 1056 z "},"Ġ":{"ha":629,"x_min":47,"x_max":647,"o":"m 286 -11 q 111 49 175 -11 q 47 211 47 108 q 50 251 47 224 l 107 721 q 203 912 121 840 q 408 983 286 983 q 583 923 518 983 q 647 760 647 863 q 644 719 647 747 l 639 667 q 632 655 638 660 q 619 650 626 650 l 463 650 q 451 655 456 650 q 449 667 447 660 l 456 722 q 457 739 457 728 q 438 794 457 774 q 388 815 419 815 q 328 790 353 815 q 297 722 303 764 l 239 250 q 253 183 235 208 q 306 157 271 157 q 367 183 342 157 q 397 250 392 208 l 411 361 q 406 368 411 368 l 346 368 q 335 373 339 368 q 332 385 331 378 l 347 508 q 353 520 347 515 q 365 525 358 525 l 604 525 q 619 508 619 525 l 588 251 q 490 60 574 132 q 286 -11 407 -11 m 417 1053 q 349 1080 375 1053 q 322 1149 322 1107 q 358 1237 322 1201 q 444 1272 393 1272 q 513 1247 488 1272 q 539 1178 539 1221 q 503 1089 539 1125 q 417 1053 467 1053 z "},"H":{"ha":647,"x_min":33,"x_max":679,"o":"m 488 956 q 494 967 489 963 q 506 972 499 972 l 664 972 q 675 967 671 972 q 678 956 679 963 l 563 17 q 556 5 561 10 q 544 0 551 0 l 386 0 q 375 5 379 0 q 372 17 371 10 l 419 396 q 414 403 419 403 l 279 403 q 271 396 271 403 l 225 17 q 218 5 224 10 q 206 0 213 0 l 49 0 q 38 5 42 0 q 35 17 33 10 l 150 956 q 156 967 151 963 q 168 972 161 972 l 325 972 q 340 956 340 972 l 293 578 q 299 571 293 571 l 433 571 q 442 578 439 571 l 488 956 z "},"Ħ":{"ha":647,"x_min":33,"x_max":728,"o":"m 711 838 q 723 833 718 838 q 726 821 728 828 l 714 721 q 708 709 713 714 q 696 704 703 704 l 654 704 q 646 697 649 704 l 563 17 q 556 5 561 10 q 544 0 551 0 l 386 0 q 375 5 379 0 q 372 17 371 10 l 419 396 q 414 403 419 403 l 279 403 q 271 396 271 403 l 225 17 q 218 5 224 10 q 206 0 213 0 l 49 0 q 38 5 42 0 q 35 17 33 10 l 118 697 q 113 704 118 704 l 72 704 q 57 721 57 704 l 69 821 q 76 833 71 828 q 88 838 81 838 l 128 838 q 136 844 136 838 l 150 956 q 156 967 151 963 q 168 972 161 972 l 325 972 q 340 956 340 972 l 326 844 q 332 838 324 838 l 467 838 q 474 844 474 838 l 488 956 q 494 967 489 963 q 506 972 499 972 l 664 972 q 675 967 671 972 q 678 956 679 963 l 664 844 q 669 838 664 838 l 711 838 m 433 571 q 442 578 439 571 l 456 697 q 450 704 458 704 l 315 704 q 308 697 308 704 l 293 578 q 299 571 293 571 l 433 571 z "},"Ĥ":{"ha":647,"x_min":33,"x_max":679,"o":"m 488 956 q 494 967 489 963 q 506 972 499 972 l 664 972 q 675 967 671 972 q 678 956 679 963 l 563 17 q 556 5 561 10 q 544 0 551 0 l 386 0 q 375 5 379 0 q 372 17 371 10 l 419 396 q 414 403 419 403 l 279 403 q 271 396 271 403 l 225 17 q 218 5 224 10 q 206 0 213 0 l 49 0 q 38 5 42 0 q 35 17 33 10 l 150 956 q 156 967 151 963 q 168 972 161 972 l 325 972 q 340 956 340 972 l 293 578 q 299 571 293 571 l 433 571 q 442 578 439 571 l 488 956 m 242 1057 q 229 1065 229 1057 q 233 1076 229 1071 l 336 1221 q 357 1232 343 1232 l 531 1232 q 547 1221 543 1232 l 619 1076 q 621 1069 621 1074 q 606 1057 621 1057 l 488 1057 q 469 1069 474 1057 l 439 1147 q 431 1147 435 1154 l 381 1069 q 372 1060 378 1064 q 360 1057 365 1057 l 242 1057 z "},"I":{"ha":310,"x_min":33,"x_max":340,"o":"m 49 0 q 38 5 42 0 q 35 17 33 10 l 150 956 q 156 967 151 963 q 168 972 161 972 l 325 972 q 340 956 340 972 l 225 17 q 218 5 224 10 q 206 0 213 0 l 49 0 z "},"Í":{"ha":310,"x_min":33,"x_max":431,"o":"m 49 0 q 38 5 42 0 q 35 17 33 10 l 150 956 q 156 967 151 963 q 168 972 161 972 l 325 972 q 340 956 340 972 l 225 17 q 218 5 224 10 q 206 0 213 0 l 49 0 m 185 1058 q 171 1067 171 1058 q 175 1078 171 1072 l 271 1219 q 293 1231 278 1231 l 418 1231 q 431 1222 431 1231 q 425 1210 431 1215 l 304 1068 q 283 1058 294 1058 l 185 1058 z "},"Î":{"ha":310,"x_min":33,"x_max":453,"o":"m 49 0 q 38 5 42 0 q 35 17 33 10 l 150 956 q 156 967 151 963 q 168 972 161 972 l 325 972 q 340 956 340 972 l 225 17 q 218 5 224 10 q 206 0 213 0 l 49 0 m 74 1056 q 61 1064 61 1056 q 65 1075 61 1069 l 168 1219 q 189 1231 175 1231 l 363 1231 q 379 1219 375 1231 l 451 1075 q 453 1068 453 1072 q 438 1056 453 1056 l 319 1056 q 301 1068 306 1056 l 271 1146 q 263 1146 267 1153 l 213 1068 q 203 1059 210 1063 q 192 1056 197 1056 l 74 1056 z "},"Ï":{"ha":310,"x_min":33,"x_max":501,"o":"m 49 0 q 38 5 42 0 q 35 17 33 10 l 150 956 q 156 967 151 963 q 168 972 161 972 l 325 972 q 340 956 340 972 l 225 17 q 218 5 224 10 q 206 0 213 0 l 49 0 z "},"İ":{"ha":310,"x_min":33,"x_max":379,"o":"m 49 0 q 38 5 42 0 q 35 17 33 10 l 150 956 q 156 967 151 963 q 168 972 161 972 l 325 972 q 340 956 340 972 l 225 17 q 218 5 224 10 q 206 0 213 0 l 49 0 m 257 1053 q 189 1080 215 1053 q 163 1149 163 1107 q 198 1237 163 1201 q 285 1272 233 1272 q 353 1247 328 1272 q 379 1178 379 1221 q 343 1089 379 1125 q 257 1053 307 1053 z "},"Ị":{"ha":310,"x_min":-3,"x_max":340,"o":"m 49 0 q 38 5 42 0 q 35 17 33 10 l 150 956 q 156 967 151 963 q 168 972 161 972 l 325 972 q 340 956 340 972 l 225 17 q 218 5 224 10 q 206 0 213 0 l 49 0 m 88 -333 q 22 -308 47 -333 q -3 -243 -3 -283 q 31 -158 -3 -192 q 113 -125 64 -125 q 177 -149 153 -125 q 201 -211 201 -172 q 168 -298 201 -262 q 88 -333 135 -333 z "},"Ì":{"ha":310,"x_min":33,"x_max":340,"o":"m 49 0 q 38 5 42 0 q 35 17 33 10 l 150 956 q 156 967 151 963 q 168 972 161 972 l 325 972 q 340 956 340 972 l 225 17 q 218 5 224 10 q 206 0 213 0 l 49 0 m 319 1078 q 321 1069 321 1075 q 306 1058 321 1058 l 204 1058 q 186 1068 194 1058 l 101 1210 q 99 1219 99 1215 q 103 1227 99 1224 q 114 1231 107 1231 l 239 1231 q 257 1219 251 1231 l 319 1078 z "},"Ỉ":{"ha":310,"x_min":33,"x_max":414,"o":"m 49 0 q 38 5 42 0 q 35 17 33 10 l 150 956 q 156 967 151 963 q 168 972 161 972 l 325 972 q 340 956 340 972 l 225 17 q 218 5 224 10 q 206 0 213 0 l 49 0 m 238 1031 q 228 1051 219 1035 q 281 1122 246 1088 q 303 1149 296 1138 q 313 1178 311 1160 q 304 1201 314 1192 q 279 1211 294 1211 q 247 1202 261 1211 q 213 1169 233 1193 q 200 1161 207 1163 q 188 1165 193 1160 l 146 1200 q 140 1211 140 1204 q 146 1224 140 1218 q 215 1287 182 1268 q 294 1306 247 1306 q 383 1277 351 1306 q 414 1199 414 1249 q 398 1132 414 1157 q 349 1075 382 1107 q 308 1031 317 1043 q 288 1021 299 1019 l 238 1031 z "},"Ī":{"ha":310,"x_min":33,"x_max":417,"o":"m 49 0 q 38 5 42 0 q 35 17 33 10 l 150 956 q 156 967 151 963 q 168 972 161 972 l 325 972 q 340 956 340 972 l 225 17 q 218 5 224 10 q 206 0 213 0 l 49 0 m 121 1065 q 110 1070 114 1065 q 107 1082 106 1075 l 119 1182 q 125 1194 119 1189 q 138 1199 131 1199 l 401 1199 q 413 1194 408 1199 q 415 1182 417 1189 l 403 1082 q 397 1070 401 1075 q 385 1065 392 1065 l 121 1065 z "},"Į":{"ha":294,"x_min":1,"x_max":333,"o":"m 42 0 q 31 5 35 0 q 28 17 26 10 l 143 956 q 149 967 144 963 q 161 972 154 972 l 318 972 q 333 956 333 972 l 218 17 q 211 5 217 10 q 199 0 206 0 l 42 0 m 186 -236 q 183 -249 186 -244 q 172 -256 181 -254 q 107 -265 133 -265 q 32 -242 63 -265 q 1 -162 1 -218 q 82 -8 1 -79 q 103 0 90 0 l 188 0 q 200 -8 200 0 q 192 -21 200 -15 q 129 -122 129 -76 q 140 -152 129 -143 q 169 -158 151 -161 l 174 -158 q 186 -172 186 -158 l 186 -236 z "},"Ĩ":{"ha":310,"x_min":33,"x_max":490,"o":"m 49 0 q 38 5 42 0 q 35 17 33 10 l 150 956 q 156 967 151 963 q 168 972 161 972 l 325 972 q 340 956 340 972 l 225 17 q 218 5 224 10 q 206 0 213 0 l 49 0 m 350 1072 q 279 1097 319 1072 q 253 1113 268 1103 q 226 1122 239 1122 q 174 1092 196 1122 q 150 1086 164 1078 l 99 1128 q 96 1150 90 1136 q 153 1222 119 1197 q 225 1246 188 1246 q 307 1214 268 1246 q 320 1204 311 1211 q 339 1193 329 1197 q 360 1189 349 1189 q 411 1217 390 1189 q 435 1224 424 1233 l 485 1185 q 490 1174 490 1179 q 482 1153 490 1165 q 418 1092 454 1111 q 350 1072 382 1072 z "},"J":{"ha":610,"x_min":19,"x_max":642,"o":"m 254 -11 q 83 49 146 -11 q 19 210 19 108 q 22 250 19 222 l 35 346 q 41 358 36 353 q 53 363 46 363 l 210 363 q 225 346 225 363 l 213 247 q 211 229 211 242 q 228 177 211 197 q 275 157 246 157 q 334 182 310 157 q 363 247 358 207 l 450 956 q 456 967 451 963 q 468 972 461 972 l 626 972 q 638 967 633 972 q 640 956 642 963 l 553 250 q 456 60 539 132 q 254 -11 374 -11 z "},"Ĵ":{"ha":610,"x_min":19,"x_max":749,"o":"m 254 -11 q 83 49 146 -11 q 19 210 19 108 q 22 250 19 222 l 35 346 q 41 358 36 353 q 53 363 46 363 l 210 363 q 225 346 225 363 l 213 247 q 211 229 211 242 q 228 177 211 197 q 275 157 246 157 q 334 182 310 157 q 363 247 358 207 l 450 956 q 456 967 451 963 q 468 972 461 972 l 626 972 q 638 967 633 972 q 640 956 642 963 l 553 250 q 456 60 539 132 q 254 -11 374 -11 m 369 1057 q 357 1065 357 1057 q 361 1076 357 1071 l 464 1221 q 485 1232 471 1232 l 658 1232 q 675 1221 671 1232 l 747 1076 q 749 1069 749 1074 q 733 1057 749 1057 l 615 1057 q 597 1069 601 1057 l 567 1147 q 558 1147 563 1154 l 508 1069 q 499 1060 506 1064 q 488 1057 493 1057 l 369 1057 z "},"K":{"ha":661,"x_min":33,"x_max":725,"o":"m 49 0 q 38 5 42 0 q 35 17 33 10 l 150 956 q 156 967 151 963 q 168 972 161 972 l 325 972 q 340 956 340 972 l 297 606 q 299 599 296 600 q 304 604 303 599 l 522 960 q 543 972 529 972 l 710 972 q 722 967 719 972 q 719 953 725 963 l 471 553 q 469 549 469 551 q 468 544 468 547 l 615 19 l 617 14 q 601 0 617 0 l 432 0 q 415 13 418 0 l 319 376 q 316 380 319 381 q 310 376 313 379 l 263 304 q 260 301 261 303 q 258 296 258 299 l 225 17 q 218 5 224 10 q 206 0 213 0 l 49 0 z "},"L":{"ha":574,"x_min":33,"x_max":547,"o":"m 49 0 q 38 5 42 0 q 35 17 33 10 l 150 956 q 156 967 151 963 q 168 972 161 972 l 325 972 q 340 956 340 972 l 244 175 q 250 168 242 168 l 532 168 q 547 151 547 168 l 531 17 q 524 5 529 10 q 513 0 519 0 l 49 0 z "},"Ĺ":{"ha":574,"x_min":33,"x_max":547,"o":"m 49 0 q 38 5 42 0 q 35 17 33 10 l 150 956 q 156 967 151 963 q 168 972 161 972 l 325 972 q 340 956 340 972 l 244 175 q 250 168 242 168 l 532 168 q 547 151 547 168 l 531 17 q 524 5 529 10 q 513 0 519 0 l 49 0 m 189 1058 q 175 1067 175 1058 q 179 1078 175 1072 l 275 1219 q 297 1231 282 1231 l 422 1231 q 435 1222 435 1231 q 429 1210 435 1215 l 308 1068 q 288 1058 299 1058 l 189 1058 z "},"Ľ":{"ha":578,"x_min":33,"x_max":624,"o":"m 49 0 q 38 5 42 0 q 35 17 33 10 l 150 956 q 156 967 151 963 q 168 972 161 972 l 325 972 q 340 956 340 972 l 244 175 q 250 168 242 168 l 532 168 q 547 151 547 168 l 531 17 q 524 5 529 10 q 513 0 519 0 l 49 0 z "},"Ļ":{"ha":574,"x_min":33,"x_max":547,"o":"m 49 0 q 38 5 42 0 q 35 17 33 10 l 150 956 q 156 967 151 963 q 168 972 161 972 l 325 972 q 340 956 340 972 l 244 175 q 250 168 242 168 l 532 168 q 547 151 547 168 l 531 17 q 524 5 529 10 q 513 0 519 0 l 49 0 z "},"Ł":{"ha":663,"x_min":-7,"x_max":654,"o":"m 333 175 q 339 168 331 168 l 621 168 q 633 163 628 168 q 636 151 638 158 l 619 17 q 613 5 618 10 q 601 0 608 0 l 138 0 q 126 5 131 0 q 124 17 122 10 l 153 254 q 144 258 153 265 l 81 210 q 69 204 72 204 q 58 211 63 204 l -4 299 q -7 308 -7 301 q 0 322 -7 317 l 174 456 q 178 464 178 458 l 239 956 q 245 967 240 963 q 257 972 250 972 l 414 972 q 429 956 429 972 l 389 631 q 390 625 388 626 q 396 626 393 624 l 567 757 q 579 763 575 763 q 590 756 586 763 l 650 667 q 654 656 654 661 q 646 643 654 650 l 368 429 q 363 421 367 428 l 333 175 z "},"M":{"ha":738,"x_min":29,"x_max":775,"o":"m 582 961 q 603 972 588 972 l 760 972 q 771 967 767 972 q 774 956 775 963 l 658 17 q 652 5 657 10 q 640 0 647 0 l 482 0 q 471 5 475 0 q 468 17 467 10 l 544 640 q 543 646 546 646 q 538 642 540 646 l 408 450 q 396 439 400 439 q 386 450 393 439 l 306 642 q 300 646 303 646 q 297 640 297 646 l 221 17 q 215 5 219 10 q 203 0 210 0 l 44 0 q 33 5 38 0 q 31 17 29 10 l 146 956 q 152 967 147 963 q 164 972 157 972 l 319 972 q 331 969 325 972 q 338 961 336 967 l 431 740 q 439 740 433 735 l 582 961 z "},"N":{"ha":693,"x_min":33,"x_max":725,"o":"m 535 956 q 541 967 536 963 q 553 972 546 972 l 710 972 q 721 967 717 972 q 724 956 725 963 l 608 17 q 602 5 607 10 q 590 0 597 0 l 413 0 q 396 14 400 0 l 296 551 q 291 555 294 556 q 288 550 288 554 l 224 17 q 217 5 222 10 q 204 0 211 0 l 49 0 q 38 5 42 0 q 35 17 33 10 l 150 956 q 156 967 151 963 q 168 972 161 972 l 344 972 q 360 958 357 972 l 463 421 q 467 417 464 417 q 471 422 471 418 l 535 956 z "},"Ń":{"ha":693,"x_min":33,"x_max":725,"o":"m 535 956 q 541 967 536 963 q 553 972 546 972 l 710 972 q 721 967 717 972 q 724 956 725 963 l 608 17 q 602 5 607 10 q 590 0 597 0 l 413 0 q 396 14 400 0 l 296 551 q 291 555 294 556 q 288 550 288 554 l 224 17 q 217 5 222 10 q 204 0 211 0 l 49 0 q 38 5 42 0 q 35 17 33 10 l 150 956 q 156 967 151 963 q 168 972 161 972 l 344 972 q 360 958 357 972 l 463 421 q 467 417 464 417 q 471 422 471 418 l 535 956 m 375 1061 q 361 1069 361 1061 q 365 1081 361 1075 l 461 1222 q 483 1233 468 1233 l 608 1233 q 621 1225 621 1233 q 615 1213 621 1218 l 494 1071 q 474 1061 485 1061 l 375 1061 z "},"Ň":{"ha":693,"x_min":33,"x_max":725,"o":"m 535 956 q 541 967 536 963 q 553 972 546 972 l 710 972 q 721 967 717 972 q 724 956 725 963 l 608 17 q 602 5 607 10 q 590 0 597 0 l 413 0 q 396 14 400 0 l 296 551 q 291 555 294 556 q 288 550 288 554 l 224 17 q 217 5 222 10 q 204 0 211 0 l 49 0 q 38 5 42 0 q 35 17 33 10 l 150 956 q 156 967 151 963 q 168 972 161 972 l 344 972 q 360 958 357 972 l 463 421 q 467 417 464 417 q 471 422 471 418 l 535 956 m 279 1214 q 278 1222 278 1217 q 293 1233 278 1233 l 410 1233 q 428 1221 424 1233 l 460 1143 q 467 1143 463 1136 l 517 1221 q 538 1233 525 1233 l 657 1233 q 669 1225 669 1233 q 665 1214 669 1221 l 558 1069 q 538 1058 550 1058 l 364 1058 q 346 1069 351 1058 l 279 1214 z "},"Ŋ":{"ha":693,"x_min":33,"x_max":725,"o":"m 535 956 q 541 967 536 963 q 553 972 546 972 l 710 972 q 721 967 717 972 q 724 956 725 963 l 607 0 q 572 -152 594 -99 q 486 -235 550 -206 q 294 -262 422 -264 q 279 -246 279 -262 l 294 -111 q 314 -96 296 -96 q 377 -74 361 -96 q 399 -4 393 -53 l 399 4 l 296 550 q 291 554 294 554 q 288 550 288 554 l 224 17 q 217 5 222 10 q 204 0 211 0 l 49 0 q 38 5 42 0 q 35 17 33 10 l 150 956 q 156 967 151 963 q 168 972 161 972 l 344 972 q 360 958 357 972 l 460 442 q 461 438 460 440 q 465 436 463 436 q 474 443 472 436 l 535 956 z "},"Ñ":{"ha":693,"x_min":33,"x_max":725,"o":"m 535 956 q 541 967 536 963 q 553 972 546 972 l 710 972 q 721 967 717 972 q 724 956 725 963 l 608 17 q 602 5 607 10 q 590 0 597 0 l 413 0 q 396 14 400 0 l 296 551 q 291 555 294 556 q 288 550 288 554 l 224 17 q 217 5 222 10 q 204 0 211 0 l 49 0 q 38 5 42 0 q 35 17 33 10 l 150 956 q 156 967 151 963 q 168 972 161 972 l 344 972 q 360 958 357 972 l 463 421 q 467 417 464 417 q 471 422 471 418 l 535 956 m 540 1075 q 469 1100 510 1075 q 444 1115 458 1106 q 417 1125 429 1125 q 364 1094 386 1125 q 340 1089 354 1081 l 289 1131 q 286 1153 281 1139 q 344 1224 310 1200 q 415 1249 378 1249 q 497 1217 458 1249 q 510 1207 501 1214 q 529 1196 519 1200 q 550 1192 539 1192 q 601 1219 581 1192 q 625 1226 614 1236 l 675 1188 q 681 1176 681 1182 q 672 1156 681 1168 q 608 1094 644 1114 q 540 1075 572 1075 z "},"O":{"ha":636,"x_min":49,"x_max":654,"o":"m 290 -11 q 113 51 178 -11 q 49 219 49 113 q 51 264 49 233 l 106 708 q 204 908 121 833 q 411 983 288 983 q 589 922 524 983 q 654 753 654 860 q 651 708 654 739 l 597 264 q 498 64 582 139 q 290 -11 414 -11 m 310 157 q 374 184 349 157 q 406 256 400 211 l 463 717 q 464 733 464 722 q 444 793 464 771 q 392 815 425 815 q 328 788 354 815 q 297 717 303 761 l 240 256 q 239 239 239 250 q 258 179 239 201 q 310 157 278 157 z "},"Ó":{"ha":636,"x_min":49,"x_max":654,"o":"m 290 -11 q 113 51 178 -11 q 49 219 49 113 q 51 264 49 233 l 106 708 q 204 908 121 833 q 411 983 288 983 q 589 922 524 983 q 654 753 654 860 q 651 708 654 739 l 597 264 q 498 64 582 139 q 290 -11 414 -11 m 310 157 q 374 184 349 157 q 406 256 400 211 l 463 717 q 464 733 464 722 q 444 793 464 771 q 392 815 425 815 q 328 788 354 815 q 297 717 303 761 l 240 256 q 239 239 239 250 q 258 179 239 201 q 310 157 278 157 m 349 1057 q 335 1065 335 1057 q 339 1076 335 1071 l 435 1218 q 457 1229 442 1229 l 582 1229 q 594 1221 594 1229 q 589 1208 594 1214 l 468 1067 q 447 1057 458 1057 l 349 1057 z "},"Ô":{"ha":636,"x_min":49,"x_max":654,"o":"m 290 -11 q 113 51 178 -11 q 49 219 49 113 q 51 264 49 233 l 106 708 q 204 908 121 833 q 411 983 288 983 q 589 922 524 983 q 654 753 654 860 q 651 708 654 739 l 597 264 q 498 64 582 139 q 290 -11 414 -11 m 310 157 q 374 184 349 157 q 406 256 400 211 l 463 717 q 464 733 464 722 q 444 793 464 771 q 392 815 425 815 q 328 788 354 815 q 297 717 303 761 l 240 256 q 239 239 239 250 q 258 179 239 201 q 310 157 278 157 m 238 1054 q 225 1063 225 1054 q 229 1074 225 1068 l 332 1218 q 353 1229 339 1229 l 526 1229 q 543 1218 539 1229 l 615 1074 q 617 1067 617 1071 q 601 1054 617 1054 l 483 1054 q 465 1067 469 1054 l 435 1144 q 426 1144 431 1151 l 376 1067 q 367 1058 374 1061 q 356 1054 361 1054 l 238 1054 z "},"Ố":{"ha":636,"x_min":49,"x_max":876,"o":"m 290 -11 q 113 51 178 -11 q 49 219 49 113 q 51 264 49 233 l 106 708 q 204 908 121 833 q 411 983 288 983 q 589 922 524 983 q 654 753 654 860 q 651 708 654 739 l 597 264 q 498 64 582 139 q 290 -11 414 -11 m 310 157 q 374 184 349 157 q 406 256 400 211 l 463 717 q 464 733 464 722 q 444 793 464 771 q 392 815 425 815 q 328 788 354 815 q 297 717 303 761 l 240 256 q 239 239 239 250 q 258 179 239 201 q 310 157 278 157 z "},"Ộ":{"ha":636,"x_min":49,"x_max":654,"o":"m 290 -11 q 113 51 178 -11 q 49 219 49 113 q 51 264 49 233 l 106 708 q 204 908 121 833 q 411 983 288 983 q 589 922 524 983 q 654 753 654 860 q 651 708 654 739 l 597 264 q 498 64 582 139 q 290 -11 414 -11 m 310 157 q 374 184 349 157 q 406 256 400 211 l 463 717 q 464 733 464 722 q 444 793 464 771 q 392 815 425 815 q 328 788 354 815 q 297 717 303 761 l 240 256 q 239 239 239 250 q 258 179 239 201 q 310 157 278 157 m 251 -333 q 186 -308 211 -333 q 161 -243 161 -283 q 194 -158 161 -192 q 276 -125 228 -125 q 341 -149 317 -125 q 365 -211 365 -172 q 332 -298 365 -262 q 251 -333 299 -333 m 238 1054 q 225 1063 225 1054 q 229 1074 225 1068 l 332 1218 q 353 1229 339 1229 l 526 1229 q 543 1218 539 1229 l 615 1074 q 617 1067 617 1071 q 601 1054 617 1054 l 483 1054 q 465 1067 469 1054 l 435 1144 q 426 1144 431 1151 l 376 1067 q 367 1058 374 1061 q 356 1054 361 1054 l 238 1054 z "},"Ồ":{"ha":636,"x_min":49,"x_max":726,"o":"m 290 -11 q 113 51 178 -11 q 49 219 49 113 q 51 264 49 233 l 106 708 q 204 908 121 833 q 411 983 288 983 q 589 922 524 983 q 654 753 654 860 q 651 708 654 739 l 597 264 q 498 64 582 139 q 290 -11 414 -11 m 310 157 q 374 184 349 157 q 406 256 400 211 l 463 717 q 464 733 464 722 q 444 793 464 771 q 392 815 425 815 q 328 788 354 815 q 297 717 303 761 l 240 256 q 239 239 239 250 q 258 179 239 201 q 310 157 278 157 z "},"Ổ":{"ha":636,"x_min":49,"x_max":790,"o":"m 290 -11 q 113 51 178 -11 q 49 219 49 113 q 51 264 49 233 l 106 708 q 204 908 121 833 q 411 983 288 983 q 589 922 524 983 q 654 753 654 860 q 651 708 654 739 l 597 264 q 498 64 582 139 q 290 -11 414 -11 m 310 157 q 374 184 349 157 q 406 256 400 211 l 463 717 q 464 733 464 722 q 444 793 464 771 q 392 815 425 815 q 328 788 354 815 q 297 717 303 761 l 240 256 q 239 239 239 250 q 258 179 239 201 q 310 157 278 157 m 626 1197 q 615 1204 618 1199 q 617 1218 613 1210 q 647 1264 631 1247 q 665 1283 663 1281 q 688 1308 681 1297 q 697 1335 694 1318 q 689 1358 699 1349 q 664 1367 679 1367 q 636 1358 649 1367 q 603 1328 624 1350 q 579 1324 592 1314 l 542 1356 q 536 1367 536 1360 q 542 1379 536 1374 q 605 1437 574 1419 q 681 1454 636 1454 q 761 1428 732 1454 q 790 1354 790 1401 q 776 1293 790 1317 q 731 1239 761 1269 q 693 1199 703 1214 q 672 1189 685 1186 l 626 1197 m 238 1054 q 225 1063 225 1054 q 229 1074 225 1068 l 332 1218 q 353 1229 339 1229 l 526 1229 q 543 1218 539 1229 l 615 1074 q 617 1067 617 1071 q 601 1054 617 1054 l 483 1054 q 465 1067 469 1054 l 435 1144 q 426 1144 431 1151 l 376 1067 q 367 1058 374 1061 q 356 1054 361 1054 l 238 1054 z "},"Ỗ":{"ha":636,"x_min":49,"x_max":656,"o":"m 290 -11 q 113 51 178 -11 q 49 219 49 113 q 51 264 49 233 l 106 708 q 204 908 121 833 q 411 983 288 983 q 589 922 524 983 q 654 753 654 860 q 651 708 654 739 l 597 264 q 498 64 582 139 q 290 -11 414 -11 m 310 157 q 374 184 349 157 q 406 256 400 211 l 463 717 q 464 733 464 722 q 444 793 464 771 q 392 815 425 815 q 328 788 354 815 q 297 717 303 761 l 240 256 q 239 239 239 250 q 258 179 239 201 q 310 157 278 157 z "},"Ö":{"ha":636,"x_min":49,"x_max":665,"o":"m 290 -11 q 113 51 178 -11 q 49 219 49 113 q 51 264 49 233 l 106 708 q 204 908 121 833 q 411 983 288 983 q 589 922 524 983 q 654 753 654 860 q 651 708 654 739 l 597 264 q 498 64 582 139 q 290 -11 414 -11 m 310 157 q 374 184 349 157 q 406 256 400 211 l 463 717 q 464 733 464 722 q 444 793 464 771 q 392 815 425 815 q 328 788 354 815 q 297 717 303 761 l 240 256 q 239 239 239 250 q 258 179 239 201 q 310 157 278 157 z "},"Ọ":{"ha":636,"x_min":49,"x_max":654,"o":"m 290 -11 q 113 51 178 -11 q 49 219 49 113 q 51 264 49 233 l 106 708 q 204 908 121 833 q 411 983 288 983 q 589 922 524 983 q 654 753 654 860 q 651 708 654 739 l 597 264 q 498 64 582 139 q 290 -11 414 -11 m 310 157 q 374 184 349 157 q 406 256 400 211 l 463 717 q 464 733 464 722 q 444 793 464 771 q 392 815 425 815 q 328 788 354 815 q 297 717 303 761 l 240 256 q 239 239 239 250 q 258 179 239 201 q 310 157 278 157 m 251 -333 q 186 -308 211 -333 q 161 -243 161 -283 q 194 -158 161 -192 q 276 -125 228 -125 q 341 -149 317 -125 q 365 -211 365 -172 q 332 -298 365 -262 q 251 -333 299 -333 z "},"Ò":{"ha":636,"x_min":49,"x_max":654,"o":"m 290 -11 q 113 51 178 -11 q 49 219 49 113 q 51 264 49 233 l 106 708 q 204 908 121 833 q 411 983 288 983 q 589 922 524 983 q 654 753 654 860 q 651 708 654 739 l 597 264 q 498 64 582 139 q 290 -11 414 -11 m 310 157 q 374 184 349 157 q 406 256 400 211 l 463 717 q 464 733 464 722 q 444 793 464 771 q 392 815 425 815 q 328 788 354 815 q 297 717 303 761 l 240 256 q 239 239 239 250 q 258 179 239 201 q 310 157 278 157 m 482 1076 q 483 1068 483 1074 q 468 1057 483 1057 l 367 1057 q 349 1067 357 1057 l 264 1208 q 261 1218 261 1214 q 265 1226 261 1222 q 276 1229 269 1229 l 401 1229 q 419 1218 414 1229 l 482 1076 z "},"Ỏ":{"ha":636,"x_min":49,"x_max":654,"o":"m 290 -11 q 113 51 178 -11 q 49 219 49 113 q 51 264 49 233 l 106 708 q 204 908 121 833 q 411 983 288 983 q 589 922 524 983 q 654 753 654 860 q 651 708 654 739 l 597 264 q 498 64 582 139 q 290 -11 414 -11 m 310 157 q 374 184 349 157 q 406 256 400 211 l 463 717 q 464 733 464 722 q 444 793 464 771 q 392 815 425 815 q 328 788 354 815 q 297 717 303 761 l 240 256 q 239 239 239 250 q 258 179 239 201 q 310 157 278 157 m 401 1029 q 392 1050 383 1033 q 444 1121 410 1086 q 467 1147 460 1136 q 476 1176 475 1158 q 468 1200 478 1190 q 443 1210 458 1210 q 411 1201 425 1210 q 376 1168 397 1192 q 364 1160 371 1161 q 351 1164 357 1158 l 310 1199 q 304 1210 304 1203 q 310 1222 304 1217 q 378 1285 346 1267 q 458 1304 411 1304 q 547 1276 515 1304 q 578 1197 578 1247 q 562 1131 578 1156 q 513 1074 546 1106 q 472 1029 481 1042 q 451 1019 463 1018 l 401 1029 z "},"Ơ":{"ha":636,"x_min":49,"x_max":688,"o":"m 599 921 q 597 911 593 917 q 654 753 654 850 q 651 708 654 739 l 597 264 q 498 64 582 139 q 290 -11 414 -11 q 113 51 178 -11 q 49 219 49 113 q 51 264 49 233 l 106 708 q 204 908 121 833 q 411 983 288 983 q 493 974 450 983 q 501 972 496 972 q 553 999 531 976 q 586 1074 576 1022 q 604 1090 589 1090 l 671 1090 q 683 1065 688 1090 q 599 921 667 969 m 463 717 q 464 733 464 722 q 444 793 464 771 q 392 815 425 815 q 328 788 354 815 q 297 717 303 761 l 240 256 q 239 239 239 250 q 258 179 239 201 q 310 157 278 157 q 374 184 349 157 q 406 256 400 211 l 463 717 z "},"Ớ":{"ha":636,"x_min":49,"x_max":688,"o":"m 599 921 q 597 911 593 917 q 654 753 654 850 q 651 708 654 739 l 597 264 q 498 64 582 139 q 290 -11 414 -11 q 113 51 178 -11 q 49 219 49 113 q 51 264 49 233 l 106 708 q 204 908 121 833 q 411 983 288 983 q 493 974 450 983 q 501 972 496 972 q 553 999 531 976 q 586 1074 576 1022 q 604 1090 589 1090 l 671 1090 q 683 1065 688 1090 q 599 921 667 969 m 463 717 q 464 733 464 722 q 444 793 464 771 q 392 815 425 815 q 328 788 354 815 q 297 717 303 761 l 240 256 q 239 239 239 250 q 258 179 239 201 q 310 157 278 157 q 374 184 349 157 q 406 256 400 211 l 463 717 m 349 1057 q 335 1065 335 1057 q 339 1076 335 1071 l 435 1218 q 457 1229 442 1229 l 582 1229 q 594 1221 594 1229 q 589 1208 594 1214 l 468 1067 q 447 1057 458 1057 l 349 1057 z "},"Ợ":{"ha":636,"x_min":49,"x_max":688,"o":"m 599 921 q 597 911 593 917 q 654 753 654 850 q 651 708 654 739 l 597 264 q 498 64 582 139 q 290 -11 414 -11 q 113 51 178 -11 q 49 219 49 113 q 51 264 49 233 l 106 708 q 204 908 121 833 q 411 983 288 983 q 493 974 450 983 q 501 972 496 972 q 553 999 531 976 q 586 1074 576 1022 q 604 1090 589 1090 l 671 1090 q 683 1065 688 1090 q 599 921 667 969 m 463 717 q 464 733 464 722 q 444 793 464 771 q 392 815 425 815 q 328 788 354 815 q 297 717 303 761 l 240 256 q 239 239 239 250 q 258 179 239 201 q 310 157 278 157 q 374 184 349 157 q 406 256 400 211 l 463 717 m 251 -333 q 186 -308 211 -333 q 161 -243 161 -283 q 194 -158 161 -192 q 276 -125 228 -125 q 341 -149 317 -125 q 365 -211 365 -172 q 332 -298 365 -262 q 251 -333 299 -333 z "},"Ờ":{"ha":636,"x_min":49,"x_max":688,"o":"m 599 921 q 597 911 593 917 q 654 753 654 850 q 651 708 654 739 l 597 264 q 498 64 582 139 q 290 -11 414 -11 q 113 51 178 -11 q 49 219 49 113 q 51 264 49 233 l 106 708 q 204 908 121 833 q 411 983 288 983 q 493 974 450 983 q 501 972 496 972 q 553 999 531 976 q 586 1074 576 1022 q 604 1090 589 1090 l 671 1090 q 683 1065 688 1090 q 599 921 667 969 m 463 717 q 464 733 464 722 q 444 793 464 771 q 392 815 425 815 q 328 788 354 815 q 297 717 303 761 l 240 256 q 239 239 239 250 q 258 179 239 201 q 310 157 278 157 q 374 184 349 157 q 406 256 400 211 l 463 717 m 482 1076 q 483 1068 483 1074 q 468 1057 483 1057 l 367 1057 q 349 1067 357 1057 l 264 1208 q 261 1218 261 1214 q 265 1226 261 1222 q 276 1229 269 1229 l 401 1229 q 419 1218 414 1229 l 482 1076 z "},"Ở":{"ha":636,"x_min":49,"x_max":688,"o":"m 599 921 q 597 911 593 917 q 654 753 654 850 q 651 708 654 739 l 597 264 q 498 64 582 139 q 290 -11 414 -11 q 113 51 178 -11 q 49 219 49 113 q 51 264 49 233 l 106 708 q 204 908 121 833 q 411 983 288 983 q 493 974 450 983 q 501 972 496 972 q 553 999 531 976 q 586 1074 576 1022 q 604 1090 589 1090 l 671 1090 q 683 1065 688 1090 q 599 921 667 969 m 463 717 q 464 733 464 722 q 444 793 464 771 q 392 815 425 815 q 328 788 354 815 q 297 717 303 761 l 240 256 q 239 239 239 250 q 258 179 239 201 q 310 157 278 157 q 374 184 349 157 q 406 256 400 211 l 463 717 m 401 1029 q 392 1050 383 1033 q 444 1121 410 1086 q 467 1147 460 1136 q 476 1176 475 1158 q 468 1200 478 1190 q 443 1210 458 1210 q 411 1201 425 1210 q 376 1168 397 1192 q 364 1160 371 1161 q 351 1164 357 1158 l 310 1199 q 304 1210 304 1203 q 310 1222 304 1217 q 378 1285 346 1267 q 458 1304 411 1304 q 547 1276 515 1304 q 578 1197 578 1247 q 562 1131 578 1156 q 513 1074 546 1106 q 472 1029 481 1042 q 451 1019 463 1018 l 401 1029 z "},"Ỡ":{"ha":636,"x_min":49,"x_max":688,"o":"m 599 921 q 597 911 593 917 q 654 753 654 850 q 651 708 654 739 l 597 264 q 498 64 582 139 q 290 -11 414 -11 q 113 51 178 -11 q 49 219 49 113 q 51 264 49 233 l 106 708 q 204 908 121 833 q 411 983 288 983 q 493 974 450 983 q 501 972 496 972 q 553 999 531 976 q 586 1074 576 1022 q 604 1090 589 1090 l 671 1090 q 683 1065 688 1090 q 599 921 667 969 m 463 717 q 464 733 464 722 q 444 793 464 771 q 392 815 425 815 q 328 788 354 815 q 297 717 303 761 l 240 256 q 239 239 239 250 q 258 179 239 201 q 310 157 278 157 q 374 184 349 157 q 406 256 400 211 l 463 717 m 513 1071 q 442 1096 482 1071 q 416 1111 431 1101 q 389 1121 401 1121 q 336 1090 358 1121 q 313 1085 326 1076 l 261 1126 q 258 1149 253 1135 q 316 1220 282 1196 q 388 1244 350 1244 q 469 1213 431 1244 q 483 1203 474 1210 q 501 1192 492 1196 q 522 1188 511 1188 q 574 1215 553 1188 q 597 1222 586 1232 l 647 1183 q 653 1172 653 1178 q 644 1151 653 1164 q 581 1090 617 1110 q 513 1071 544 1071 z "},"Ő":{"ha":636,"x_min":49,"x_max":714,"o":"m 290 -11 q 113 51 178 -11 q 49 219 49 113 q 51 264 49 233 l 106 708 q 204 908 121 833 q 411 983 288 983 q 589 922 524 983 q 654 753 654 860 q 651 708 654 739 l 597 264 q 498 64 582 139 q 290 -11 414 -11 m 310 157 q 374 184 349 157 q 406 256 400 211 l 463 717 q 464 733 464 722 q 444 793 464 771 q 392 815 425 815 q 328 788 354 815 q 297 717 303 761 l 240 256 q 239 239 239 250 q 258 179 239 201 q 310 157 278 157 m 265 1057 q 253 1062 257 1057 q 256 1076 250 1067 l 336 1217 q 357 1229 343 1229 l 486 1229 q 499 1224 496 1229 q 496 1210 501 1218 l 407 1069 q 386 1057 400 1057 l 265 1057 m 479 1057 q 467 1063 469 1057 q 469 1076 464 1068 l 557 1217 q 579 1229 565 1229 l 699 1229 q 711 1224 708 1229 q 708 1210 714 1218 l 621 1069 q 599 1057 613 1057 l 479 1057 z "},"Ō":{"ha":636,"x_min":49,"x_max":654,"o":"m 290 -11 q 113 51 178 -11 q 49 219 49 113 q 51 264 49 233 l 106 708 q 204 908 121 833 q 411 983 288 983 q 589 922 524 983 q 654 753 654 860 q 651 708 654 739 l 597 264 q 498 64 582 139 q 290 -11 414 -11 m 310 157 q 374 184 349 157 q 406 256 400 211 l 463 717 q 464 733 464 722 q 444 793 464 771 q 392 815 425 815 q 328 788 354 815 q 297 717 303 761 l 240 256 q 239 239 239 250 q 258 179 239 201 q 310 157 278 157 m 285 1064 q 274 1069 278 1064 q 271 1081 269 1074 l 283 1181 q 289 1192 283 1188 q 301 1197 294 1197 l 565 1197 q 576 1192 572 1197 q 579 1181 581 1188 l 567 1081 q 560 1069 565 1074 q 549 1064 556 1064 l 285 1064 z "},"Ø":{"ha":746,"x_min":1,"x_max":703,"o":"m 690 983 q 694 961 703 975 l 636 860 l 635 851 q 653 753 653 807 q 650 708 653 739 l 596 264 q 497 64 581 139 q 289 -11 413 -11 q 158 18 213 -11 q 153 18 156 19 q 150 14 151 17 l 107 -58 q 97 -68 104 -65 q 85 -65 90 -71 l 8 -11 q 1 0 1 -7 q 6 11 1 6 l 63 114 l 64 122 q 47 219 47 167 q 50 264 47 233 l 104 708 q 203 908 119 833 q 410 983 286 983 q 538 956 485 983 q 547 960 544 953 l 589 1031 q 611 1038 597 1046 l 690 983 m 461 717 q 463 733 463 722 q 443 793 463 771 q 390 815 424 815 q 327 788 353 815 q 296 717 301 761 l 239 256 q 238 239 238 250 q 257 179 238 201 q 308 157 276 157 q 373 184 347 157 q 404 256 399 211 l 461 717 z "},"Õ":{"ha":636,"x_min":49,"x_max":654,"o":"m 290 -11 q 113 51 178 -11 q 49 219 49 113 q 51 264 49 233 l 106 708 q 204 908 121 833 q 411 983 288 983 q 589 922 524 983 q 654 753 654 860 q 651 708 654 739 l 597 264 q 498 64 582 139 q 290 -11 414 -11 m 310 157 q 374 184 349 157 q 406 256 400 211 l 463 717 q 464 733 464 722 q 444 793 464 771 q 392 815 425 815 q 328 788 354 815 q 297 717 303 761 l 240 256 q 239 239 239 250 q 258 179 239 201 q 310 157 278 157 m 513 1071 q 442 1096 482 1071 q 416 1111 431 1101 q 389 1121 401 1121 q 336 1090 358 1121 q 313 1085 326 1076 l 261 1126 q 258 1149 253 1135 q 316 1220 282 1196 q 388 1244 350 1244 q 469 1213 431 1244 q 483 1203 474 1210 q 501 1192 492 1196 q 522 1188 511 1188 q 574 1215 553 1188 q 597 1222 586 1232 l 647 1183 q 653 1172 653 1178 q 644 1151 653 1164 q 581 1090 617 1110 q 513 1071 544 1071 z "},"Œ":{"ha":931,"x_min":49,"x_max":986,"o":"m 968 821 q 962 809 967 814 q 950 804 957 804 l 669 804 q 663 797 663 804 l 636 578 q 642 571 633 571 l 801 571 q 813 566 808 571 q 815 554 817 561 l 799 419 q 793 408 799 413 q 781 403 788 403 l 621 403 q 613 396 615 403 l 586 175 q 592 168 586 168 l 872 168 q 883 163 879 168 q 886 151 888 158 l 869 17 q 863 5 868 10 q 851 0 858 0 l 390 0 q 379 5 383 0 q 376 17 375 10 l 378 25 q 369 29 378 36 q 242 -11 314 -11 q 144 17 189 -11 q 74 98 100 46 q 49 218 49 150 q 51 264 49 233 l 106 708 q 154 851 115 789 q 249 949 193 914 q 364 983 306 983 q 482 943 435 983 q 488 942 485 940 q 490 947 490 943 l 492 956 q 498 967 493 963 q 510 972 503 972 l 971 972 q 982 967 978 972 q 985 956 986 963 l 968 821 m 310 157 q 374 184 349 157 q 406 256 400 211 l 463 717 q 464 733 464 722 q 444 793 464 771 q 392 815 425 815 q 328 788 354 815 q 297 717 303 761 l 240 256 q 239 239 239 250 q 258 179 239 201 q 310 157 278 157 z "},"P":{"ha":626,"x_min":32,"x_max":658,"o":"m 439 974 q 599 907 540 974 q 658 731 658 840 q 656 678 658 696 q 563 471 640 549 q 376 393 486 393 l 276 393 q 268 386 271 393 l 224 17 q 217 5 222 10 q 204 0 211 0 l 47 0 q 36 5 40 0 q 33 17 32 10 l 149 957 q 155 969 150 964 q 167 974 160 974 l 439 974 m 354 546 q 435 588 403 546 q 467 701 467 629 q 445 777 467 750 q 386 804 424 804 l 326 804 q 319 797 319 804 l 289 553 q 294 546 289 546 l 354 546 z "},"Þ":{"ha":626,"x_min":32,"x_max":633,"o":"m 414 778 q 574 711 514 778 q 633 532 633 644 q 631 482 633 515 q 538 274 615 353 q 351 196 461 196 l 251 196 q 244 189 244 196 l 224 17 q 217 5 222 10 q 204 0 211 0 l 47 0 q 36 5 40 0 q 33 17 32 10 l 149 956 q 155 967 150 963 q 167 972 160 972 l 324 972 q 339 956 339 972 l 317 785 q 324 778 317 778 l 414 778 m 331 350 q 410 392 378 350 q 442 507 442 433 q 420 583 442 556 q 363 610 399 610 l 303 610 q 294 603 297 610 l 265 357 q 271 350 263 350 l 331 350 z "},"Q":{"ha":621,"x_min":50,"x_max":638,"o":"m 404 983 q 575 919 513 983 q 638 746 638 854 q 635 699 638 732 l 582 274 q 517 106 569 176 q 385 6 465 35 q 378 -1 379 4 l 364 -119 q 358 -131 363 -126 q 346 -136 353 -136 l 188 -136 q 176 -131 181 -136 q 174 -119 172 -126 l 189 -1 q 183 6 189 4 q 85 89 121 31 q 50 226 50 147 q 53 274 50 257 l 104 699 q 202 905 119 826 q 404 983 285 983 m 240 253 q 239 235 239 246 q 256 178 239 199 q 303 157 274 157 q 360 183 338 157 q 389 253 383 210 l 447 719 q 449 738 449 726 q 431 794 449 774 q 383 815 414 815 q 326 789 350 815 q 297 719 303 763 l 240 253 z "},"R":{"ha":635,"x_min":33,"x_max":660,"o":"m 404 0 q 388 14 390 0 l 331 397 q 324 403 328 403 l 279 403 q 271 396 271 403 l 225 17 q 218 5 224 10 q 206 0 213 0 l 49 0 q 38 5 42 0 q 35 17 33 10 l 150 956 q 156 967 151 963 q 168 972 161 972 l 440 972 q 600 906 540 972 q 660 731 660 840 q 657 679 660 697 q 609 535 647 599 q 513 438 571 472 q 508 434 510 436 q 508 429 507 432 l 582 19 l 582 17 q 577 5 582 10 q 565 0 572 0 l 404 0 m 328 804 q 321 797 321 804 l 292 560 q 297 553 289 553 l 357 553 q 436 594 404 553 q 468 704 468 636 q 447 777 468 750 q 389 804 425 804 l 328 804 z "},"Ŕ":{"ha":635,"x_min":33,"x_max":660,"o":"m 404 0 q 388 14 390 0 l 331 397 q 324 403 328 403 l 279 403 q 271 396 271 403 l 225 17 q 218 5 224 10 q 206 0 213 0 l 49 0 q 38 5 42 0 q 35 17 33 10 l 150 956 q 156 967 151 963 q 168 972 161 972 l 440 972 q 600 906 540 972 q 660 731 660 840 q 657 679 660 697 q 609 535 647 599 q 513 438 571 472 q 508 434 510 436 q 508 429 507 432 l 582 19 l 582 17 q 577 5 582 10 q 565 0 572 0 l 404 0 m 328 804 q 321 797 321 804 l 292 560 q 297 553 289 553 l 357 553 q 436 594 404 553 q 468 704 468 636 q 447 777 468 750 q 389 804 425 804 l 328 804 m 339 1058 q 325 1067 325 1058 q 329 1078 325 1072 l 425 1219 q 447 1231 432 1231 l 572 1231 q 585 1222 585 1231 q 579 1210 585 1215 l 458 1068 q 438 1058 449 1058 l 339 1058 z "},"Ř":{"ha":635,"x_min":33,"x_max":660,"o":"m 404 0 q 388 14 390 0 l 331 397 q 324 403 328 403 l 279 403 q 271 396 271 403 l 225 17 q 218 5 224 10 q 206 0 213 0 l 49 0 q 38 5 42 0 q 35 17 33 10 l 150 956 q 156 967 151 963 q 168 972 161 972 l 440 972 q 600 906 540 972 q 660 731 660 840 q 657 679 660 697 q 609 535 647 599 q 513 438 571 472 q 508 434 510 436 q 508 429 507 432 l 582 19 l 582 17 q 577 5 582 10 q 565 0 572 0 l 404 0 m 328 804 q 321 797 321 804 l 292 560 q 297 553 289 553 l 357 553 q 436 594 404 553 q 468 704 468 636 q 447 777 468 750 q 389 804 425 804 l 328 804 m 243 1211 q 242 1219 242 1214 q 257 1231 242 1231 l 374 1231 q 392 1218 388 1231 l 424 1140 q 431 1140 426 1133 l 481 1218 q 501 1231 489 1231 l 621 1231 q 633 1222 633 1231 q 629 1211 633 1218 l 522 1067 q 501 1056 514 1056 l 328 1056 q 310 1067 315 1056 l 243 1211 z "},"S":{"ha":599,"x_min":40,"x_max":624,"o":"m 274 -11 q 103 49 167 -11 q 40 206 40 108 q 43 243 40 218 l 49 283 q 55 295 50 290 q 67 300 60 300 l 221 300 q 236 283 236 300 l 232 253 q 231 236 231 247 q 249 178 231 200 q 296 157 267 157 q 358 187 332 157 q 383 261 383 217 q 360 325 383 297 q 269 407 336 353 q 179 487 214 451 q 120 572 144 522 q 96 685 96 621 q 134 840 96 772 q 240 946 172 908 q 390 983 307 983 q 560 922 497 983 q 624 757 624 860 q 621 717 624 744 l 617 683 q 610 672 615 676 q 597 667 604 667 l 443 667 q 432 672 436 667 q 429 683 428 676 l 433 721 q 435 739 435 726 q 417 794 435 774 q 369 815 400 815 q 309 785 333 815 q 285 706 285 756 q 308 642 285 672 q 392 561 331 613 q 497 467 461 503 q 553 390 532 432 q 574 294 574 349 q 571 256 574 283 q 474 61 556 133 q 274 -11 392 -11 z "},"Ś":{"ha":599,"x_min":40,"x_max":624,"o":"m 274 -11 q 103 49 167 -11 q 40 206 40 108 q 43 243 40 218 l 49 283 q 55 295 50 290 q 67 300 60 300 l 221 300 q 236 283 236 300 l 232 253 q 231 236 231 247 q 249 178 231 200 q 296 157 267 157 q 358 187 332 157 q 383 261 383 217 q 360 325 383 297 q 269 407 336 353 q 179 487 214 451 q 120 572 144 522 q 96 685 96 621 q 134 840 96 772 q 240 946 172 908 q 390 983 307 983 q 560 922 497 983 q 624 757 624 860 q 621 717 624 744 l 617 683 q 610 672 615 676 q 597 667 604 667 l 443 667 q 432 672 436 667 q 429 683 428 676 l 433 721 q 435 739 435 726 q 417 794 435 774 q 369 815 400 815 q 309 785 333 815 q 285 706 285 756 q 308 642 285 672 q 392 561 331 613 q 497 467 461 503 q 553 390 532 432 q 574 294 574 349 q 571 256 574 283 q 474 61 556 133 q 274 -11 392 -11 m 326 1058 q 313 1067 313 1058 q 317 1078 313 1072 l 413 1219 q 435 1231 419 1231 l 560 1231 q 572 1222 572 1231 q 567 1210 572 1215 l 446 1068 q 425 1058 436 1058 l 326 1058 z "},"Š":{"ha":599,"x_min":40,"x_max":624,"o":"m 274 -11 q 103 49 167 -11 q 40 206 40 108 q 43 243 40 218 l 49 283 q 55 295 50 290 q 67 300 60 300 l 221 300 q 236 283 236 300 l 232 253 q 231 236 231 247 q 249 178 231 200 q 296 157 267 157 q 358 187 332 157 q 383 261 383 217 q 360 325 383 297 q 269 407 336 353 q 179 487 214 451 q 120 572 144 522 q 96 685 96 621 q 134 840 96 772 q 240 946 172 908 q 390 983 307 983 q 560 922 497 983 q 624 757 624 860 q 621 717 624 744 l 617 683 q 610 672 615 676 q 597 667 604 667 l 443 667 q 432 672 436 667 q 429 683 428 676 l 433 721 q 435 739 435 726 q 417 794 435 774 q 369 815 400 815 q 309 785 333 815 q 285 706 285 756 q 308 642 285 672 q 392 561 331 613 q 497 467 461 503 q 553 390 532 432 q 574 294 574 349 q 571 256 574 283 q 474 61 556 133 q 274 -11 392 -11 m 231 1211 q 229 1219 229 1214 q 244 1231 229 1231 l 361 1231 q 379 1218 375 1231 l 411 1140 q 418 1140 414 1133 l 468 1218 q 489 1231 476 1231 l 608 1231 q 621 1222 621 1231 q 617 1211 621 1218 l 510 1067 q 489 1056 501 1056 l 315 1056 q 297 1067 303 1056 l 231 1211 z "},"Ş":{"ha":599,"x_min":40,"x_max":624,"o":"m 571 256 q 497 84 557 153 q 344 -4 436 15 q 339 -7 340 -4 q 340 -12 338 -10 q 375 -114 375 -61 q 365 -171 375 -146 q 315 -237 349 -218 q 240 -257 282 -257 q 178 -247 204 -257 q 168 -228 164 -243 l 183 -164 q 204 -151 188 -147 q 254 -117 240 -157 q 257 -99 257 -106 q 214 -7 257 -57 l 206 -3 q 84 69 128 14 q 40 206 40 125 q 43 243 40 218 l 49 283 q 55 295 50 290 q 67 300 60 300 l 221 300 q 236 283 236 300 l 232 253 q 231 236 231 247 q 249 178 231 200 q 296 157 267 157 q 358 187 332 157 q 383 261 383 217 q 360 325 383 297 q 269 407 336 353 q 179 487 214 451 q 120 572 144 522 q 96 685 96 621 q 134 840 96 772 q 240 946 172 908 q 390 983 307 983 q 560 922 497 983 q 624 757 624 860 q 621 717 624 744 l 617 683 q 610 672 615 676 q 597 667 604 667 l 443 667 q 432 672 436 667 q 429 683 428 676 l 433 721 q 435 739 435 726 q 417 794 435 774 q 369 815 400 815 q 309 785 333 815 q 285 706 285 756 q 308 642 285 672 q 392 561 331 613 q 497 467 461 503 q 553 390 532 432 q 574 294 574 349 q 571 256 574 283 z "},"Ŝ":{"ha":599,"x_min":40,"x_max":624,"o":"m 274 -11 q 103 49 167 -11 q 40 206 40 108 q 43 243 40 218 l 49 283 q 55 295 50 290 q 67 300 60 300 l 221 300 q 236 283 236 300 l 232 253 q 231 236 231 247 q 249 178 231 200 q 296 157 267 157 q 358 187 332 157 q 383 261 383 217 q 360 325 383 297 q 269 407 336 353 q 179 487 214 451 q 120 572 144 522 q 96 685 96 621 q 134 840 96 772 q 240 946 172 908 q 390 983 307 983 q 560 922 497 983 q 624 757 624 860 q 621 717 624 744 l 617 683 q 610 672 615 676 q 597 667 604 667 l 443 667 q 432 672 436 667 q 429 683 428 676 l 433 721 q 435 739 435 726 q 417 794 435 774 q 369 815 400 815 q 309 785 333 815 q 285 706 285 756 q 308 642 285 672 q 392 561 331 613 q 497 467 461 503 q 553 390 532 432 q 574 294 574 349 q 571 256 574 283 q 474 61 556 133 q 274 -11 392 -11 m 215 1056 q 203 1064 203 1056 q 207 1075 203 1069 l 310 1219 q 331 1231 317 1231 l 504 1231 q 521 1219 517 1231 l 593 1075 q 594 1068 594 1072 q 579 1056 594 1056 l 461 1056 q 443 1068 447 1056 l 413 1146 q 404 1146 408 1153 l 354 1068 q 345 1059 351 1063 q 333 1056 339 1056 l 215 1056 z "},"Ə":{"ha":731,"x_min":49,"x_max":743,"o":"m 456 983 q 667 914 592 983 q 743 724 743 844 q 740 674 743 690 l 693 294 q 635 133 682 204 q 510 24 588 63 q 333 -15 432 -15 q 124 57 200 -15 q 49 247 49 129 q 51 294 49 261 l 81 532 q 87 544 82 539 q 99 549 92 549 l 528 549 q 536 556 533 549 l 549 661 q 550 686 550 669 q 519 779 550 744 q 435 814 488 814 q 349 781 386 814 q 296 696 313 749 q 276 682 290 682 l 119 690 q 109 695 113 690 q 107 707 106 700 q 225 911 135 839 q 456 983 315 983 m 354 154 q 455 197 413 154 q 506 308 497 240 l 515 385 q 508 392 515 392 l 258 392 q 250 385 253 392 l 242 308 q 240 283 240 300 q 272 190 240 225 q 354 154 303 154 z "},"T":{"ha":631,"x_min":106,"x_max":690,"o":"m 675 972 q 686 967 682 972 q 689 956 690 963 l 672 821 q 666 809 671 814 q 654 804 661 804 l 485 804 q 480 802 482 804 q 478 797 478 800 l 382 17 q 376 5 381 10 q 364 0 371 0 l 206 0 q 194 5 199 0 q 192 17 190 10 l 288 797 q 282 804 290 804 l 121 804 q 106 821 106 804 l 122 956 q 128 967 124 963 q 140 972 133 972 l 675 972 z "},"Ŧ":{"ha":631,"x_min":106,"x_max":690,"o":"m 672 821 q 666 809 671 814 q 654 804 661 804 l 485 804 q 480 802 482 804 q 478 797 478 800 l 450 575 q 457 568 450 568 l 522 568 q 533 563 529 568 q 536 551 538 558 l 526 467 q 520 455 525 460 q 508 450 515 450 l 442 450 q 435 443 435 450 l 382 17 q 376 5 381 10 q 364 0 371 0 l 206 0 q 194 5 199 0 q 192 17 190 10 l 244 443 q 239 450 244 450 l 157 450 q 142 467 142 450 l 153 551 q 159 563 154 558 q 171 568 164 568 l 253 568 q 261 575 258 568 l 288 797 q 282 804 290 804 l 121 804 q 106 821 106 804 l 122 956 q 128 967 124 963 q 140 972 133 972 l 675 972 q 686 967 682 972 q 689 956 690 963 l 672 821 z "},"Ť":{"ha":631,"x_min":106,"x_max":690,"o":"m 675 972 q 686 967 682 972 q 689 956 690 963 l 672 821 q 666 809 671 814 q 654 804 661 804 l 485 804 q 480 802 482 804 q 478 797 478 800 l 382 17 q 376 5 381 10 q 364 0 371 0 l 206 0 q 194 5 199 0 q 192 17 190 10 l 288 797 q 282 804 290 804 l 121 804 q 106 821 106 804 l 122 956 q 128 967 124 963 q 140 972 133 972 l 675 972 z "},"U":{"ha":646,"x_min":60,"x_max":682,"o":"m 294 -11 q 123 53 186 -11 q 60 226 60 118 q 63 276 60 260 l 146 956 q 152 967 147 963 q 164 972 157 972 l 321 972 q 336 956 336 972 l 250 257 q 249 238 249 250 q 267 179 249 201 q 315 157 285 157 q 374 185 350 157 q 404 257 399 213 l 490 956 q 497 967 492 963 q 508 972 501 972 l 667 972 q 678 967 674 972 q 681 956 682 963 l 597 276 q 499 67 582 146 q 294 -11 415 -11 z "},"Ú":{"ha":646,"x_min":60,"x_max":682,"o":"m 294 -11 q 123 53 186 -11 q 60 226 60 118 q 63 276 60 260 l 146 956 q 152 967 147 963 q 164 972 157 972 l 321 972 q 336 956 336 972 l 250 257 q 249 238 249 250 q 267 179 249 201 q 315 157 285 157 q 374 185 350 157 q 404 257 399 213 l 490 956 q 497 967 492 963 q 508 972 501 972 l 667 972 q 678 967 674 972 q 681 956 682 963 l 597 276 q 499 67 582 146 q 294 -11 415 -11 m 353 1058 q 339 1067 339 1058 q 343 1078 339 1072 l 439 1219 q 461 1231 446 1231 l 586 1231 q 599 1222 599 1231 q 593 1210 599 1215 l 472 1068 q 451 1058 463 1058 l 353 1058 z "},"Ŭ":{"ha":646,"x_min":60,"x_max":682,"o":"m 294 -11 q 123 53 186 -11 q 60 226 60 118 q 63 276 60 260 l 146 956 q 152 967 147 963 q 164 972 157 972 l 321 972 q 336 956 336 972 l 250 257 q 249 238 249 250 q 267 179 249 201 q 315 157 285 157 q 374 185 350 157 q 404 257 399 213 l 490 956 q 497 967 492 963 q 508 972 501 972 l 667 972 q 678 967 674 972 q 681 956 682 963 l 597 276 q 499 67 582 146 q 294 -11 415 -11 m 424 1043 q 317 1083 356 1043 q 282 1190 279 1124 q 299 1207 282 1207 l 365 1207 q 381 1190 381 1207 q 397 1146 382 1163 q 435 1129 411 1129 q 477 1146 458 1129 q 504 1190 496 1163 q 524 1207 508 1207 l 590 1207 q 604 1190 607 1207 q 541 1083 590 1124 q 424 1043 492 1043 z "},"Û":{"ha":646,"x_min":60,"x_max":682,"o":"m 294 -11 q 123 53 186 -11 q 60 226 60 118 q 63 276 60 260 l 146 956 q 152 967 147 963 q 164 972 157 972 l 321 972 q 336 956 336 972 l 250 257 q 249 238 249 250 q 267 179 249 201 q 315 157 285 157 q 374 185 350 157 q 404 257 399 213 l 490 956 q 497 967 492 963 q 508 972 501 972 l 667 972 q 678 967 674 972 q 681 956 682 963 l 597 276 q 499 67 582 146 q 294 -11 415 -11 m 242 1056 q 229 1064 229 1056 q 233 1075 229 1069 l 336 1219 q 357 1231 343 1231 l 531 1231 q 547 1219 543 1231 l 619 1075 q 621 1068 621 1072 q 606 1056 621 1056 l 488 1056 q 469 1068 474 1056 l 439 1146 q 431 1146 435 1153 l 381 1068 q 372 1059 378 1063 q 360 1056 365 1056 l 242 1056 z "},"Ü":{"ha":646,"x_min":60,"x_max":682,"o":"m 294 -11 q 123 53 186 -11 q 60 226 60 118 q 63 276 60 260 l 146 956 q 152 967 147 963 q 164 972 157 972 l 321 972 q 336 956 336 972 l 250 257 q 249 238 249 250 q 267 179 249 201 q 315 157 285 157 q 374 185 350 157 q 404 257 399 213 l 490 956 q 497 967 492 963 q 508 972 501 972 l 667 972 q 678 967 674 972 q 681 956 682 963 l 597 276 q 499 67 582 146 q 294 -11 415 -11 z "},"Ụ":{"ha":646,"x_min":60,"x_max":682,"o":"m 294 -11 q 123 53 186 -11 q 60 226 60 118 q 63 276 60 260 l 146 956 q 152 967 147 963 q 164 972 157 972 l 321 972 q 336 956 336 972 l 250 257 q 249 238 249 250 q 267 179 249 201 q 315 157 285 157 q 374 185 350 157 q 404 257 399 213 l 490 956 q 497 967 492 963 q 508 972 501 972 l 667 972 q 678 967 674 972 q 681 956 682 963 l 597 276 q 499 67 582 146 q 294 -11 415 -11 m 256 -333 q 190 -308 215 -333 q 165 -243 165 -283 q 199 -158 165 -192 q 281 -125 232 -125 q 345 -149 321 -125 q 369 -211 369 -172 q 336 -298 369 -262 q 256 -333 303 -333 z "},"Ù":{"ha":646,"x_min":60,"x_max":682,"o":"m 294 -11 q 123 53 186 -11 q 60 226 60 118 q 63 276 60 260 l 146 956 q 152 967 147 963 q 164 972 157 972 l 321 972 q 336 956 336 972 l 250 257 q 249 238 249 250 q 267 179 249 201 q 315 157 285 157 q 374 185 350 157 q 404 257 399 213 l 490 956 q 497 967 492 963 q 508 972 501 972 l 667 972 q 678 967 674 972 q 681 956 682 963 l 597 276 q 499 67 582 146 q 294 -11 415 -11 m 488 1078 q 489 1069 489 1075 q 474 1058 489 1058 l 372 1058 q 354 1068 363 1058 l 269 1210 q 267 1219 267 1215 q 271 1227 267 1224 q 282 1231 275 1231 l 407 1231 q 425 1219 419 1231 l 488 1078 z "},"Ủ":{"ha":646,"x_min":60,"x_max":682,"o":"m 294 -11 q 123 53 186 -11 q 60 226 60 118 q 63 276 60 260 l 146 956 q 152 967 147 963 q 164 972 157 972 l 321 972 q 336 956 336 972 l 250 257 q 249 238 249 250 q 267 179 249 201 q 315 157 285 157 q 374 185 350 157 q 404 257 399 213 l 490 956 q 497 967 492 963 q 508 972 501 972 l 667 972 q 678 967 674 972 q 681 956 682 963 l 597 276 q 499 67 582 146 q 294 -11 415 -11 m 406 1031 q 396 1051 388 1035 q 449 1122 414 1088 q 472 1149 464 1138 q 481 1178 479 1160 q 472 1201 482 1192 q 447 1211 463 1211 q 415 1202 429 1211 q 381 1169 401 1193 q 368 1161 375 1163 q 356 1165 361 1160 l 314 1200 q 308 1211 308 1204 q 314 1224 308 1218 q 383 1287 350 1268 q 463 1306 415 1306 q 551 1277 519 1306 q 582 1199 582 1249 q 566 1132 582 1157 q 517 1075 550 1107 q 476 1031 485 1043 q 456 1021 467 1019 l 406 1031 z "},"Ư":{"ha":646,"x_min":60,"x_max":804,"o":"m 788 1090 q 801 1074 804 1090 q 757 963 789 1006 q 679 903 725 921 q 674 894 674 899 l 597 276 q 499 67 582 146 q 294 -11 415 -11 q 123 53 186 -11 q 60 226 60 118 q 63 276 60 260 l 146 956 q 152 967 147 963 q 164 972 157 972 l 321 972 q 336 956 336 972 l 250 257 q 249 238 249 250 q 267 179 249 201 q 315 157 285 157 q 374 185 350 157 q 404 257 399 213 l 490 956 q 497 967 492 963 q 508 972 501 972 l 607 972 q 665 995 639 972 q 701 1074 692 1018 q 708 1086 703 1082 q 719 1090 713 1090 l 788 1090 z "},"Ứ":{"ha":646,"x_min":60,"x_max":804,"o":"m 788 1090 q 801 1074 804 1090 q 757 963 789 1006 q 679 903 725 921 q 674 894 674 899 l 597 276 q 499 67 582 146 q 294 -11 415 -11 q 123 53 186 -11 q 60 226 60 118 q 63 276 60 260 l 146 956 q 152 967 147 963 q 164 972 157 972 l 321 972 q 336 956 336 972 l 250 257 q 249 238 249 250 q 267 179 249 201 q 315 157 285 157 q 374 185 350 157 q 404 257 399 213 l 490 956 q 497 967 492 963 q 508 972 501 972 l 607 972 q 665 995 639 972 q 701 1074 692 1018 q 708 1086 703 1082 q 719 1090 713 1090 l 788 1090 m 353 1058 q 339 1067 339 1058 q 343 1078 339 1072 l 439 1219 q 461 1231 446 1231 l 586 1231 q 599 1222 599 1231 q 593 1210 599 1215 l 472 1068 q 451 1058 463 1058 l 353 1058 z "},"Ự":{"ha":646,"x_min":60,"x_max":804,"o":"m 788 1090 q 801 1074 804 1090 q 757 963 789 1006 q 679 903 725 921 q 674 894 674 899 l 597 276 q 499 67 582 146 q 294 -11 415 -11 q 123 53 186 -11 q 60 226 60 118 q 63 276 60 260 l 146 956 q 152 967 147 963 q 164 972 157 972 l 321 972 q 336 956 336 972 l 250 257 q 249 238 249 250 q 267 179 249 201 q 315 157 285 157 q 374 185 350 157 q 404 257 399 213 l 490 956 q 497 967 492 963 q 508 972 501 972 l 607 972 q 665 995 639 972 q 701 1074 692 1018 q 708 1086 703 1082 q 719 1090 713 1090 l 788 1090 m 256 -333 q 190 -308 215 -333 q 165 -243 165 -283 q 199 -158 165 -192 q 281 -125 232 -125 q 345 -149 321 -125 q 369 -211 369 -172 q 336 -298 369 -262 q 256 -333 303 -333 z "},"Ừ":{"ha":646,"x_min":60,"x_max":804,"o":"m 788 1090 q 801 1074 804 1090 q 757 963 789 1006 q 679 903 725 921 q 674 894 674 899 l 597 276 q 499 67 582 146 q 294 -11 415 -11 q 123 53 186 -11 q 60 226 60 118 q 63 276 60 260 l 146 956 q 152 967 147 963 q 164 972 157 972 l 321 972 q 336 956 336 972 l 250 257 q 249 238 249 250 q 267 179 249 201 q 315 157 285 157 q 374 185 350 157 q 404 257 399 213 l 490 956 q 497 967 492 963 q 508 972 501 972 l 607 972 q 665 995 639 972 q 701 1074 692 1018 q 708 1086 703 1082 q 719 1090 713 1090 l 788 1090 m 488 1078 q 489 1069 489 1075 q 474 1058 489 1058 l 372 1058 q 354 1068 363 1058 l 269 1210 q 267 1219 267 1215 q 271 1227 267 1224 q 282 1231 275 1231 l 407 1231 q 425 1219 419 1231 l 488 1078 z "},"Ử":{"ha":646,"x_min":60,"x_max":804,"o":"m 788 1090 q 801 1074 804 1090 q 757 963 789 1006 q 679 903 725 921 q 674 894 674 899 l 597 276 q 499 67 582 146 q 294 -11 415 -11 q 123 53 186 -11 q 60 226 60 118 q 63 276 60 260 l 146 956 q 152 967 147 963 q 164 972 157 972 l 321 972 q 336 956 336 972 l 250 257 q 249 238 249 250 q 267 179 249 201 q 315 157 285 157 q 374 185 350 157 q 404 257 399 213 l 490 956 q 497 967 492 963 q 508 972 501 972 l 607 972 q 665 995 639 972 q 701 1074 692 1018 q 708 1086 703 1082 q 719 1090 713 1090 l 788 1090 m 406 1031 q 396 1051 388 1035 q 449 1122 414 1088 q 472 1149 464 1138 q 481 1178 479 1160 q 472 1201 482 1192 q 447 1211 463 1211 q 415 1202 429 1211 q 381 1169 401 1193 q 368 1161 375 1163 q 356 1165 361 1160 l 314 1200 q 308 1211 308 1204 q 314 1224 308 1218 q 383 1287 350 1268 q 463 1306 415 1306 q 551 1277 519 1306 q 582 1199 582 1249 q 566 1132 582 1157 q 517 1075 550 1107 q 476 1031 485 1043 q 456 1021 467 1019 l 406 1031 z "},"Ữ":{"ha":646,"x_min":60,"x_max":804,"o":"m 788 1090 q 801 1074 804 1090 q 757 963 789 1006 q 679 903 725 921 q 674 894 674 899 l 597 276 q 499 67 582 146 q 294 -11 415 -11 q 123 53 186 -11 q 60 226 60 118 q 63 276 60 260 l 146 956 q 152 967 147 963 q 164 972 157 972 l 321 972 q 336 956 336 972 l 250 257 q 249 238 249 250 q 267 179 249 201 q 315 157 285 157 q 374 185 350 157 q 404 257 399 213 l 490 956 q 497 967 492 963 q 508 972 501 972 l 607 972 q 665 995 639 972 q 701 1074 692 1018 q 708 1086 703 1082 q 719 1090 713 1090 l 788 1090 m 518 1072 q 447 1097 488 1072 q 422 1113 436 1103 q 394 1122 407 1122 q 342 1092 364 1122 q 318 1086 332 1078 l 267 1128 q 264 1150 258 1136 q 322 1222 288 1197 q 393 1246 356 1246 q 475 1214 436 1246 q 488 1204 479 1211 q 507 1193 497 1197 q 528 1189 517 1189 q 579 1217 558 1189 q 603 1224 592 1233 l 653 1185 q 658 1174 658 1179 q 650 1153 658 1165 q 586 1092 622 1111 q 518 1072 550 1072 z "},"Ű":{"ha":646,"x_min":60,"x_max":719,"o":"m 294 -11 q 123 53 186 -11 q 60 226 60 118 q 63 276 60 260 l 146 956 q 152 967 147 963 q 164 972 157 972 l 321 972 q 336 956 336 972 l 250 257 q 249 238 249 250 q 267 179 249 201 q 315 157 285 157 q 374 185 350 157 q 404 257 399 213 l 490 956 q 497 967 492 963 q 508 972 501 972 l 667 972 q 678 967 674 972 q 681 956 682 963 l 597 276 q 499 67 582 146 q 294 -11 415 -11 m 271 1058 q 259 1063 263 1058 q 261 1078 256 1068 l 342 1218 q 363 1231 349 1231 l 492 1231 q 504 1225 501 1231 q 501 1211 507 1219 l 413 1071 q 392 1058 406 1058 l 271 1058 m 485 1058 q 472 1064 475 1058 q 475 1078 469 1069 l 563 1218 q 585 1231 571 1231 l 704 1231 q 717 1225 714 1231 q 714 1211 719 1219 l 626 1071 q 604 1058 618 1058 l 485 1058 z "},"Ū":{"ha":646,"x_min":60,"x_max":682,"o":"m 294 -11 q 123 53 186 -11 q 60 226 60 118 q 63 276 60 260 l 146 956 q 152 967 147 963 q 164 972 157 972 l 321 972 q 336 956 336 972 l 250 257 q 249 238 249 250 q 267 179 249 201 q 315 157 285 157 q 374 185 350 157 q 404 257 399 213 l 490 956 q 497 967 492 963 q 508 972 501 972 l 667 972 q 678 967 674 972 q 681 956 682 963 l 597 276 q 499 67 582 146 q 294 -11 415 -11 m 289 1065 q 278 1070 282 1065 q 275 1082 274 1075 l 288 1182 q 293 1194 288 1189 q 306 1199 299 1199 l 569 1199 q 581 1194 576 1199 q 583 1182 585 1189 l 571 1082 q 565 1070 569 1075 q 553 1065 560 1065 l 289 1065 z "},"Ų":{"ha":646,"x_min":60,"x_max":682,"o":"m 490 956 q 497 967 492 963 q 508 972 501 972 l 667 972 q 678 967 674 972 q 681 956 682 963 l 597 276 q 519 90 583 165 q 358 -4 456 15 l 350 -8 q 289 -107 289 -67 q 300 -140 289 -129 q 329 -147 311 -150 l 333 -147 q 347 -160 347 -147 l 347 -224 q 333 -243 347 -239 q 268 -253 304 -253 q 193 -230 224 -253 q 163 -153 163 -207 q 225 -11 163 -79 q 222 -3 231 -3 q 102 78 144 17 q 60 228 60 139 q 63 276 60 260 l 146 956 q 152 967 147 963 q 164 972 157 972 l 321 972 q 336 956 336 972 l 250 257 q 249 238 249 250 q 267 179 249 201 q 315 157 285 157 q 374 185 350 157 q 404 257 399 213 l 490 956 z "},"Ů":{"ha":646,"x_min":60,"x_max":682,"o":"m 294 -11 q 123 53 186 -11 q 60 226 60 118 q 63 276 60 260 l 146 956 q 152 967 147 963 q 164 972 157 972 l 321 972 q 336 956 336 972 l 250 257 q 249 238 249 250 q 267 179 249 201 q 315 157 285 157 q 374 185 350 157 q 404 257 399 213 l 490 956 q 497 967 492 963 q 508 972 501 972 l 667 972 q 678 967 674 972 q 681 956 682 963 l 597 276 q 499 67 582 146 q 294 -11 415 -11 m 424 1040 q 317 1083 358 1040 q 276 1190 276 1125 q 302 1288 276 1243 q 372 1358 328 1332 q 465 1385 415 1385 q 571 1343 529 1385 q 613 1236 613 1301 q 587 1138 613 1183 q 517 1067 561 1093 q 424 1040 474 1040 m 436 1143 q 489 1167 465 1143 q 513 1222 513 1190 q 495 1266 513 1249 q 453 1283 478 1283 q 401 1260 424 1283 q 378 1204 378 1238 q 394 1160 378 1178 q 436 1143 410 1143 z "},"Ũ":{"ha":646,"x_min":60,"x_max":682,"o":"m 294 -11 q 123 53 186 -11 q 60 226 60 118 q 63 276 60 260 l 146 956 q 152 967 147 963 q 164 972 157 972 l 321 972 q 336 956 336 972 l 250 257 q 249 238 249 250 q 267 179 249 201 q 315 157 285 157 q 374 185 350 157 q 404 257 399 213 l 490 956 q 497 967 492 963 q 508 972 501 972 l 667 972 q 678 967 674 972 q 681 956 682 963 l 597 276 q 499 67 582 146 q 294 -11 415 -11 m 518 1072 q 447 1097 488 1072 q 422 1113 436 1103 q 394 1122 407 1122 q 342 1092 364 1122 q 318 1086 332 1078 l 267 1128 q 264 1150 258 1136 q 322 1222 288 1197 q 393 1246 356 1246 q 475 1214 436 1246 q 488 1204 479 1211 q 507 1193 497 1197 q 528 1189 517 1189 q 579 1217 558 1189 q 603 1224 592 1233 l 653 1185 q 658 1174 658 1179 q 650 1153 658 1165 q 586 1092 622 1111 q 518 1072 550 1072 z "},"V":{"ha":658,"x_min":121,"x_max":722,"o":"m 214 0 q 199 15 199 0 l 121 954 l 121 957 q 138 972 121 972 l 311 972 q 326 957 326 972 l 344 346 q 348 340 344 340 q 353 346 351 340 l 518 957 q 538 972 522 972 l 706 972 q 717 954 722 972 l 407 15 q 388 0 403 0 l 214 0 z "},"W":{"ha":928,"x_min":118,"x_max":994,"o":"m 201 0 q 185 15 185 0 l 118 954 l 118 957 q 135 972 118 972 l 299 972 q 314 957 314 972 l 329 457 q 333 451 331 451 q 338 457 336 451 l 472 957 q 492 972 476 972 l 628 972 q 643 957 643 972 l 661 457 q 665 451 661 451 q 669 457 668 451 l 799 957 q 818 972 803 972 l 978 972 q 990 954 994 972 l 704 15 q 685 0 700 0 l 539 0 q 524 15 524 0 l 507 529 q 504 535 507 535 q 499 529 501 535 l 364 15 q 344 0 360 0 l 201 0 z "},"Ẃ":{"ha":915,"x_min":118,"x_max":994,"o":"m 201 0 q 185 15 185 0 l 118 954 l 118 957 q 135 972 118 972 l 299 972 q 314 957 314 972 l 329 457 q 333 451 331 451 q 338 457 336 451 l 472 957 q 492 972 476 972 l 628 972 q 643 957 643 972 l 661 457 q 665 451 661 451 q 669 457 668 451 l 799 957 q 818 972 803 972 l 978 972 q 990 954 994 972 l 704 15 q 685 0 700 0 l 539 0 q 524 15 524 0 l 507 529 q 504 535 507 535 q 499 529 501 535 l 364 15 q 344 0 360 0 l 201 0 m 485 1058 q 471 1067 471 1058 q 475 1078 471 1072 l 571 1219 q 593 1231 578 1231 l 718 1231 q 731 1222 731 1231 q 725 1210 731 1215 l 604 1068 q 583 1058 594 1058 l 485 1058 z "},"Ŵ":{"ha":915,"x_min":118,"x_max":994,"o":"m 201 0 q 185 15 185 0 l 118 954 l 118 957 q 135 972 118 972 l 299 972 q 314 957 314 972 l 329 457 q 333 451 331 451 q 338 457 336 451 l 472 957 q 492 972 476 972 l 628 972 q 643 957 643 972 l 661 457 q 665 451 661 451 q 669 457 668 451 l 799 957 q 818 972 803 972 l 978 972 q 990 954 994 972 l 704 15 q 685 0 700 0 l 539 0 q 524 15 524 0 l 507 529 q 504 535 507 535 q 499 529 501 535 l 364 15 q 344 0 360 0 l 201 0 m 374 1056 q 361 1064 361 1056 q 365 1075 361 1069 l 468 1219 q 489 1231 475 1231 l 663 1231 q 679 1219 675 1231 l 751 1075 q 753 1068 753 1072 q 738 1056 753 1056 l 619 1056 q 601 1068 606 1056 l 571 1146 q 563 1146 567 1153 l 513 1068 q 503 1059 510 1063 q 492 1056 497 1056 l 374 1056 z "},"Ẅ":{"ha":915,"x_min":118,"x_max":994,"o":"m 201 0 q 185 15 185 0 l 118 954 l 118 957 q 135 972 118 972 l 299 972 q 314 957 314 972 l 329 457 q 333 451 331 451 q 338 457 336 451 l 472 957 q 492 972 476 972 l 628 972 q 643 957 643 972 l 661 457 q 665 451 661 451 q 669 457 668 451 l 799 957 q 818 972 803 972 l 978 972 q 990 954 994 972 l 704 15 q 685 0 700 0 l 539 0 q 524 15 524 0 l 507 529 q 504 535 507 535 q 499 529 501 535 l 364 15 q 344 0 360 0 l 201 0 z "},"Ẁ":{"ha":915,"x_min":118,"x_max":994,"o":"m 201 0 q 185 15 185 0 l 118 954 l 118 957 q 135 972 118 972 l 299 972 q 314 957 314 972 l 329 457 q 333 451 331 451 q 338 457 336 451 l 472 957 q 492 972 476 972 l 628 972 q 643 957 643 972 l 661 457 q 665 451 661 451 q 669 457 668 451 l 799 957 q 818 972 803 972 l 978 972 q 990 954 994 972 l 704 15 q 685 0 700 0 l 539 0 q 524 15 524 0 l 507 529 q 504 535 507 535 q 499 529 501 535 l 364 15 q 344 0 360 0 l 201 0 m 618 1078 q 619 1069 619 1075 q 604 1058 619 1058 l 503 1058 q 485 1068 493 1058 l 400 1210 q 397 1219 397 1215 q 401 1227 397 1224 q 413 1231 406 1231 l 538 1231 q 556 1219 550 1231 l 618 1078 z "},"X":{"ha":640,"x_min":7,"x_max":699,"o":"m 21 0 q 9 6 11 0 q 11 19 7 11 l 250 482 q 251 490 253 486 l 125 953 l 124 958 q 139 972 124 972 l 301 972 q 317 958 314 972 l 375 692 q 378 688 375 688 q 383 692 382 688 l 506 958 q 525 972 513 972 l 685 972 q 697 967 694 972 q 694 953 699 961 l 456 490 q 454 482 453 486 l 581 19 l 582 14 q 577 4 582 8 q 565 0 572 0 l 406 0 q 390 14 393 0 l 332 279 q 329 283 332 283 q 324 279 326 283 l 200 14 q 181 0 193 0 l 21 0 z "},"Y":{"ha":639,"x_min":124,"x_max":699,"o":"m 213 1 q 201 6 206 1 q 199 18 197 11 l 243 379 q 244 383 243 381 q 243 388 244 385 l 124 953 l 124 957 q 128 968 124 964 q 139 972 132 972 l 306 972 q 322 958 321 972 l 365 626 q 369 622 365 622 q 374 626 372 622 l 497 958 q 518 972 503 972 l 683 972 q 695 967 692 972 q 694 953 699 963 l 436 388 q 433 379 433 383 l 389 18 q 383 6 388 11 q 371 1 378 1 l 213 1 z "},"Ý":{"ha":639,"x_min":124,"x_max":699,"o":"m 213 1 q 201 6 206 1 q 199 18 197 11 l 243 379 q 244 383 243 381 q 243 388 244 385 l 124 953 l 124 957 q 128 968 124 964 q 139 972 132 972 l 306 972 q 322 958 321 972 l 365 626 q 369 622 365 622 q 374 626 372 622 l 497 958 q 518 972 503 972 l 683 972 q 695 967 692 972 q 694 953 699 963 l 436 388 q 433 379 433 383 l 389 18 q 383 6 388 11 q 371 1 378 1 l 213 1 m 350 1058 q 336 1067 336 1058 q 340 1078 336 1072 l 436 1219 q 458 1231 443 1231 l 583 1231 q 596 1222 596 1231 q 590 1210 596 1215 l 469 1068 q 449 1058 460 1058 l 350 1058 z "},"Ŷ":{"ha":639,"x_min":124,"x_max":699,"o":"m 213 1 q 201 6 206 1 q 199 18 197 11 l 243 379 q 244 383 243 381 q 243 388 244 385 l 124 953 l 124 957 q 128 968 124 964 q 139 972 132 972 l 306 972 q 322 958 321 972 l 365 626 q 369 622 365 622 q 374 626 372 622 l 497 958 q 518 972 503 972 l 683 972 q 695 967 692 972 q 694 953 699 963 l 436 388 q 433 379 433 383 l 389 18 q 383 6 388 11 q 371 1 378 1 l 213 1 m 239 1056 q 226 1064 226 1056 q 231 1075 226 1069 l 333 1219 q 354 1231 340 1231 l 528 1231 q 544 1219 540 1231 l 617 1075 q 618 1068 618 1072 q 603 1056 618 1056 l 485 1056 q 467 1068 471 1056 l 436 1146 q 428 1146 432 1153 l 378 1068 q 369 1059 375 1063 q 357 1056 363 1056 l 239 1056 z "},"Ÿ":{"ha":639,"x_min":124,"x_max":699,"o":"m 213 1 q 201 6 206 1 q 199 18 197 11 l 243 379 q 244 383 243 381 q 243 388 244 385 l 124 953 l 124 957 q 128 968 124 964 q 139 972 132 972 l 306 972 q 322 958 321 972 l 365 626 q 369 622 365 622 q 374 626 372 622 l 497 958 q 518 972 503 972 l 683 972 q 695 967 692 972 q 694 953 699 963 l 436 388 q 433 379 433 383 l 389 18 q 383 6 388 11 q 371 1 378 1 l 213 1 z "},"Ỵ":{"ha":639,"x_min":124,"x_max":699,"o":"m 213 1 q 201 6 206 1 q 199 18 197 11 l 243 379 q 244 383 243 381 q 243 388 244 385 l 124 953 l 124 957 q 128 968 124 964 q 139 972 132 972 l 306 972 q 322 958 321 972 l 365 626 q 369 622 365 622 q 374 626 372 622 l 497 958 q 518 972 503 972 l 683 972 q 695 967 692 972 q 694 953 699 963 l 436 388 q 433 379 433 383 l 389 18 q 383 6 388 11 q 371 1 378 1 l 213 1 m 253 -333 q 188 -308 213 -333 q 163 -243 163 -283 q 196 -158 163 -192 q 278 -125 229 -125 q 342 -149 318 -125 q 367 -211 367 -172 q 333 -298 367 -262 q 253 -333 300 -333 z "},"Ỳ":{"ha":639,"x_min":124,"x_max":699,"o":"m 213 1 q 201 6 206 1 q 199 18 197 11 l 243 379 q 244 383 243 381 q 243 388 244 385 l 124 953 l 124 957 q 128 968 124 964 q 139 972 132 972 l 306 972 q 322 958 321 972 l 365 626 q 369 622 365 622 q 374 626 372 622 l 497 958 q 518 972 503 972 l 683 972 q 695 967 692 972 q 694 953 699 963 l 436 388 q 433 379 433 383 l 389 18 q 383 6 388 11 q 371 1 378 1 l 213 1 m 483 1078 q 485 1069 485 1075 q 469 1058 485 1058 l 368 1058 q 350 1068 358 1058 l 265 1210 q 263 1219 263 1215 q 267 1227 263 1224 q 278 1231 271 1231 l 403 1231 q 421 1219 415 1231 l 483 1078 z "},"Ỷ":{"ha":639,"x_min":124,"x_max":699,"o":"m 213 1 q 201 6 206 1 q 199 18 197 11 l 243 379 q 244 383 243 381 q 243 388 244 385 l 124 953 l 124 957 q 128 968 124 964 q 139 972 132 972 l 306 972 q 322 958 321 972 l 365 626 q 369 622 365 622 q 374 626 372 622 l 497 958 q 518 972 503 972 l 683 972 q 695 967 692 972 q 694 953 699 963 l 436 388 q 433 379 433 383 l 389 18 q 383 6 388 11 q 371 1 378 1 l 213 1 m 403 1031 q 393 1051 385 1035 q 446 1122 411 1088 q 469 1149 461 1138 q 478 1178 476 1160 q 469 1201 479 1192 q 444 1211 460 1211 q 413 1202 426 1211 q 378 1169 399 1193 q 365 1161 372 1163 q 353 1165 358 1160 l 311 1200 q 306 1211 306 1204 q 311 1224 306 1218 q 380 1287 347 1268 q 460 1306 413 1306 q 548 1277 517 1306 q 579 1199 579 1249 q 563 1132 579 1157 q 514 1075 547 1107 q 474 1031 482 1043 q 453 1021 464 1019 l 403 1031 z "},"Ỹ":{"ha":639,"x_min":124,"x_max":699,"o":"m 213 1 q 201 6 206 1 q 199 18 197 11 l 243 379 q 244 383 243 381 q 243 388 244 385 l 124 953 l 124 957 q 128 968 124 964 q 139 972 132 972 l 306 972 q 322 958 321 972 l 365 626 q 369 622 365 622 q 374 626 372 622 l 497 958 q 518 972 503 972 l 683 972 q 695 967 692 972 q 694 953 699 963 l 436 388 q 433 379 433 383 l 389 18 q 383 6 388 11 q 371 1 378 1 l 213 1 m 515 1072 q 444 1097 485 1072 q 419 1113 433 1103 q 392 1122 404 1122 q 339 1092 361 1122 q 315 1086 329 1078 l 264 1128 q 261 1150 256 1136 q 319 1222 285 1197 q 390 1246 353 1246 q 472 1214 433 1246 q 485 1204 476 1211 q 504 1193 494 1197 q 525 1189 514 1189 q 576 1217 556 1189 q 600 1224 589 1233 l 650 1185 q 656 1174 656 1179 q 647 1153 656 1165 q 583 1092 619 1111 q 515 1072 547 1072 z "},"Z":{"ha":556,"x_min":1,"x_max":614,"o":"m 17 0 q 1 17 1 0 l 19 157 q 26 178 19 167 l 390 796 q 386 804 394 804 l 115 804 q 104 809 108 804 q 101 821 100 814 l 117 956 q 124 967 118 963 q 136 972 129 972 l 599 972 q 610 967 606 972 q 613 956 614 963 l 596 815 q 589 794 593 801 l 225 176 q 229 168 221 168 l 500 168 q 511 163 507 168 q 514 151 515 158 l 497 17 q 492 5 497 10 q 479 0 486 0 l 17 0 z "},"Ź":{"ha":556,"x_min":1,"x_max":614,"o":"m 17 0 q 1 17 1 0 l 19 157 q 26 178 19 167 l 390 796 q 386 804 394 804 l 115 804 q 104 809 108 804 q 101 821 100 814 l 117 956 q 124 967 118 963 q 136 972 129 972 l 599 972 q 610 967 606 972 q 613 956 614 963 l 596 815 q 589 794 593 801 l 225 176 q 229 168 221 168 l 500 168 q 511 163 507 168 q 514 151 515 158 l 497 17 q 492 5 497 10 q 479 0 486 0 l 17 0 m 306 1058 q 292 1067 292 1058 q 296 1078 292 1072 l 392 1219 q 414 1231 399 1231 l 539 1231 q 551 1222 551 1231 q 546 1210 551 1215 l 425 1068 q 404 1058 415 1058 l 306 1058 z "},"Ž":{"ha":556,"x_min":1,"x_max":614,"o":"m 17 0 q 1 17 1 0 l 19 157 q 26 178 19 167 l 390 796 q 386 804 394 804 l 115 804 q 104 809 108 804 q 101 821 100 814 l 117 956 q 124 967 118 963 q 136 972 129 972 l 599 972 q 610 967 606 972 q 613 956 614 963 l 596 815 q 589 794 593 801 l 225 176 q 229 168 221 168 l 500 168 q 511 163 507 168 q 514 151 515 158 l 497 17 q 492 5 497 10 q 479 0 486 0 l 17 0 m 210 1211 q 208 1219 208 1214 q 224 1231 208 1231 l 340 1231 q 358 1218 354 1231 l 390 1140 q 397 1140 393 1133 l 447 1218 q 468 1231 456 1231 l 588 1231 q 600 1222 600 1231 q 596 1211 600 1218 l 489 1067 q 468 1056 481 1056 l 294 1056 q 276 1067 282 1056 l 210 1211 z "},"Ż":{"ha":556,"x_min":1,"x_max":614,"o":"m 17 0 q 1 17 1 0 l 19 157 q 26 178 19 167 l 390 796 q 386 804 394 804 l 115 804 q 104 809 108 804 q 101 821 100 814 l 117 956 q 124 967 118 963 q 136 972 129 972 l 599 972 q 610 967 606 972 q 613 956 614 963 l 596 815 q 589 794 593 801 l 225 176 q 229 168 221 168 l 500 168 q 511 163 507 168 q 514 151 515 158 l 497 17 q 492 5 497 10 q 479 0 486 0 l 17 0 m 378 1053 q 310 1080 336 1053 q 283 1149 283 1107 q 319 1237 283 1201 q 406 1272 354 1272 q 474 1247 449 1272 q 500 1178 500 1221 q 464 1089 500 1125 q 378 1053 428 1053 z "},"Ģ":{"ha":629,"x_min":47,"x_max":647,"o":"m 286 -11 q 111 49 175 -11 q 47 211 47 108 q 50 251 47 224 l 107 721 q 203 912 121 840 q 408 983 286 983 q 583 923 518 983 q 647 760 647 863 q 644 719 647 747 l 639 667 q 632 655 638 660 q 619 650 626 650 l 463 650 q 451 655 456 650 q 449 667 447 660 l 456 722 q 457 739 457 728 q 438 794 457 774 q 388 815 419 815 q 328 790 353 815 q 297 722 303 764 l 239 250 q 253 183 235 208 q 306 157 271 157 q 367 183 342 157 q 397 250 392 208 l 411 361 q 406 368 411 368 l 346 368 q 335 373 339 368 q 332 385 331 378 l 347 508 q 353 520 347 515 q 365 525 358 525 l 604 525 q 619 508 619 525 l 588 251 q 490 60 574 132 q 286 -11 407 -11 z "},"Ķ":{"ha":661,"x_min":33,"x_max":725,"o":"m 49 0 q 38 5 42 0 q 35 17 33 10 l 150 956 q 156 967 151 963 q 168 972 161 972 l 325 972 q 340 956 340 972 l 297 606 q 299 599 296 600 q 304 604 303 599 l 522 960 q 543 972 529 972 l 710 972 q 722 967 719 972 q 719 953 725 963 l 471 553 q 469 549 469 551 q 468 544 468 547 l 615 19 l 617 14 q 601 0 617 0 l 432 0 q 415 13 418 0 l 319 376 q 316 380 319 381 q 310 376 313 379 l 263 304 q 260 301 261 303 q 258 296 258 299 l 225 17 q 218 5 224 10 q 206 0 213 0 l 49 0 z "},"Ņ":{"ha":693,"x_min":33,"x_max":725,"o":"m 535 956 q 541 967 536 963 q 553 972 546 972 l 710 972 q 721 967 717 972 q 724 956 725 963 l 608 17 q 602 5 607 10 q 590 0 597 0 l 413 0 q 396 14 400 0 l 296 551 q 291 555 294 556 q 288 550 288 554 l 224 17 q 217 5 222 10 q 204 0 211 0 l 49 0 q 38 5 42 0 q 35 17 33 10 l 150 956 q 156 967 151 963 q 168 972 161 972 l 344 972 q 360 958 357 972 l 463 421 q 467 417 464 417 q 471 422 471 418 l 535 956 z "},"Ŗ":{"ha":635,"x_min":33,"x_max":660,"o":"m 404 0 q 388 14 390 0 l 331 397 q 324 403 328 403 l 279 403 q 271 396 271 403 l 225 17 q 218 5 224 10 q 206 0 213 0 l 49 0 q 38 5 42 0 q 35 17 33 10 l 150 956 q 156 967 151 963 q 168 972 161 972 l 440 972 q 600 906 540 972 q 660 731 660 840 q 657 679 660 697 q 609 535 647 599 q 513 438 571 472 q 508 434 510 436 q 508 429 507 432 l 582 19 l 582 17 q 577 5 582 10 q 565 0 572 0 l 404 0 m 328 804 q 321 797 321 804 l 292 560 q 297 553 289 553 l 357 553 q 436 594 404 553 q 468 704 468 636 q 447 777 468 750 q 389 804 425 804 l 328 804 z "},"Ţ":{"ha":631,"x_min":106,"x_max":690,"o":"m 675 972 q 686 967 682 972 q 689 956 690 963 l 672 821 q 666 809 671 814 q 654 804 661 804 l 485 804 q 480 802 482 804 q 478 797 478 800 l 382 17 q 376 5 381 10 q 364 0 371 0 l 206 0 q 194 5 199 0 q 192 17 190 10 l 288 797 q 282 804 290 804 l 121 804 q 106 821 106 804 l 122 956 q 128 967 124 963 q 140 972 133 972 l 675 972 m 236 -256 q 226 -236 222 -251 l 242 -172 q 263 -158 246 -156 q 292 -153 278 -161 q 313 -125 306 -144 q 315 -106 315 -114 q 274 -21 315 -67 q 269 -10 269 -15 q 285 0 269 0 l 368 0 q 388 -8 379 0 q 433 -122 433 -60 q 424 -179 433 -154 q 374 -246 407 -226 q 299 -265 340 -265 q 236 -256 272 -265 z "},"Ș":{"ha":599,"x_min":40,"x_max":624,"o":"m 274 -11 q 103 49 167 -11 q 40 206 40 108 q 43 243 40 218 l 49 283 q 55 295 50 290 q 67 300 60 300 l 221 300 q 236 283 236 300 l 232 253 q 231 236 231 247 q 249 178 231 200 q 296 157 267 157 q 358 187 332 157 q 383 261 383 217 q 360 325 383 297 q 269 407 336 353 q 179 487 214 451 q 120 572 144 522 q 96 685 96 621 q 134 840 96 772 q 240 946 172 908 q 390 983 307 983 q 560 922 497 983 q 624 757 624 860 q 621 717 624 744 l 617 683 q 610 672 615 676 q 597 667 604 667 l 443 667 q 432 672 436 667 q 429 683 428 676 l 433 721 q 435 739 435 726 q 417 794 435 774 q 369 815 400 815 q 309 785 333 815 q 285 706 285 756 q 308 642 285 672 q 392 561 331 613 q 497 467 461 503 q 553 390 532 432 q 574 294 574 349 q 571 256 574 283 q 474 61 556 133 q 274 -11 392 -11 z "},"Ț":{"ha":631,"x_min":64,"x_max":690,"o":"m 675 972 q 686 967 682 972 q 689 956 690 963 l 672 821 q 666 809 671 814 q 654 804 661 804 l 485 804 q 480 802 482 804 q 478 797 478 800 l 382 17 q 376 5 381 10 q 364 0 371 0 l 206 0 q 194 5 199 0 q 192 17 190 10 l 288 797 q 282 804 290 804 l 121 804 q 106 821 106 804 l 122 956 q 128 967 124 963 q 140 972 133 972 l 675 972 z "},"a":{"ha":600,"x_min":39,"x_max":608,"o":"m 417 697 q 423 709 418 704 q 435 714 428 714 l 593 714 q 604 709 600 714 q 607 697 608 704 l 524 17 q 517 5 522 10 q 506 0 513 0 l 347 0 q 336 5 340 0 q 333 17 332 10 l 339 56 q 336 61 339 61 q 331 57 333 61 q 197 -11 281 -11 q 78 36 117 -11 q 39 168 39 83 q 42 222 39 203 l 75 492 q 142 665 89 606 q 288 725 196 725 q 404 657 371 725 q 409 653 407 653 q 413 658 411 653 l 417 697 m 288 157 q 335 179 315 157 q 361 238 356 201 l 390 476 q 379 535 394 513 q 336 557 364 557 q 288 535 308 557 q 264 476 268 513 l 233 238 q 244 179 229 201 q 288 157 260 157 z "},"á":{"ha":599,"x_min":39,"x_max":608,"o":"m 417 697 q 423 709 418 704 q 435 714 428 714 l 593 714 q 604 709 600 714 q 607 697 608 704 l 524 17 q 517 5 522 10 q 506 0 513 0 l 347 0 q 336 5 340 0 q 333 17 332 10 l 339 56 q 336 61 339 61 q 331 57 333 61 q 197 -11 281 -11 q 78 36 117 -11 q 39 168 39 83 q 42 222 39 203 l 75 492 q 142 665 89 606 q 288 725 196 725 q 404 657 371 725 q 409 653 407 653 q 413 658 411 653 l 417 697 m 288 157 q 335 179 315 157 q 361 238 356 201 l 390 476 q 379 535 394 513 q 336 557 364 557 q 288 535 308 557 q 264 476 268 513 l 233 238 q 244 179 229 201 q 288 157 260 157 m 299 800 q 285 808 285 800 q 289 819 285 814 l 385 961 q 407 972 392 972 l 532 972 q 544 964 544 972 q 539 951 544 957 l 418 810 q 397 800 408 800 l 299 800 z "},"ă":{"ha":599,"x_min":39,"x_max":608,"o":"m 417 697 q 423 709 418 704 q 435 714 428 714 l 593 714 q 604 709 600 714 q 607 697 608 704 l 524 17 q 517 5 522 10 q 506 0 513 0 l 347 0 q 336 5 340 0 q 333 17 332 10 l 339 56 q 336 61 339 61 q 331 57 333 61 q 197 -11 281 -11 q 78 36 117 -11 q 39 168 39 83 q 42 222 39 203 l 75 492 q 142 665 89 606 q 288 725 196 725 q 404 657 371 725 q 409 653 407 653 q 413 658 411 653 l 417 697 m 288 157 q 335 179 315 157 q 361 238 356 201 l 390 476 q 379 535 394 513 q 336 557 364 557 q 288 535 308 557 q 264 476 268 513 l 233 238 q 244 179 229 201 q 288 157 260 157 m 367 763 q 260 803 299 763 q 225 910 222 843 q 242 926 225 926 l 308 926 q 324 910 324 926 q 340 865 325 882 q 378 849 354 849 q 421 865 401 849 q 447 910 440 882 q 467 926 451 926 l 533 926 q 547 910 550 926 q 484 803 533 843 q 367 763 435 763 z "},"ắ":{"ha":599,"x_min":39,"x_max":608,"o":"m 417 697 q 423 709 418 704 q 435 714 428 714 l 593 714 q 604 709 600 714 q 607 697 608 704 l 524 17 q 517 5 522 10 q 506 0 513 0 l 347 0 q 336 5 340 0 q 333 17 332 10 l 339 56 q 336 61 339 61 q 331 57 333 61 q 197 -11 281 -11 q 78 36 117 -11 q 39 168 39 83 q 42 222 39 203 l 75 492 q 142 665 89 606 q 288 725 196 725 q 404 657 371 725 q 409 653 407 653 q 413 658 411 653 l 417 697 m 288 157 q 335 179 315 157 q 361 238 356 201 l 390 476 q 379 535 394 513 q 336 557 364 557 q 288 535 308 557 q 264 476 268 513 l 233 238 q 244 179 229 201 q 288 157 260 157 z "},"ặ":{"ha":599,"x_min":39,"x_max":608,"o":"m 417 697 q 423 709 418 704 q 435 714 428 714 l 593 714 q 604 709 600 714 q 607 697 608 704 l 524 17 q 517 5 522 10 q 506 0 513 0 l 347 0 q 336 5 340 0 q 333 17 332 10 l 339 56 q 336 61 339 61 q 331 57 333 61 q 197 -11 281 -11 q 78 36 117 -11 q 39 168 39 83 q 42 222 39 203 l 75 492 q 142 665 89 606 q 288 725 196 725 q 404 657 371 725 q 409 653 407 653 q 413 658 411 653 l 417 697 m 288 157 q 335 179 315 157 q 361 238 356 201 l 390 476 q 379 535 394 513 q 336 557 364 557 q 288 535 308 557 q 264 476 268 513 l 233 238 q 244 179 229 201 q 288 157 260 157 m 232 -333 q 167 -308 192 -333 q 142 -243 142 -283 q 175 -158 142 -192 q 257 -125 208 -125 q 322 -149 297 -125 q 346 -211 346 -172 q 313 -298 346 -262 q 232 -333 279 -333 m 369 785 q 263 825 301 785 q 228 932 225 865 q 244 949 228 949 l 311 949 q 326 932 326 949 q 342 888 328 904 q 381 871 357 871 q 423 888 404 871 q 450 932 442 904 q 469 949 454 949 l 536 949 q 550 932 553 949 q 487 825 536 865 q 369 785 438 785 z "},"ằ":{"ha":599,"x_min":39,"x_max":608,"o":"m 417 697 q 423 709 418 704 q 435 714 428 714 l 593 714 q 604 709 600 714 q 607 697 608 704 l 524 17 q 517 5 522 10 q 506 0 513 0 l 347 0 q 336 5 340 0 q 333 17 332 10 l 339 56 q 336 61 339 61 q 331 57 333 61 q 197 -11 281 -11 q 78 36 117 -11 q 39 168 39 83 q 42 222 39 203 l 75 492 q 142 665 89 606 q 288 725 196 725 q 404 657 371 725 q 409 653 407 653 q 413 658 411 653 l 417 697 m 288 157 q 335 179 315 157 q 361 238 356 201 l 390 476 q 379 535 394 513 q 336 557 364 557 q 288 535 308 557 q 264 476 268 513 l 233 238 q 244 179 229 201 q 288 157 260 157 z "},"ẳ":{"ha":599,"x_min":39,"x_max":608,"o":"m 417 697 q 423 709 418 704 q 435 714 428 714 l 593 714 q 604 709 600 714 q 607 697 608 704 l 524 17 q 517 5 522 10 q 506 0 513 0 l 347 0 q 336 5 340 0 q 333 17 332 10 l 339 56 q 336 61 339 61 q 331 57 333 61 q 197 -11 281 -11 q 78 36 117 -11 q 39 168 39 83 q 42 222 39 203 l 75 492 q 142 665 89 606 q 288 725 196 725 q 404 657 371 725 q 409 653 407 653 q 413 658 411 653 l 417 697 m 288 157 q 335 179 315 157 q 361 238 356 201 l 390 476 q 379 535 394 513 q 336 557 364 557 q 288 535 308 557 q 264 476 268 513 l 233 238 q 244 179 229 201 q 288 157 260 157 m 382 988 q 371 996 374 990 q 374 1010 368 1001 q 418 1067 390 1042 q 438 1092 432 1082 q 446 1117 444 1101 l 446 1121 q 438 1139 446 1132 q 417 1146 429 1146 q 390 1138 401 1146 q 361 1111 378 1131 q 349 1103 356 1104 q 336 1107 342 1101 l 301 1136 q 296 1146 296 1140 q 301 1160 296 1154 q 361 1213 332 1197 q 432 1228 390 1228 q 508 1203 481 1228 q 536 1133 536 1178 q 522 1076 536 1099 q 481 1029 508 1054 q 444 989 451 1000 q 422 979 435 978 l 382 988 m 369 785 q 263 825 301 785 q 228 932 225 865 q 244 949 228 949 l 311 949 q 326 932 326 949 q 342 888 328 904 q 381 871 357 871 q 423 888 404 871 q 450 932 442 904 q 469 949 454 949 l 536 949 q 550 932 551 949 q 487 825 536 865 q 369 785 438 785 z "},"ẵ":{"ha":599,"x_min":39,"x_max":624,"o":"m 417 697 q 423 709 418 704 q 435 714 428 714 l 593 714 q 604 709 600 714 q 607 697 608 704 l 524 17 q 517 5 522 10 q 506 0 513 0 l 347 0 q 336 5 340 0 q 333 17 332 10 l 339 56 q 336 61 339 61 q 331 57 333 61 q 197 -11 281 -11 q 78 36 117 -11 q 39 168 39 83 q 42 222 39 203 l 75 492 q 142 665 89 606 q 288 725 196 725 q 404 657 371 725 q 409 653 407 653 q 413 658 411 653 l 417 697 m 288 157 q 335 179 315 157 q 361 238 356 201 l 390 476 q 379 535 394 513 q 336 557 364 557 q 288 535 308 557 q 264 476 268 513 l 233 238 q 244 179 229 201 q 288 157 260 157 z "},"ǎ":{"ha":599,"x_min":39,"x_max":608,"o":"m 417 697 q 423 709 418 704 q 435 714 428 714 l 593 714 q 604 709 600 714 q 607 697 608 704 l 524 17 q 517 5 522 10 q 506 0 513 0 l 347 0 q 336 5 340 0 q 333 17 332 10 l 339 56 q 336 61 339 61 q 331 57 333 61 q 197 -11 281 -11 q 78 36 117 -11 q 39 168 39 83 q 42 222 39 203 l 75 492 q 142 665 89 606 q 288 725 196 725 q 404 657 371 725 q 409 653 407 653 q 413 658 411 653 l 417 697 m 288 157 q 335 179 315 157 q 361 238 356 201 l 390 476 q 379 535 394 513 q 336 557 364 557 q 288 535 308 557 q 264 476 268 513 l 233 238 q 244 179 229 201 q 288 157 260 157 z "},"â":{"ha":599,"x_min":39,"x_max":608,"o":"m 417 697 q 423 709 418 704 q 435 714 428 714 l 593 714 q 604 709 600 714 q 607 697 608 704 l 524 17 q 517 5 522 10 q 506 0 513 0 l 347 0 q 336 5 340 0 q 333 17 332 10 l 339 56 q 336 61 339 61 q 331 57 333 61 q 197 -11 281 -11 q 78 36 117 -11 q 39 168 39 83 q 42 222 39 203 l 75 492 q 142 665 89 606 q 288 725 196 725 q 404 657 371 725 q 409 653 407 653 q 413 658 411 653 l 417 697 m 288 157 q 335 179 315 157 q 361 238 356 201 l 390 476 q 379 535 394 513 q 336 557 364 557 q 288 535 308 557 q 264 476 268 513 l 233 238 q 244 179 229 201 q 288 157 260 157 m 188 797 q 175 806 175 797 q 179 817 175 811 l 282 961 q 303 972 289 972 l 476 972 q 493 961 489 972 l 565 817 q 567 810 567 814 q 551 797 567 797 l 433 797 q 415 810 419 797 l 385 888 q 376 888 381 894 l 326 810 q 317 801 324 804 q 306 797 311 797 l 188 797 z "},"ấ":{"ha":599,"x_min":39,"x_max":826,"o":"m 417 697 q 423 709 418 704 q 435 714 428 714 l 593 714 q 604 709 600 714 q 607 697 608 704 l 524 17 q 517 5 522 10 q 506 0 513 0 l 347 0 q 336 5 340 0 q 333 17 332 10 l 339 56 q 336 61 339 61 q 331 57 333 61 q 197 -11 281 -11 q 78 36 117 -11 q 39 168 39 83 q 42 222 39 203 l 75 492 q 142 665 89 606 q 288 725 196 725 q 404 657 371 725 q 409 653 407 653 q 413 658 411 653 l 417 697 m 288 157 q 335 179 315 157 q 361 238 356 201 l 390 476 q 379 535 394 513 q 336 557 364 557 q 288 535 308 557 q 264 476 268 513 l 233 238 q 244 179 229 201 q 288 157 260 157 z "},"ậ":{"ha":599,"x_min":39,"x_max":608,"o":"m 417 697 q 423 709 418 704 q 435 714 428 714 l 593 714 q 604 709 600 714 q 607 697 608 704 l 524 17 q 517 5 522 10 q 506 0 513 0 l 347 0 q 336 5 340 0 q 333 17 332 10 l 339 56 q 336 61 339 61 q 331 57 333 61 q 197 -11 281 -11 q 78 36 117 -11 q 39 168 39 83 q 42 222 39 203 l 75 492 q 142 665 89 606 q 288 725 196 725 q 404 657 371 725 q 409 653 407 653 q 413 658 411 653 l 417 697 m 288 157 q 335 179 315 157 q 361 238 356 201 l 390 476 q 379 535 394 513 q 336 557 364 557 q 288 535 308 557 q 264 476 268 513 l 233 238 q 244 179 229 201 q 288 157 260 157 m 232 -333 q 167 -308 192 -333 q 142 -243 142 -283 q 175 -158 142 -192 q 257 -125 208 -125 q 322 -149 297 -125 q 346 -211 346 -172 q 313 -298 346 -262 q 232 -333 279 -333 m 188 797 q 175 806 175 797 q 179 817 175 811 l 282 961 q 303 972 289 972 l 476 972 q 493 961 489 972 l 565 817 q 567 810 567 814 q 551 797 567 797 l 433 797 q 415 810 419 797 l 385 888 q 376 888 381 894 l 326 810 q 317 801 324 804 q 306 797 311 797 l 188 797 z "},"ầ":{"ha":599,"x_min":39,"x_max":676,"o":"m 417 697 q 423 709 418 704 q 435 714 428 714 l 593 714 q 604 709 600 714 q 607 697 608 704 l 524 17 q 517 5 522 10 q 506 0 513 0 l 347 0 q 336 5 340 0 q 333 17 332 10 l 339 56 q 336 61 339 61 q 331 57 333 61 q 197 -11 281 -11 q 78 36 117 -11 q 39 168 39 83 q 42 222 39 203 l 75 492 q 142 665 89 606 q 288 725 196 725 q 404 657 371 725 q 409 653 407 653 q 413 658 411 653 l 417 697 m 288 157 q 335 179 315 157 q 361 238 356 201 l 390 476 q 379 535 394 513 q 336 557 364 557 q 288 535 308 557 q 264 476 268 513 l 233 238 q 244 179 229 201 q 288 157 260 157 z "},"ẩ":{"ha":599,"x_min":39,"x_max":740,"o":"m 417 697 q 423 709 418 704 q 435 714 428 714 l 593 714 q 604 709 600 714 q 607 697 608 704 l 524 17 q 517 5 522 10 q 506 0 513 0 l 347 0 q 336 5 340 0 q 333 17 332 10 l 339 56 q 336 61 339 61 q 331 57 333 61 q 197 -11 281 -11 q 78 36 117 -11 q 39 168 39 83 q 42 222 39 203 l 75 492 q 142 665 89 606 q 288 725 196 725 q 404 657 371 725 q 409 653 407 653 q 413 658 411 653 l 417 697 m 288 157 q 335 179 315 157 q 361 238 356 201 l 390 476 q 379 535 394 513 q 336 557 364 557 q 288 535 308 557 q 264 476 268 513 l 233 238 q 244 179 229 201 q 288 157 260 157 m 576 940 q 565 947 568 942 q 567 961 563 953 q 597 1007 581 990 q 615 1026 613 1024 q 638 1051 631 1040 q 647 1078 644 1061 q 639 1101 649 1092 q 614 1110 629 1110 q 586 1101 599 1110 q 553 1071 574 1093 q 529 1067 542 1057 l 492 1099 q 486 1110 486 1103 q 492 1122 486 1117 q 555 1180 524 1163 q 631 1197 586 1197 q 711 1171 682 1197 q 740 1097 740 1144 q 726 1036 740 1060 q 681 982 711 1013 q 643 942 653 957 q 622 932 635 929 l 576 940 m 188 797 q 175 806 175 797 q 179 817 175 811 l 282 961 q 303 972 289 972 l 476 972 q 493 961 489 972 l 565 817 q 567 810 567 814 q 551 797 567 797 l 433 797 q 415 810 419 797 l 385 888 q 376 888 381 894 l 326 810 q 317 801 324 804 q 306 797 311 797 l 188 797 z "},"ẫ":{"ha":599,"x_min":39,"x_max":608,"o":"m 417 697 q 423 709 418 704 q 435 714 428 714 l 593 714 q 604 709 600 714 q 607 697 608 704 l 524 17 q 517 5 522 10 q 506 0 513 0 l 347 0 q 336 5 340 0 q 333 17 332 10 l 339 56 q 336 61 339 61 q 331 57 333 61 q 197 -11 281 -11 q 78 36 117 -11 q 39 168 39 83 q 42 222 39 203 l 75 492 q 142 665 89 606 q 288 725 196 725 q 404 657 371 725 q 409 653 407 653 q 413 658 411 653 l 417 697 m 288 157 q 335 179 315 157 q 361 238 356 201 l 390 476 q 379 535 394 513 q 336 557 364 557 q 288 535 308 557 q 264 476 268 513 l 233 238 q 244 179 229 201 q 288 157 260 157 z "},"ä":{"ha":599,"x_min":39,"x_max":615,"o":"m 417 697 q 423 709 418 704 q 435 714 428 714 l 593 714 q 604 709 600 714 q 607 697 608 704 l 524 17 q 517 5 522 10 q 506 0 513 0 l 347 0 q 336 5 340 0 q 333 17 332 10 l 339 56 q 336 61 339 61 q 331 57 333 61 q 197 -11 281 -11 q 78 36 117 -11 q 39 168 39 83 q 42 222 39 203 l 75 492 q 142 665 89 606 q 288 725 196 725 q 404 657 371 725 q 409 653 407 653 q 413 658 411 653 l 417 697 m 288 157 q 335 179 315 157 q 361 238 356 201 l 390 476 q 379 535 394 513 q 336 557 364 557 q 288 535 308 557 q 264 476 268 513 l 233 238 q 244 179 229 201 q 288 157 260 157 z "},"ạ":{"ha":599,"x_min":39,"x_max":608,"o":"m 417 697 q 423 709 418 704 q 435 714 428 714 l 593 714 q 604 709 600 714 q 607 697 608 704 l 524 17 q 517 5 522 10 q 506 0 513 0 l 347 0 q 336 5 340 0 q 333 17 332 10 l 339 56 q 336 61 339 61 q 331 57 333 61 q 197 -11 281 -11 q 78 36 117 -11 q 39 168 39 83 q 42 222 39 203 l 75 492 q 142 665 89 606 q 288 725 196 725 q 404 657 371 725 q 409 653 407 653 q 413 658 411 653 l 417 697 m 288 157 q 335 179 315 157 q 361 238 356 201 l 390 476 q 379 535 394 513 q 336 557 364 557 q 288 535 308 557 q 264 476 268 513 l 233 238 q 244 179 229 201 q 288 157 260 157 m 232 -333 q 167 -308 192 -333 q 142 -243 142 -283 q 175 -158 142 -192 q 257 -125 208 -125 q 322 -149 297 -125 q 346 -211 346 -172 q 313 -298 346 -262 q 232 -333 279 -333 z "},"à":{"ha":599,"x_min":39,"x_max":608,"o":"m 417 697 q 423 709 418 704 q 435 714 428 714 l 593 714 q 604 709 600 714 q 607 697 608 704 l 524 17 q 517 5 522 10 q 506 0 513 0 l 347 0 q 336 5 340 0 q 333 17 332 10 l 339 56 q 336 61 339 61 q 331 57 333 61 q 197 -11 281 -11 q 78 36 117 -11 q 39 168 39 83 q 42 222 39 203 l 75 492 q 142 665 89 606 q 288 725 196 725 q 404 657 371 725 q 409 653 407 653 q 413 658 411 653 l 417 697 m 288 157 q 335 179 315 157 q 361 238 356 201 l 390 476 q 379 535 394 513 q 336 557 364 557 q 288 535 308 557 q 264 476 268 513 l 233 238 q 244 179 229 201 q 288 157 260 157 m 432 819 q 433 811 433 817 q 418 800 433 800 l 317 800 q 299 810 307 800 l 214 951 q 211 961 211 957 q 215 969 211 965 q 226 972 219 972 l 351 972 q 369 961 364 972 l 432 819 z "},"ả":{"ha":599,"x_min":39,"x_max":608,"o":"m 417 697 q 423 709 418 704 q 435 714 428 714 l 593 714 q 604 709 600 714 q 607 697 608 704 l 524 17 q 517 5 522 10 q 506 0 513 0 l 347 0 q 336 5 340 0 q 333 17 332 10 l 339 56 q 336 61 339 61 q 331 57 333 61 q 197 -11 281 -11 q 78 36 117 -11 q 39 168 39 83 q 42 222 39 203 l 75 492 q 142 665 89 606 q 288 725 196 725 q 404 657 371 725 q 409 653 407 653 q 413 658 411 653 l 417 697 m 288 157 q 335 179 315 157 q 361 238 356 201 l 390 476 q 379 535 394 513 q 336 557 364 557 q 288 535 308 557 q 264 476 268 513 l 233 238 q 244 179 229 201 q 288 157 260 157 m 351 772 q 342 793 333 776 q 394 864 360 829 q 417 890 410 879 q 426 919 425 901 q 418 943 428 933 q 393 953 408 953 q 361 944 375 953 q 326 911 347 935 q 314 903 321 904 q 301 907 307 901 l 260 942 q 254 953 254 946 q 260 965 254 960 q 328 1028 296 1010 q 408 1047 361 1047 q 497 1019 465 1047 q 528 940 528 990 q 512 874 528 899 q 463 817 496 849 q 422 772 431 785 q 401 763 413 761 l 351 772 z "},"ā":{"ha":599,"x_min":39,"x_max":608,"o":"m 417 697 q 423 709 418 704 q 435 714 428 714 l 593 714 q 604 709 600 714 q 607 697 608 704 l 524 17 q 517 5 522 10 q 506 0 513 0 l 347 0 q 336 5 340 0 q 333 17 332 10 l 339 56 q 336 61 339 61 q 331 57 333 61 q 197 -11 281 -11 q 78 36 117 -11 q 39 168 39 83 q 42 222 39 203 l 75 492 q 142 665 89 606 q 288 725 196 725 q 404 657 371 725 q 409 653 407 653 q 413 658 411 653 l 417 697 m 288 157 q 335 179 315 157 q 361 238 356 201 l 390 476 q 379 535 394 513 q 336 557 364 557 q 288 535 308 557 q 264 476 268 513 l 233 238 q 244 179 229 201 q 288 157 260 157 m 235 807 q 224 812 228 807 q 221 824 219 817 l 233 924 q 239 935 233 931 q 251 940 244 940 l 515 940 q 526 935 522 940 q 529 924 531 931 l 517 824 q 510 812 515 817 q 499 807 506 807 l 235 807 z "},"ą":{"ha":608,"x_min":49,"x_max":618,"o":"m 489 -158 q 501 -172 501 -158 l 501 -236 q 488 -256 501 -251 q 422 -265 449 -265 q 347 -242 378 -265 q 317 -162 317 -218 q 394 -8 317 -82 q 399 -3 400 -6 q 393 0 397 0 l 357 0 q 346 5 350 0 q 343 17 342 10 l 347 56 q 346 61 349 61 q 340 57 343 61 q 206 -11 289 -11 q 49 168 49 -11 q 51 222 49 203 l 85 492 q 151 665 99 606 q 296 725 204 725 q 414 657 381 725 q 419 653 417 653 q 422 658 421 653 l 426 697 q 433 709 428 704 q 444 714 438 714 l 603 714 q 614 709 610 714 q 617 697 618 704 l 532 13 q 521 -8 532 0 q 444 -125 439 -75 q 457 -153 446 -144 q 485 -158 468 -161 l 489 -158 m 297 157 q 345 179 325 157 q 369 238 365 201 l 400 476 q 389 535 404 513 q 346 557 374 557 q 298 535 318 557 q 272 476 278 513 l 243 238 q 254 179 239 201 q 297 157 269 157 z "},"å":{"ha":599,"x_min":39,"x_max":608,"o":"m 417 697 q 423 709 418 704 q 435 714 428 714 l 593 714 q 604 709 600 714 q 607 697 608 704 l 524 17 q 517 5 522 10 q 506 0 513 0 l 347 0 q 336 5 340 0 q 333 17 332 10 l 339 56 q 336 61 339 61 q 331 57 333 61 q 197 -11 281 -11 q 78 36 117 -11 q 39 168 39 83 q 42 222 39 203 l 75 492 q 142 665 89 606 q 288 725 196 725 q 404 657 371 725 q 409 653 407 653 q 413 658 411 653 l 417 697 m 288 157 q 335 179 315 157 q 361 238 356 201 l 390 476 q 379 535 394 513 q 336 557 364 557 q 288 535 308 557 q 264 476 268 513 l 233 238 q 244 179 229 201 q 288 157 260 157 m 369 782 q 263 824 304 782 q 222 932 222 867 q 248 1029 222 985 q 317 1100 274 1074 q 411 1126 361 1126 q 517 1085 475 1126 q 558 978 558 1043 q 533 880 558 925 q 463 808 507 835 q 369 782 419 782 m 382 885 q 435 908 411 885 q 458 964 458 932 q 441 1008 458 990 q 399 1025 424 1025 q 347 1002 369 1025 q 324 946 324 979 q 340 902 324 919 q 382 885 356 885 z "},"ã":{"ha":599,"x_min":39,"x_max":608,"o":"m 417 697 q 423 709 418 704 q 435 714 428 714 l 593 714 q 604 709 600 714 q 607 697 608 704 l 524 17 q 517 5 522 10 q 506 0 513 0 l 347 0 q 336 5 340 0 q 333 17 332 10 l 339 56 q 336 61 339 61 q 331 57 333 61 q 197 -11 281 -11 q 78 36 117 -11 q 39 168 39 83 q 42 222 39 203 l 75 492 q 142 665 89 606 q 288 725 196 725 q 404 657 371 725 q 409 653 407 653 q 413 658 411 653 l 417 697 m 288 157 q 335 179 315 157 q 361 238 356 201 l 390 476 q 379 535 394 513 q 336 557 364 557 q 288 535 308 557 q 264 476 268 513 l 233 238 q 244 179 229 201 q 288 157 260 157 m 464 814 q 393 839 433 814 q 367 854 382 844 q 340 864 353 864 q 288 833 310 864 q 264 828 278 819 l 213 869 q 210 892 204 878 q 267 963 233 939 q 339 988 301 988 q 421 956 382 988 q 434 946 425 953 q 453 935 443 939 q 474 931 463 931 q 525 958 504 931 q 549 965 538 975 l 599 926 q 604 915 604 921 q 596 894 604 907 q 532 833 568 853 q 464 814 496 814 z "},"æ":{"ha":924,"x_min":26,"x_max":924,"o":"m 210 -11 q 80 23 133 -11 q 26 157 26 57 q 29 203 26 169 q 116 373 44 328 q 317 418 188 418 l 386 418 q 391 420 389 418 q 393 425 393 422 l 399 471 q 400 489 400 476 q 384 539 400 521 q 340 557 368 557 q 295 542 315 557 q 267 503 275 528 q 249 488 263 488 l 90 492 q 76 508 75 492 q 172 667 94 608 q 356 725 250 725 q 444 708 407 725 q 510 658 481 692 q 519 658 514 653 q 701 725 593 725 q 864 671 804 725 q 924 526 924 617 q 921 492 924 517 l 899 304 q 892 292 897 297 q 881 288 888 288 l 583 288 q 576 281 576 288 l 571 238 q 582 184 567 206 q 626 163 597 163 q 668 178 650 163 q 696 214 686 193 q 717 228 704 229 l 868 214 q 881 196 885 211 q 792 43 860 97 q 619 -11 725 -11 q 501 14 549 -11 q 446 71 454 39 q 444 74 444 72 q 442 75 443 76 q 358 15 424 40 q 210 -11 293 -11 m 594 425 q 600 418 592 418 l 715 418 q 724 425 721 418 l 729 478 q 718 535 733 513 q 675 557 703 557 q 625 535 646 557 q 600 478 604 513 l 594 425 m 278 135 q 335 154 308 135 q 367 207 363 174 l 375 279 q 369 286 375 286 l 314 286 q 248 261 274 286 q 222 192 222 236 q 238 149 222 164 q 278 135 253 135 z "},"b":{"ha":600,"x_min":25,"x_max":594,"o":"m 432 725 q 553 678 513 725 q 594 544 594 632 q 592 492 594 510 l 558 222 q 490 51 544 113 q 342 -11 435 -11 q 228 42 265 -11 q 222 44 225 44 q 219 39 219 43 l 217 17 q 210 5 215 10 q 199 0 206 0 l 40 0 q 29 5 33 0 q 26 17 25 10 l 142 956 q 148 967 143 963 q 160 972 153 972 l 318 972 q 329 967 325 972 q 332 956 333 963 l 297 674 l 297 672 q 298 672 297 672 q 299 671 299 671 q 311 678 304 671 q 432 725 361 725 m 400 478 q 389 535 404 513 q 346 557 374 557 q 302 540 322 557 q 275 496 282 524 l 242 218 q 257 174 242 190 q 297 157 272 157 q 345 179 325 157 q 369 236 365 201 l 400 478 z "},"c":{"ha":585,"x_min":40,"x_max":588,"o":"m 268 -11 q 100 42 160 -11 q 40 188 40 94 q 42 222 40 210 l 75 492 q 164 661 88 597 q 358 725 240 725 q 527 672 467 725 q 588 531 588 618 q 586 500 588 510 l 582 475 q 576 463 581 468 q 564 458 571 458 l 406 451 q 392 468 390 451 l 393 485 q 381 536 397 515 q 338 557 365 557 q 288 535 308 557 q 264 476 268 513 l 233 238 q 244 179 229 201 q 289 157 260 157 q 338 178 317 157 q 363 229 358 200 l 364 247 q 371 259 365 254 q 383 264 376 264 l 540 263 q 551 258 547 263 q 554 246 556 253 l 550 214 q 462 50 538 111 q 268 -11 386 -11 z "},"ć":{"ha":585,"x_min":40,"x_max":588,"o":"m 268 -11 q 100 42 160 -11 q 40 188 40 94 q 42 222 40 210 l 75 492 q 164 661 88 597 q 358 725 240 725 q 527 672 467 725 q 588 531 588 618 q 586 500 588 510 l 582 475 q 576 463 581 468 q 564 458 571 458 l 406 451 q 392 468 390 451 l 393 485 q 381 536 397 515 q 338 557 365 557 q 288 535 308 557 q 264 476 268 513 l 233 238 q 244 179 229 201 q 289 157 260 157 q 338 178 317 157 q 363 229 358 200 l 364 247 q 371 259 365 254 q 383 264 376 264 l 540 263 q 551 258 547 263 q 554 246 556 253 l 550 214 q 462 50 538 111 q 268 -11 386 -11 m 296 800 q 282 808 282 800 q 286 819 282 814 l 382 961 q 404 972 389 972 l 529 972 q 542 964 542 972 q 536 951 542 957 l 415 810 q 394 800 406 800 l 296 800 z "},"č":{"ha":585,"x_min":40,"x_max":589,"o":"m 268 -11 q 100 42 160 -11 q 40 188 40 94 q 42 222 40 210 l 75 492 q 164 661 88 597 q 358 725 240 725 q 527 672 467 725 q 588 531 588 618 q 586 500 588 510 l 582 475 q 576 463 581 468 q 564 458 571 458 l 406 451 q 392 468 390 451 l 393 485 q 381 536 397 515 q 338 557 365 557 q 288 535 308 557 q 264 476 268 513 l 233 238 q 244 179 229 201 q 289 157 260 157 q 338 178 317 157 q 363 229 358 200 l 364 247 q 371 259 365 254 q 383 264 376 264 l 540 263 q 551 258 547 263 q 554 246 556 253 l 550 214 q 462 50 538 111 q 268 -11 386 -11 m 199 953 q 197 961 197 956 q 213 972 197 972 l 329 972 q 347 960 343 972 l 379 882 q 386 882 382 875 l 436 960 q 457 972 444 972 l 576 972 q 589 964 589 972 q 585 953 589 960 l 478 808 q 457 797 469 797 l 283 797 q 265 808 271 797 l 199 953 z "},"ç":{"ha":585,"x_min":40,"x_max":588,"o":"m 582 475 q 576 463 581 468 q 564 458 571 458 l 406 451 q 392 468 390 451 l 393 485 q 381 536 397 515 q 338 557 365 557 q 288 535 308 557 q 264 476 268 513 l 233 238 q 244 179 229 201 q 289 157 260 157 q 338 178 317 157 q 363 229 358 200 l 364 247 q 371 259 365 254 q 383 264 376 264 l 540 263 q 551 258 547 263 q 554 246 556 253 l 550 214 q 484 70 539 128 q 340 -6 429 13 q 336 -14 332 -8 q 369 -115 369 -61 q 360 -171 369 -146 q 310 -237 343 -218 q 235 -257 276 -257 q 172 -247 199 -257 q 163 -228 158 -243 l 178 -164 q 199 -151 182 -149 q 228 -145 214 -154 q 249 -117 242 -136 q 251 -100 251 -106 q 208 -8 251 -61 l 201 -4 q 81 60 122 10 q 40 188 40 110 q 42 222 40 210 l 75 492 q 164 661 88 597 q 358 725 240 725 q 527 672 467 725 q 588 531 588 618 q 586 500 588 510 l 582 475 z "},"ĉ":{"ha":585,"x_min":40,"x_max":588,"o":"m 268 -11 q 100 42 160 -11 q 40 188 40 94 q 42 222 40 210 l 75 492 q 164 661 88 597 q 358 725 240 725 q 527 672 467 725 q 588 531 588 618 q 586 500 588 510 l 582 475 q 576 463 581 468 q 564 458 571 458 l 406 451 q 392 468 390 451 l 393 485 q 381 536 397 515 q 338 557 365 557 q 288 535 308 557 q 264 476 268 513 l 233 238 q 244 179 229 201 q 289 157 260 157 q 338 178 317 157 q 363 229 358 200 l 364 247 q 371 259 365 254 q 383 264 376 264 l 540 263 q 551 258 547 263 q 554 246 556 253 l 550 214 q 462 50 538 111 q 268 -11 386 -11 m 183 797 q 171 806 171 797 q 175 817 171 811 l 278 961 q 299 972 285 972 l 472 972 q 489 961 485 972 l 561 817 q 563 810 563 814 q 547 797 563 797 l 429 797 q 411 810 415 797 l 381 888 q 372 888 376 894 l 322 810 q 313 801 319 804 q 301 797 307 797 l 183 797 z "},"ċ":{"ha":585,"x_min":40,"x_max":588,"o":"m 268 -11 q 100 42 160 -11 q 40 188 40 94 q 42 222 40 210 l 75 492 q 164 661 88 597 q 358 725 240 725 q 527 672 467 725 q 588 531 588 618 q 586 500 588 510 l 582 475 q 576 463 581 468 q 564 458 571 458 l 406 451 q 392 468 390 451 l 393 485 q 381 536 397 515 q 338 557 365 557 q 288 535 308 557 q 264 476 268 513 l 233 238 q 244 179 229 201 q 289 157 260 157 q 338 178 317 157 q 363 229 358 200 l 364 247 q 371 259 365 254 q 383 264 376 264 l 540 263 q 551 258 547 263 q 554 246 556 253 l 550 214 q 462 50 538 111 q 268 -11 386 -11 m 367 794 q 299 822 325 794 q 272 890 272 849 q 308 978 272 943 q 394 1014 343 1014 q 463 988 438 1014 q 489 919 489 963 q 453 831 489 867 q 367 794 417 794 z "},"d":{"ha":600,"x_min":39,"x_max":640,"o":"m 449 956 q 455 967 450 963 q 467 972 460 972 l 625 972 q 636 967 632 972 q 639 956 640 963 l 524 17 q 517 5 522 10 q 506 0 513 0 l 347 0 q 336 5 340 0 q 333 17 332 10 l 336 39 q 335 44 338 43 q 328 42 332 44 q 201 -11 276 -11 q 79 37 119 -11 q 39 171 39 85 q 42 222 39 204 l 75 492 q 144 665 89 604 q 292 725 200 725 q 353 713 322 725 q 406 671 383 701 q 411 669 408 668 q 414 674 414 669 l 449 956 m 288 157 q 331 174 311 157 q 358 218 351 190 l 392 496 q 376 540 392 524 q 336 557 361 557 q 288 535 308 557 q 264 478 268 513 l 233 236 q 244 179 229 201 q 288 157 260 157 z "},"ð":{"ha":606,"x_min":40,"x_max":635,"o":"m 635 843 q 621 826 635 831 l 546 807 q 540 799 539 804 q 589 544 589 672 q 583 453 589 496 l 556 222 q 466 51 542 114 q 269 -11 390 -11 q 101 42 161 -11 q 40 188 40 94 q 42 222 40 210 l 71 453 q 115 574 79 521 q 206 656 151 626 q 322 686 260 686 q 399 663 375 686 q 403 665 403 658 q 376 760 394 713 q 368 764 374 767 l 263 738 l 258 736 q 244 750 247 736 l 238 799 l 238 801 q 253 819 238 814 l 332 840 q 338 849 339 843 q 281 951 314 896 q 278 961 278 960 q 293 972 278 972 l 442 972 q 460 963 454 972 q 500 890 465 953 q 507 886 503 883 l 613 913 l 617 914 q 631 900 628 914 l 635 847 l 635 843 m 392 438 q 380 494 396 472 q 335 517 364 517 q 284 494 306 517 q 258 438 263 472 l 233 238 q 245 180 229 203 q 290 157 261 157 q 341 180 319 157 q 367 238 363 203 l 392 438 z "},"ď":{"ha":600,"x_min":39,"x_max":935,"o":"m 449 956 q 455 967 450 963 q 467 972 460 972 l 625 972 q 636 967 632 972 q 639 956 640 963 l 524 17 q 517 5 522 10 q 506 0 513 0 l 347 0 q 336 5 340 0 q 333 17 332 10 l 336 39 q 335 44 338 43 q 328 42 332 44 q 201 -11 276 -11 q 79 37 119 -11 q 39 171 39 85 q 42 222 39 204 l 75 492 q 144 665 89 604 q 292 725 200 725 q 353 713 322 725 q 406 671 383 701 q 411 669 408 668 q 414 674 414 669 l 449 956 m 288 157 q 331 174 311 157 q 358 218 351 190 l 392 496 q 376 540 392 524 q 336 557 361 557 q 288 535 308 557 q 264 478 268 513 l 233 236 q 244 179 229 201 q 288 157 260 157 z "},"đ":{"ha":600,"x_min":39,"x_max":685,"o":"m 669 889 q 681 884 676 889 q 683 872 685 879 l 674 788 q 667 776 672 781 q 656 771 663 771 l 622 771 q 615 764 615 771 l 524 17 q 517 5 522 10 q 506 0 513 0 l 347 0 q 336 5 340 0 q 333 17 332 10 l 336 39 q 335 44 338 43 q 328 42 332 44 q 201 -11 276 -11 q 79 37 119 -11 q 39 171 39 85 q 42 222 39 204 l 75 492 q 144 665 89 604 q 292 725 200 725 q 353 713 322 725 q 406 671 383 701 q 411 669 408 668 q 414 674 414 669 l 425 764 q 419 771 428 771 l 303 771 q 291 776 296 771 q 288 788 286 781 l 299 872 q 305 884 300 879 q 317 889 310 889 l 433 889 q 442 896 439 889 l 449 956 q 455 967 450 963 q 467 972 460 972 l 625 972 q 636 967 632 972 q 639 956 640 963 l 632 896 q 638 889 629 889 l 669 889 m 288 157 q 331 174 311 157 q 358 218 351 190 l 392 496 q 376 540 392 524 q 336 557 361 557 q 288 535 308 557 q 264 478 268 513 l 233 236 q 244 179 229 201 q 288 157 260 157 z "},"e":{"ha":588,"x_min":39,"x_max":588,"o":"m 563 313 q 556 301 561 306 q 544 296 551 296 l 247 296 q 242 294 244 296 q 240 289 240 292 l 233 238 q 245 180 229 203 q 289 157 261 157 q 333 174 314 157 q 360 218 351 192 q 379 232 365 232 l 533 224 q 544 219 540 224 q 546 206 547 214 q 454 44 524 99 q 268 -11 385 -11 q 99 40 158 -11 q 39 185 39 92 q 42 222 39 197 l 75 492 q 164 661 88 597 q 358 725 240 725 q 527 672 467 725 q 588 526 588 618 q 585 492 588 517 l 563 313 m 338 557 q 289 535 310 557 q 264 478 268 513 l 257 424 q 263 417 257 417 l 379 417 q 384 419 382 417 q 386 424 386 421 l 393 478 q 381 535 397 513 q 338 557 365 557 z "},"é":{"ha":588,"x_min":39,"x_max":588,"o":"m 563 313 q 556 301 561 306 q 544 296 551 296 l 247 296 q 242 294 244 296 q 240 289 240 292 l 233 238 q 245 180 229 203 q 289 157 261 157 q 333 174 314 157 q 360 218 351 192 q 379 232 365 232 l 533 224 q 544 219 540 224 q 546 206 547 214 q 454 44 524 99 q 268 -11 385 -11 q 99 40 158 -11 q 39 185 39 92 q 42 222 39 197 l 75 492 q 164 661 88 597 q 358 725 240 725 q 527 672 467 725 q 588 526 588 618 q 585 492 588 517 l 563 313 m 338 557 q 289 535 310 557 q 264 478 268 513 l 257 424 q 263 417 257 417 l 379 417 q 384 419 382 417 q 386 424 386 421 l 393 478 q 381 535 397 513 q 338 557 365 557 m 293 800 q 279 808 279 800 q 283 819 279 814 l 379 961 q 401 972 386 972 l 526 972 q 539 964 539 972 q 533 951 539 957 l 413 810 q 392 800 403 800 l 293 800 z "},"ě":{"ha":588,"x_min":39,"x_max":588,"o":"m 563 313 q 556 301 561 306 q 544 296 551 296 l 247 296 q 242 294 244 296 q 240 289 240 292 l 233 238 q 245 180 229 203 q 289 157 261 157 q 333 174 314 157 q 360 218 351 192 q 379 232 365 232 l 533 224 q 544 219 540 224 q 546 206 547 214 q 454 44 524 99 q 268 -11 385 -11 q 99 40 158 -11 q 39 185 39 92 q 42 222 39 197 l 75 492 q 164 661 88 597 q 358 725 240 725 q 527 672 467 725 q 588 526 588 618 q 585 492 588 517 l 563 313 m 338 557 q 289 535 310 557 q 264 478 268 513 l 257 424 q 263 417 257 417 l 379 417 q 384 419 382 417 q 386 424 386 421 l 393 478 q 381 535 397 513 q 338 557 365 557 z "},"ȩ":{"ha":588,"x_min":39,"x_max":588,"o":"m 563 313 q 556 301 561 306 q 544 296 551 296 l 247 296 q 242 294 244 296 q 240 289 240 292 l 233 238 q 245 180 229 203 q 289 157 261 157 q 333 174 314 157 q 360 218 351 192 q 379 232 365 232 l 533 224 q 544 219 540 224 q 546 206 547 214 q 346 -4 510 29 q 342 -12 338 -7 q 369 -103 369 -57 q 358 -160 369 -131 q 308 -226 342 -207 q 233 -246 275 -246 q 171 -236 197 -246 q 162 -230 164 -235 q 163 -217 160 -225 l 178 -153 q 199 -140 182 -137 q 228 -134 214 -143 q 247 -106 242 -125 q 250 -86 250 -94 q 217 -11 250 -51 q 210 -7 215 -7 q 83 56 128 6 q 39 186 39 106 q 42 222 39 197 l 75 492 q 164 661 88 597 q 358 725 240 725 q 527 672 467 725 q 588 526 588 618 q 585 492 588 517 l 563 313 m 338 557 q 289 535 310 557 q 264 478 268 513 l 257 424 q 263 417 257 417 l 379 417 q 384 419 382 417 q 386 424 386 421 l 393 478 q 381 535 397 513 q 338 557 365 557 z "},"ê":{"ha":588,"x_min":39,"x_max":588,"o":"m 563 313 q 556 301 561 306 q 544 296 551 296 l 247 296 q 242 294 244 296 q 240 289 240 292 l 233 238 q 245 180 229 203 q 289 157 261 157 q 333 174 314 157 q 360 218 351 192 q 379 232 365 232 l 533 224 q 544 219 540 224 q 546 206 547 214 q 454 44 524 99 q 268 -11 385 -11 q 99 40 158 -11 q 39 185 39 92 q 42 222 39 197 l 75 492 q 164 661 88 597 q 358 725 240 725 q 527 672 467 725 q 588 526 588 618 q 585 492 588 517 l 563 313 m 338 557 q 289 535 310 557 q 264 478 268 513 l 257 424 q 263 417 257 417 l 379 417 q 384 419 382 417 q 386 424 386 421 l 393 478 q 381 535 397 513 q 338 557 365 557 m 182 797 q 169 806 169 797 q 174 817 169 811 l 276 961 q 297 972 283 972 l 471 972 q 488 961 483 972 l 560 817 q 561 810 561 814 q 546 797 561 797 l 428 797 q 410 810 414 797 l 379 888 q 371 888 375 894 l 321 810 q 312 801 318 804 q 300 797 306 797 l 182 797 z "},"ế":{"ha":588,"x_min":39,"x_max":821,"o":"m 563 313 q 556 301 561 306 q 544 296 551 296 l 247 296 q 242 294 244 296 q 240 289 240 292 l 233 238 q 245 180 229 203 q 289 157 261 157 q 333 174 314 157 q 360 218 351 192 q 379 232 365 232 l 533 224 q 544 219 540 224 q 546 206 547 214 q 454 44 524 99 q 268 -11 385 -11 q 99 40 158 -11 q 39 185 39 92 q 42 222 39 197 l 75 492 q 164 661 88 597 q 358 725 240 725 q 527 672 467 725 q 588 526 588 618 q 585 492 588 517 l 563 313 m 338 557 q 289 535 310 557 q 264 478 268 513 l 257 424 q 263 417 257 417 l 379 417 q 384 419 382 417 q 386 424 386 421 l 393 478 q 381 535 397 513 q 338 557 365 557 z "},"ệ":{"ha":588,"x_min":39,"x_max":588,"o":"m 563 313 q 556 301 561 306 q 544 296 551 296 l 247 296 q 242 294 244 296 q 240 289 240 292 l 233 238 q 245 180 229 203 q 289 157 261 157 q 333 174 314 157 q 360 218 351 192 q 379 232 365 232 l 533 224 q 544 219 540 224 q 546 206 547 214 q 454 44 524 99 q 268 -11 385 -11 q 99 40 158 -11 q 39 185 39 92 q 42 222 39 197 l 75 492 q 164 661 88 597 q 358 725 240 725 q 527 672 467 725 q 588 526 588 618 q 585 492 588 517 l 563 313 m 338 557 q 289 535 310 557 q 264 478 268 513 l 257 424 q 263 417 257 417 l 379 417 q 384 419 382 417 q 386 424 386 421 l 393 478 q 381 535 397 513 q 338 557 365 557 m 226 -333 q 161 -308 186 -333 q 136 -243 136 -283 q 169 -158 136 -192 q 251 -125 203 -125 q 316 -149 292 -125 q 340 -211 340 -172 q 307 -298 340 -262 q 226 -333 274 -333 m 182 797 q 169 806 169 797 q 174 817 169 811 l 276 961 q 297 972 283 972 l 471 972 q 488 961 483 972 l 560 817 q 561 810 561 814 q 546 797 561 797 l 428 797 q 410 810 414 797 l 379 888 q 371 888 375 894 l 321 810 q 312 801 318 804 q 300 797 306 797 l 182 797 z "},"ề":{"ha":588,"x_min":39,"x_max":671,"o":"m 563 313 q 556 301 561 306 q 544 296 551 296 l 247 296 q 242 294 244 296 q 240 289 240 292 l 233 238 q 245 180 229 203 q 289 157 261 157 q 333 174 314 157 q 360 218 351 192 q 379 232 365 232 l 533 224 q 544 219 540 224 q 546 206 547 214 q 454 44 524 99 q 268 -11 385 -11 q 99 40 158 -11 q 39 185 39 92 q 42 222 39 197 l 75 492 q 164 661 88 597 q 358 725 240 725 q 527 672 467 725 q 588 526 588 618 q 585 492 588 517 l 563 313 m 338 557 q 289 535 310 557 q 264 478 268 513 l 257 424 q 263 417 257 417 l 379 417 q 384 419 382 417 q 386 424 386 421 l 393 478 q 381 535 397 513 q 338 557 365 557 z "},"ể":{"ha":588,"x_min":39,"x_max":735,"o":"m 563 313 q 556 301 561 306 q 544 296 551 296 l 247 296 q 242 294 244 296 q 240 289 240 292 l 233 238 q 245 180 229 203 q 289 157 261 157 q 333 174 314 157 q 360 218 351 192 q 379 232 365 232 l 533 224 q 544 219 540 224 q 546 206 547 214 q 454 44 524 99 q 268 -11 385 -11 q 99 40 158 -11 q 39 185 39 92 q 42 222 39 197 l 75 492 q 164 661 88 597 q 358 725 240 725 q 527 672 467 725 q 588 526 588 618 q 585 492 588 517 l 563 313 m 338 557 q 289 535 310 557 q 264 478 268 513 l 257 424 q 263 417 257 417 l 379 417 q 384 419 382 417 q 386 424 386 421 l 393 478 q 381 535 397 513 q 338 557 365 557 m 571 940 q 560 947 563 942 q 561 961 557 953 q 591 1007 575 990 q 610 1026 607 1024 q 632 1051 625 1040 q 642 1078 639 1061 q 633 1101 643 1092 q 608 1110 624 1110 q 581 1101 593 1110 q 547 1071 568 1093 q 524 1067 536 1057 l 486 1099 q 481 1110 481 1103 q 486 1122 481 1117 q 549 1180 518 1163 q 625 1197 581 1197 q 706 1171 676 1197 q 735 1097 735 1144 q 720 1036 735 1060 q 675 982 706 1013 q 638 942 647 957 q 617 932 629 929 l 571 940 m 182 797 q 169 806 169 797 q 174 817 169 811 l 276 961 q 297 972 283 972 l 471 972 q 488 961 483 972 l 560 817 q 561 810 561 814 q 546 797 561 797 l 428 797 q 410 810 414 797 l 379 888 q 371 888 375 894 l 321 810 q 312 801 318 804 q 300 797 306 797 l 182 797 z "},"ễ":{"ha":588,"x_min":39,"x_max":600,"o":"m 563 313 q 556 301 561 306 q 544 296 551 296 l 247 296 q 242 294 244 296 q 240 289 240 292 l 233 238 q 245 180 229 203 q 289 157 261 157 q 333 174 314 157 q 360 218 351 192 q 379 232 365 232 l 533 224 q 544 219 540 224 q 546 206 547 214 q 454 44 524 99 q 268 -11 385 -11 q 99 40 158 -11 q 39 185 39 92 q 42 222 39 197 l 75 492 q 164 661 88 597 q 358 725 240 725 q 527 672 467 725 q 588 526 588 618 q 585 492 588 517 l 563 313 m 338 557 q 289 535 310 557 q 264 478 268 513 l 257 424 q 263 417 257 417 l 379 417 q 384 419 382 417 q 386 424 386 421 l 393 478 q 381 535 397 513 q 338 557 365 557 z "},"ë":{"ha":588,"x_min":39,"x_max":610,"o":"m 563 313 q 556 301 561 306 q 544 296 551 296 l 247 296 q 242 294 244 296 q 240 289 240 292 l 233 238 q 245 180 229 203 q 289 157 261 157 q 333 174 314 157 q 360 218 351 192 q 379 232 365 232 l 533 224 q 544 219 540 224 q 546 206 547 214 q 454 44 524 99 q 268 -11 385 -11 q 99 40 158 -11 q 39 185 39 92 q 42 222 39 197 l 75 492 q 164 661 88 597 q 358 725 240 725 q 527 672 467 725 q 588 526 588 618 q 585 492 588 517 l 563 313 m 338 557 q 289 535 310 557 q 264 478 268 513 l 257 424 q 263 417 257 417 l 379 417 q 384 419 382 417 q 386 424 386 421 l 393 478 q 381 535 397 513 q 338 557 365 557 z "},"ė":{"ha":588,"x_min":39,"x_max":588,"o":"m 563 313 q 556 301 561 306 q 544 296 551 296 l 247 296 q 242 294 244 296 q 240 289 240 292 l 233 238 q 245 180 229 203 q 289 157 261 157 q 333 174 314 157 q 360 218 351 192 q 379 232 365 232 l 533 224 q 544 219 540 224 q 546 206 547 214 q 454 44 524 99 q 268 -11 385 -11 q 99 40 158 -11 q 39 185 39 92 q 42 222 39 197 l 75 492 q 164 661 88 597 q 358 725 240 725 q 527 672 467 725 q 588 526 588 618 q 585 492 588 517 l 563 313 m 338 557 q 289 535 310 557 q 264 478 268 513 l 257 424 q 263 417 257 417 l 379 417 q 384 419 382 417 q 386 424 386 421 l 393 478 q 381 535 397 513 q 338 557 365 557 m 364 794 q 296 822 322 794 q 269 890 269 849 q 305 978 269 943 q 392 1014 340 1014 q 460 988 435 1014 q 486 919 486 963 q 450 831 486 867 q 364 794 414 794 z "},"ẹ":{"ha":588,"x_min":39,"x_max":588,"o":"m 563 313 q 556 301 561 306 q 544 296 551 296 l 247 296 q 242 294 244 296 q 240 289 240 292 l 233 238 q 245 180 229 203 q 289 157 261 157 q 333 174 314 157 q 360 218 351 192 q 379 232 365 232 l 533 224 q 544 219 540 224 q 546 206 547 214 q 454 44 524 99 q 268 -11 385 -11 q 99 40 158 -11 q 39 185 39 92 q 42 222 39 197 l 75 492 q 164 661 88 597 q 358 725 240 725 q 527 672 467 725 q 588 526 588 618 q 585 492 588 517 l 563 313 m 338 557 q 289 535 310 557 q 264 478 268 513 l 257 424 q 263 417 257 417 l 379 417 q 384 419 382 417 q 386 424 386 421 l 393 478 q 381 535 397 513 q 338 557 365 557 m 226 -333 q 161 -308 186 -333 q 136 -243 136 -283 q 169 -158 136 -192 q 251 -125 203 -125 q 316 -149 292 -125 q 340 -211 340 -172 q 307 -298 340 -262 q 226 -333 274 -333 z "},"è":{"ha":588,"x_min":39,"x_max":588,"o":"m 563 313 q 556 301 561 306 q 544 296 551 296 l 247 296 q 242 294 244 296 q 240 289 240 292 l 233 238 q 245 180 229 203 q 289 157 261 157 q 333 174 314 157 q 360 218 351 192 q 379 232 365 232 l 533 224 q 544 219 540 224 q 546 206 547 214 q 454 44 524 99 q 268 -11 385 -11 q 99 40 158 -11 q 39 185 39 92 q 42 222 39 197 l 75 492 q 164 661 88 597 q 358 725 240 725 q 527 672 467 725 q 588 526 588 618 q 585 492 588 517 l 563 313 m 338 557 q 289 535 310 557 q 264 478 268 513 l 257 424 q 263 417 257 417 l 379 417 q 384 419 382 417 q 386 424 386 421 l 393 478 q 381 535 397 513 q 338 557 365 557 m 426 819 q 428 811 428 817 q 413 800 428 800 l 311 800 q 293 810 301 800 l 208 951 q 206 961 206 957 q 210 969 206 965 q 221 972 214 972 l 346 972 q 364 961 358 972 l 426 819 z "},"ẻ":{"ha":588,"x_min":39,"x_max":588,"o":"m 563 313 q 556 301 561 306 q 544 296 551 296 l 247 296 q 242 294 244 296 q 240 289 240 292 l 233 238 q 245 180 229 203 q 289 157 261 157 q 333 174 314 157 q 360 218 351 192 q 379 232 365 232 l 533 224 q 544 219 540 224 q 546 206 547 214 q 454 44 524 99 q 268 -11 385 -11 q 99 40 158 -11 q 39 185 39 92 q 42 222 39 197 l 75 492 q 164 661 88 597 q 358 725 240 725 q 527 672 467 725 q 588 526 588 618 q 585 492 588 517 l 563 313 m 338 557 q 289 535 310 557 q 264 478 268 513 l 257 424 q 263 417 257 417 l 379 417 q 384 419 382 417 q 386 424 386 421 l 393 478 q 381 535 397 513 q 338 557 365 557 m 346 772 q 336 793 328 776 q 389 864 354 829 q 412 890 404 879 q 421 919 419 901 q 413 943 422 933 q 388 953 403 953 q 356 944 369 953 q 321 911 342 935 q 308 903 315 904 q 296 907 301 901 l 254 942 q 249 953 249 946 q 254 965 249 960 q 323 1028 290 1010 q 403 1047 356 1047 q 491 1019 460 1047 q 522 940 522 990 q 506 874 522 899 q 457 817 490 849 q 417 772 425 785 q 396 763 407 761 l 346 772 z "},"ē":{"ha":588,"x_min":39,"x_max":588,"o":"m 563 313 q 556 301 561 306 q 544 296 551 296 l 247 296 q 242 294 244 296 q 240 289 240 292 l 233 238 q 245 180 229 203 q 289 157 261 157 q 333 174 314 157 q 360 218 351 192 q 379 232 365 232 l 533 224 q 544 219 540 224 q 546 206 547 214 q 454 44 524 99 q 268 -11 385 -11 q 99 40 158 -11 q 39 185 39 92 q 42 222 39 197 l 75 492 q 164 661 88 597 q 358 725 240 725 q 527 672 467 725 q 588 526 588 618 q 585 492 588 517 l 563 313 m 338 557 q 289 535 310 557 q 264 478 268 513 l 257 424 q 263 417 257 417 l 379 417 q 384 419 382 417 q 386 424 386 421 l 393 478 q 381 535 397 513 q 338 557 365 557 m 232 824 q 221 828 225 824 q 218 840 217 833 l 231 940 q 237 952 232 947 q 249 957 242 957 l 513 957 q 524 952 519 957 q 526 940 528 947 l 514 840 q 508 828 513 833 q 496 824 503 824 l 232 824 z "},"ę":{"ha":588,"x_min":39,"x_max":588,"o":"m 563 313 q 556 301 561 306 q 544 296 551 296 l 247 296 q 242 294 244 296 q 240 289 240 292 l 233 238 q 245 180 229 203 q 289 157 261 157 q 333 174 314 157 q 360 218 351 192 q 379 232 365 232 l 533 224 q 544 219 540 224 q 546 206 547 214 q 472 58 526 113 q 326 -8 417 4 q 318 -11 324 -8 q 260 -110 260 -67 q 272 -140 260 -131 q 300 -147 283 -150 l 304 -147 q 317 -160 317 -147 l 318 -224 q 304 -243 318 -239 q 239 -253 275 -253 q 133 -149 133 -253 q 194 -12 133 -78 q 193 -4 200 -7 q 78 61 118 13 q 39 186 39 110 q 42 222 39 197 l 75 492 q 164 661 88 597 q 358 725 240 725 q 527 672 467 725 q 588 526 588 618 q 585 492 588 517 l 563 313 m 338 557 q 289 535 310 557 q 264 478 268 513 l 257 424 q 263 417 257 417 l 379 417 q 384 419 382 417 q 386 424 386 421 l 393 478 q 381 535 397 513 q 338 557 365 557 z "},"ẽ":{"ha":588,"x_min":39,"x_max":597,"o":"m 563 313 q 556 301 561 306 q 544 296 551 296 l 247 296 q 242 294 244 296 q 240 289 240 292 l 233 238 q 245 180 229 203 q 289 157 261 157 q 333 174 314 157 q 360 218 351 192 q 379 232 365 232 l 533 224 q 544 219 540 224 q 546 206 547 214 q 454 44 524 99 q 268 -11 385 -11 q 99 40 158 -11 q 39 185 39 92 q 42 222 39 197 l 75 492 q 164 661 88 597 q 358 725 240 725 q 527 672 467 725 q 588 526 588 618 q 585 492 588 517 l 563 313 m 338 557 q 289 535 310 557 q 264 478 268 513 l 257 424 q 263 417 257 417 l 379 417 q 384 419 382 417 q 386 424 386 421 l 393 478 q 381 535 397 513 q 338 557 365 557 m 457 814 q 386 839 426 814 q 360 854 375 844 q 333 864 346 864 q 281 833 303 864 q 257 828 271 819 l 206 869 q 203 892 197 878 q 260 963 226 939 q 332 988 294 988 q 414 956 375 988 q 427 946 418 953 q 446 935 436 939 q 467 931 456 931 q 518 958 497 931 q 542 965 531 975 l 592 926 q 597 915 597 921 q 589 894 597 907 q 525 833 561 853 q 457 814 489 814 z "},"ə":{"ha":588,"x_min":33,"x_max":582,"o":"m 353 725 q 522 674 463 725 q 582 529 582 622 q 579 492 582 517 l 546 222 q 458 53 533 117 q 263 -11 382 -11 q 94 43 154 -11 q 33 188 33 97 q 36 222 33 200 l 58 401 q 65 413 60 408 q 76 418 69 418 l 374 418 q 381 425 381 418 l 388 478 q 376 535 392 514 q 332 557 361 557 q 288 540 307 557 q 261 496 269 522 q 243 482 257 481 l 89 492 q 75 508 72 493 q 167 670 97 615 q 353 725 236 725 m 283 157 q 333 179 313 157 q 358 238 354 201 l 364 290 q 358 297 367 297 l 243 297 q 235 290 238 297 l 229 238 q 228 221 228 232 q 243 175 228 193 q 283 157 258 157 z "},"ʒ":{"ha":560,"x_min":-7,"x_max":546,"o":"m 325 360 q 322 355 321 358 q 325 350 322 351 q 460 256 413 324 q 508 97 508 189 q 506 51 508 82 q 442 -118 494 -43 q 307 -235 389 -193 q 131 -276 225 -276 q 6 -256 68 -276 q -7 -237 -7 -251 l 15 -99 q 35 -86 18 -79 q 124 -103 78 -103 q 251 -62 196 -103 q 318 67 307 -22 q 319 94 319 76 q 290 190 319 153 q 204 228 261 228 q 128 213 168 228 l 121 211 q 107 222 111 211 l 75 324 l 74 331 q 83 346 74 336 l 293 528 q 295 533 296 531 q 290 536 294 536 l 97 536 q 86 541 90 536 q 83 553 82 546 l 100 697 q 106 709 101 704 q 118 714 111 714 l 531 714 q 542 709 538 714 q 544 697 546 704 l 526 549 q 517 528 526 538 l 325 360 z "},"ǯ":{"ha":560,"x_min":-7,"x_max":557,"o":"m 325 360 q 322 355 321 358 q 325 350 322 351 q 460 256 413 324 q 508 97 508 189 q 506 51 508 82 q 442 -118 494 -43 q 307 -235 389 -193 q 131 -276 225 -276 q 6 -256 68 -276 q -7 -237 -7 -251 l 15 -99 q 35 -86 18 -79 q 124 -103 78 -103 q 251 -62 196 -103 q 318 67 307 -22 q 319 94 319 76 q 290 190 319 153 q 204 228 261 228 q 128 213 168 228 l 121 211 q 107 222 111 211 l 75 324 l 74 331 q 83 346 74 336 l 293 528 q 295 533 296 531 q 290 536 294 536 l 97 536 q 86 541 90 536 q 83 553 82 546 l 100 697 q 106 709 101 704 q 118 714 111 714 l 531 714 q 542 709 538 714 q 544 697 546 704 l 526 549 q 517 528 526 538 l 325 360 z "},"f":{"ha":401,"x_min":61,"x_max":457,"o":"m 418 714 q 429 709 425 714 q 432 697 433 704 l 419 593 q 413 581 418 586 q 401 576 408 576 l 326 576 q 319 569 319 576 l 251 17 q 245 5 250 10 q 233 0 240 0 l 76 0 q 65 5 69 0 q 63 17 61 10 l 131 569 q 125 576 131 576 l 85 576 q 69 593 69 576 l 83 697 q 90 709 85 704 q 101 714 94 714 l 142 714 q 149 721 149 714 l 154 758 q 237 931 169 883 q 436 976 304 979 l 442 976 q 453 972 449 976 q 456 960 457 967 l 442 849 q 435 837 440 842 q 422 832 429 832 l 419 832 q 340 746 351 831 l 338 721 q 343 714 338 714 l 418 714 z "},"g":{"ha":594,"x_min":39,"x_max":610,"o":"m 418 697 q 424 709 419 704 q 436 714 429 714 l 594 714 q 606 709 601 714 q 608 697 610 704 l 526 33 q 428 -204 508 -121 q 164 -287 347 -287 q 107 -286 126 -287 q 93 -268 90 -285 l 110 -132 q 128 -117 113 -114 q 251 -101 207 -119 q 313 -44 294 -82 q 339 54 332 -7 q 338 58 340 58 q 332 54 335 58 q 267 8 303 21 q 199 -6 231 -6 q 78 41 118 -6 q 39 172 39 88 q 43 228 39 199 l 75 492 q 143 665 89 604 q 289 725 197 725 q 406 663 372 725 q 411 660 408 658 q 414 665 414 661 l 418 697 m 289 164 q 338 186 317 164 q 363 243 358 208 l 392 478 q 380 535 396 513 q 336 557 364 557 q 288 535 308 557 q 264 478 268 513 l 235 243 q 245 185 231 207 q 289 164 260 164 z "},"ğ":{"ha":594,"x_min":39,"x_max":610,"o":"m 418 697 q 424 709 419 704 q 436 714 429 714 l 594 714 q 606 709 601 714 q 608 697 610 704 l 526 33 q 428 -204 508 -121 q 164 -287 347 -287 q 107 -286 126 -287 q 93 -268 90 -285 l 110 -132 q 128 -117 113 -114 q 251 -101 207 -119 q 313 -44 294 -82 q 339 54 332 -7 q 338 58 340 58 q 332 54 335 58 q 267 8 303 21 q 199 -6 231 -6 q 78 41 118 -6 q 39 172 39 88 q 43 228 39 199 l 75 492 q 143 665 89 604 q 289 725 197 725 q 406 663 372 725 q 411 660 408 658 q 414 665 414 661 l 418 697 m 289 164 q 338 186 317 164 q 363 243 358 208 l 392 478 q 380 535 396 513 q 336 557 364 557 q 288 535 308 557 q 264 478 268 513 l 235 243 q 245 185 231 207 q 289 164 260 164 m 365 763 q 259 803 297 763 q 224 910 221 843 q 240 926 224 926 l 307 926 q 322 910 322 926 q 338 865 324 882 q 376 849 353 849 q 419 865 400 849 q 446 910 439 882 q 465 926 450 926 l 532 926 q 546 910 549 926 q 483 803 532 843 q 365 763 433 763 z "},"ǧ":{"ha":594,"x_min":39,"x_max":610,"o":"m 418 697 q 424 709 419 704 q 436 714 429 714 l 594 714 q 606 709 601 714 q 608 697 610 704 l 526 33 q 428 -204 508 -121 q 164 -287 347 -287 q 107 -286 126 -287 q 93 -268 90 -285 l 110 -132 q 128 -117 113 -114 q 251 -101 207 -119 q 313 -44 294 -82 q 339 54 332 -7 q 338 58 340 58 q 332 54 335 58 q 267 8 303 21 q 199 -6 231 -6 q 78 41 118 -6 q 39 172 39 88 q 43 228 39 199 l 75 492 q 143 665 89 604 q 289 725 197 725 q 406 663 372 725 q 411 660 408 658 q 414 665 414 661 l 418 697 m 289 164 q 338 186 317 164 q 363 243 358 208 l 392 478 q 380 535 396 513 q 336 557 364 557 q 288 535 308 557 q 264 478 268 513 l 235 243 q 245 185 231 207 q 289 164 260 164 z "},"ĝ":{"ha":594,"x_min":39,"x_max":610,"o":"m 418 697 q 424 709 419 704 q 436 714 429 714 l 594 714 q 606 709 601 714 q 608 697 610 704 l 526 33 q 428 -204 508 -121 q 164 -287 347 -287 q 107 -286 126 -287 q 93 -268 90 -285 l 110 -132 q 128 -117 113 -114 q 251 -101 207 -119 q 313 -44 294 -82 q 339 54 332 -7 q 338 58 340 58 q 332 54 335 58 q 267 8 303 21 q 199 -6 231 -6 q 78 41 118 -6 q 39 172 39 88 q 43 228 39 199 l 75 492 q 143 665 89 604 q 289 725 197 725 q 406 663 372 725 q 411 660 408 658 q 414 665 414 661 l 418 697 m 289 164 q 338 186 317 164 q 363 243 358 208 l 392 478 q 380 535 396 513 q 336 557 364 557 q 288 535 308 557 q 264 478 268 513 l 235 243 q 245 185 231 207 q 289 164 260 164 m 186 797 q 174 806 174 797 q 178 817 174 811 l 281 961 q 301 972 288 972 l 475 972 q 492 961 488 972 l 564 817 q 565 810 565 814 q 550 797 565 797 l 432 797 q 414 810 418 797 l 383 888 q 375 888 379 894 l 325 810 q 316 801 322 804 q 304 797 310 797 l 186 797 z "},"ġ":{"ha":594,"x_min":39,"x_max":610,"o":"m 418 697 q 424 709 419 704 q 436 714 429 714 l 594 714 q 606 709 601 714 q 608 697 610 704 l 526 33 q 428 -204 508 -121 q 164 -287 347 -287 q 107 -286 126 -287 q 93 -268 90 -285 l 110 -132 q 128 -117 113 -114 q 251 -101 207 -119 q 313 -44 294 -82 q 339 54 332 -7 q 338 58 340 58 q 332 54 335 58 q 267 8 303 21 q 199 -6 231 -6 q 78 41 118 -6 q 39 172 39 88 q 43 228 39 199 l 75 492 q 143 665 89 604 q 289 725 197 725 q 406 663 372 725 q 411 660 408 658 q 414 665 414 661 l 418 697 m 289 164 q 338 186 317 164 q 363 243 358 208 l 392 478 q 380 535 396 513 q 336 557 364 557 q 288 535 308 557 q 264 478 268 513 l 235 243 q 245 185 231 207 q 289 164 260 164 m 369 794 q 301 822 328 794 q 275 890 275 849 q 310 978 275 943 q 397 1014 346 1014 q 466 988 440 1014 q 492 919 492 963 q 456 831 492 867 q 369 794 419 794 z "},"ǥ":{"ha":611,"x_min":39,"x_max":624,"o":"m 608 417 q 624 400 624 417 l 613 315 q 606 303 611 308 q 594 299 601 299 l 567 299 q 558 292 561 299 l 526 33 q 428 -204 508 -121 q 164 -287 347 -287 q 107 -286 126 -287 q 93 -268 90 -285 l 110 -132 q 128 -117 113 -114 q 251 -101 207 -119 q 313 -44 294 -82 q 339 54 332 -7 q 338 58 340 58 q 332 54 335 58 q 267 8 303 21 q 199 -6 231 -6 q 78 41 118 -6 q 39 172 39 88 q 43 228 39 199 l 75 492 q 143 665 89 604 q 289 725 197 725 q 406 663 372 725 q 411 660 408 658 q 414 665 414 661 l 418 697 q 424 709 419 704 q 436 714 429 714 l 594 714 q 606 709 601 714 q 608 697 610 704 l 575 424 q 581 417 572 417 l 608 417 m 289 164 q 338 186 317 164 q 363 243 358 208 l 368 292 q 363 299 371 299 l 314 299 q 303 303 307 299 q 300 315 299 308 l 311 400 q 317 412 311 407 q 329 417 322 417 l 378 417 q 383 419 381 417 q 385 424 385 421 l 392 478 q 380 535 396 513 q 336 557 364 557 q 288 535 308 557 q 264 478 268 513 l 235 243 q 245 185 231 207 q 289 164 260 164 z "},"h":{"ha":601,"x_min":25,"x_max":593,"o":"m 435 725 q 553 678 514 725 q 593 544 593 632 q 589 488 593 517 l 532 17 q 526 5 531 10 q 514 0 521 0 l 356 0 q 344 5 349 0 q 342 17 340 10 l 397 472 q 399 493 399 479 q 347 557 399 557 q 297 534 317 557 q 272 469 278 511 l 217 17 q 210 5 215 10 q 199 0 206 0 l 40 0 q 29 5 33 0 q 26 17 25 10 l 142 956 q 148 967 143 963 q 160 972 153 972 l 318 972 q 329 967 325 972 q 332 956 333 963 l 297 671 l 297 669 q 301 667 297 667 q 308 672 304 668 q 435 725 360 725 z "},"ħ":{"ha":601,"x_min":25,"x_max":593,"o":"m 435 725 q 553 678 514 725 q 593 544 593 632 q 589 488 593 517 l 532 17 q 526 5 531 10 q 514 0 521 0 l 356 0 q 344 5 349 0 q 342 17 340 10 l 397 472 q 399 493 399 479 q 347 557 399 557 q 297 534 317 557 q 272 469 278 511 l 217 17 q 210 5 215 10 q 199 0 206 0 l 40 0 q 29 5 33 0 q 26 17 25 10 l 117 756 q 111 763 119 763 l 71 763 q 60 767 64 763 q 57 779 56 772 l 67 864 q 73 876 68 871 q 85 881 78 881 l 125 881 q 133 888 133 881 l 142 956 q 148 967 143 963 q 160 972 153 972 l 318 972 q 329 967 325 972 q 332 956 333 963 l 324 888 q 329 881 321 881 l 438 881 q 449 876 444 881 q 451 864 453 871 l 440 779 q 434 767 439 772 q 422 763 429 763 l 314 763 q 309 760 311 763 q 307 756 307 758 l 297 671 l 297 669 q 301 667 297 667 q 308 672 304 668 q 435 725 360 725 z "},"ȟ":{"ha":601,"x_min":25,"x_max":629,"o":"m 435 725 q 553 678 514 725 q 593 544 593 632 q 589 488 593 517 l 532 17 q 526 5 531 10 q 514 0 521 0 l 356 0 q 344 5 349 0 q 342 17 340 10 l 397 472 q 399 493 399 479 q 347 557 399 557 q 297 534 317 557 q 272 469 278 511 l 217 17 q 210 5 215 10 q 199 0 206 0 l 40 0 q 29 5 33 0 q 26 17 25 10 l 142 956 q 148 967 143 963 q 160 972 153 972 l 318 972 q 329 967 325 972 q 332 956 333 963 l 297 671 l 297 669 q 301 667 297 667 q 308 672 304 668 q 435 725 360 725 z "},"ĥ":{"ha":601,"x_min":25,"x_max":617,"o":"m 435 725 q 553 678 514 725 q 593 544 593 632 q 589 488 593 517 l 532 17 q 526 5 531 10 q 514 0 521 0 l 356 0 q 344 5 349 0 q 342 17 340 10 l 397 472 q 399 493 399 479 q 347 557 399 557 q 297 534 317 557 q 272 469 278 511 l 217 17 q 210 5 215 10 q 199 0 206 0 l 40 0 q 29 5 33 0 q 26 17 25 10 l 142 956 q 148 967 143 963 q 160 972 153 972 l 318 972 q 329 967 325 972 q 332 956 333 963 l 297 671 l 297 669 q 301 667 297 667 q 308 672 304 668 q 435 725 360 725 m 238 1042 q 225 1050 225 1042 q 229 1061 225 1056 l 332 1206 q 353 1217 339 1217 l 526 1217 q 543 1206 539 1217 l 615 1061 q 617 1054 617 1058 q 601 1042 617 1042 l 483 1042 q 465 1054 469 1042 l 435 1132 q 426 1132 431 1139 l 376 1054 q 367 1045 374 1049 q 356 1042 361 1042 l 238 1042 z "},"i":{"ha":294,"x_min":28,"x_max":338,"o":"m 218 794 q 150 821 176 794 q 124 888 124 847 q 158 978 124 943 q 244 1014 193 1014 q 313 989 288 1014 q 338 922 338 964 q 302 832 338 869 q 218 794 267 794 m 43 0 q 32 5 36 0 q 29 17 28 10 l 113 697 q 119 709 114 704 q 131 714 124 714 l 289 714 q 300 709 296 714 q 303 697 304 704 l 219 17 q 213 5 218 10 q 201 0 208 0 l 43 0 z "},"ı":{"ha":256,"x_min":6,"x_max":282,"o":"m 22 0 q 10 5 15 0 q 7 17 6 10 l 92 697 q 97 709 92 704 q 110 714 103 714 l 267 714 q 278 709 274 714 q 281 697 282 704 l 197 17 q 191 5 196 10 q 179 0 186 0 l 22 0 z "},"í":{"ha":256,"x_min":6,"x_max":372,"o":"m 22 0 q 10 5 15 0 q 7 17 6 10 l 92 697 q 97 709 92 704 q 110 714 103 714 l 267 714 q 278 709 274 714 q 281 697 282 704 l 197 17 q 191 5 196 10 q 179 0 186 0 l 22 0 m 126 800 q 113 808 113 800 q 117 819 113 814 l 213 961 q 235 972 219 972 l 360 972 q 372 964 372 972 q 367 951 372 957 l 246 810 q 225 800 236 800 l 126 800 z "},"ĭ":{"ha":256,"x_min":6,"x_max":381,"o":"m 22 0 q 10 5 15 0 q 7 17 6 10 l 92 697 q 97 709 92 704 q 110 714 103 714 l 267 714 q 278 709 274 714 q 281 697 282 704 l 197 17 q 191 5 196 10 q 179 0 186 0 l 22 0 m 197 785 q 91 825 129 785 q 56 932 53 865 q 72 949 56 949 l 139 949 q 154 932 154 949 q 170 888 156 904 q 208 871 185 871 q 251 888 232 871 q 278 932 269 904 q 297 949 282 949 l 364 949 q 378 932 381 949 q 315 825 364 865 q 197 785 265 785 z "},"î":{"ha":256,"x_min":3,"x_max":394,"o":"m 22 0 q 10 5 15 0 q 7 17 6 10 l 92 697 q 97 709 92 704 q 110 714 103 714 l 267 714 q 278 709 274 714 q 281 697 282 704 l 197 17 q 191 5 196 10 q 179 0 186 0 l 22 0 m 15 797 q 3 806 3 797 q 7 817 3 811 l 110 961 q 131 972 117 972 l 304 972 q 321 961 317 972 l 393 817 q 394 810 394 814 q 379 797 394 797 l 261 797 q 243 810 247 797 l 213 888 q 204 888 208 894 l 154 810 q 145 801 151 804 q 133 797 139 797 l 15 797 z "},"ï":{"ha":256,"x_min":-21,"x_max":443,"o":"m 22 0 q 10 5 15 0 q 7 17 6 10 l 92 697 q 97 709 92 704 q 110 714 103 714 l 267 714 q 278 709 274 714 q 281 697 282 704 l 197 17 q 191 5 196 10 q 179 0 186 0 l 22 0 z "},"ị":{"ha":294,"x_min":-11,"x_max":338,"o":"m 218 794 q 150 821 176 794 q 124 888 124 847 q 158 978 124 943 q 244 1014 193 1014 q 313 989 288 1014 q 338 922 338 964 q 302 832 338 869 q 218 794 267 794 m 43 0 q 32 5 36 0 q 29 17 28 10 l 113 697 q 119 709 114 704 q 131 714 124 714 l 289 714 q 300 709 296 714 q 303 697 304 704 l 219 17 q 213 5 218 10 q 201 0 208 0 l 43 0 m 79 -333 q 14 -308 39 -333 q -11 -243 -11 -283 q 22 -158 -11 -192 q 104 -125 56 -125 q 169 -149 144 -125 q 193 -211 193 -172 q 160 -298 193 -262 q 79 -333 126 -333 z "},"ì":{"ha":256,"x_min":6,"x_max":282,"o":"m 22 0 q 10 5 15 0 q 7 17 6 10 l 92 697 q 97 709 92 704 q 110 714 103 714 l 267 714 q 278 709 274 714 q 281 697 282 704 l 197 17 q 191 5 196 10 q 179 0 186 0 l 22 0 m 260 819 q 261 811 261 817 q 246 800 261 800 l 144 800 q 126 810 135 800 l 42 951 q 39 961 39 957 q 43 969 39 965 q 54 972 47 972 l 179 972 q 197 961 192 972 l 260 819 z "},"ỉ":{"ha":256,"x_min":6,"x_max":356,"o":"m 22 0 q 10 5 15 0 q 7 17 6 10 l 92 697 q 97 709 92 704 q 110 714 103 714 l 267 714 q 278 709 274 714 q 281 697 282 704 l 197 17 q 191 5 196 10 q 179 0 186 0 l 22 0 m 179 772 q 169 793 161 776 q 222 864 188 829 q 245 890 238 879 q 254 919 253 901 q 246 943 256 933 q 221 953 236 953 q 189 944 203 953 q 154 911 175 935 q 142 903 149 904 q 129 907 135 901 l 88 942 q 82 953 82 946 q 88 965 82 960 q 156 1028 124 1010 q 236 1047 189 1047 q 324 1019 293 1047 q 356 940 356 990 q 340 874 356 899 q 290 817 324 849 q 250 772 258 785 q 229 763 240 761 l 179 772 z "},"ĳ":{"ha":581,"x_min":28,"x_max":626,"o":"m 218 794 q 150 821 176 794 q 124 888 124 847 q 158 978 124 943 q 244 1014 193 1014 q 313 989 288 1014 q 338 922 338 964 q 302 832 338 869 q 218 794 267 794 m 43 0 q 32 5 36 0 q 29 17 28 10 l 113 697 q 119 709 114 704 q 131 714 124 714 l 289 714 q 300 709 296 714 q 303 697 304 704 l 219 17 q 213 5 218 10 q 201 0 208 0 l 43 0 m 506 794 q 438 821 464 794 q 411 888 411 847 q 446 978 411 943 q 532 1014 481 1014 q 601 989 575 1014 q 626 921 626 964 q 591 831 626 868 q 506 794 556 794 m 168 -283 q 154 -267 151 -283 l 171 -132 q 189 -117 174 -115 q 278 -88 250 -118 q 313 0 306 -58 l 399 697 q 405 709 400 704 q 417 714 410 714 l 575 714 q 586 709 582 714 q 589 697 590 704 l 503 0 q 465 -162 490 -104 q 371 -253 439 -221 q 168 -283 303 -285 z "},"ī":{"ha":256,"x_min":6,"x_max":358,"o":"m 22 0 q 10 5 15 0 q 7 17 6 10 l 92 697 q 97 709 92 704 q 110 714 103 714 l 267 714 q 278 709 274 714 q 281 697 282 704 l 197 17 q 191 5 196 10 q 179 0 186 0 l 22 0 m 63 807 q 51 812 56 807 q 49 824 47 817 l 61 924 q 67 935 61 931 q 79 940 72 940 l 343 940 q 354 935 350 940 q 357 924 358 931 l 344 824 q 338 812 343 817 q 326 807 333 807 l 63 807 z "},"į":{"ha":303,"x_min":10,"x_max":347,"o":"m 50 0 q 38 5 43 0 q 35 17 33 10 l 119 697 q 125 709 119 704 q 138 714 131 714 l 294 714 q 306 709 301 714 q 308 697 310 704 l 225 17 q 219 5 224 10 q 207 0 214 0 l 50 0 m 225 794 q 157 822 183 794 q 131 890 131 849 q 166 978 131 943 q 253 1014 201 1014 q 322 988 296 1014 q 347 919 347 963 q 311 831 347 867 q 225 794 275 794 m 194 -236 q 192 -249 194 -244 q 181 -256 189 -254 q 115 -265 142 -265 q 40 -242 71 -265 q 10 -162 10 -218 q 90 -8 10 -79 q 111 0 99 0 l 196 0 q 208 -8 208 0 q 200 -21 208 -15 q 138 -122 138 -76 q 149 -152 138 -143 q 178 -158 160 -161 l 182 -158 q 194 -172 194 -158 l 194 -236 z "},"ĩ":{"ha":256,"x_min":6,"x_max":432,"o":"m 22 0 q 10 5 15 0 q 7 17 6 10 l 92 697 q 97 709 92 704 q 110 714 103 714 l 267 714 q 278 709 274 714 q 281 697 282 704 l 197 17 q 191 5 196 10 q 179 0 186 0 l 22 0 m 292 814 q 221 839 261 814 q 195 854 210 844 q 168 864 181 864 q 115 833 138 864 q 92 828 106 819 l 40 869 q 38 892 32 878 q 95 963 61 939 q 167 988 129 988 q 249 956 210 988 q 262 946 253 953 q 281 935 271 939 q 301 931 290 931 q 353 958 332 931 q 376 965 365 975 l 426 926 q 432 915 432 921 q 424 894 432 907 q 360 833 396 853 q 292 814 324 814 z "},"j":{"ha":292,"x_min":-137,"x_max":338,"o":"m 217 794 q 149 821 175 794 q 122 888 122 847 q 157 978 122 943 q 243 1014 192 1014 q 312 989 286 1014 q 338 921 338 964 q 302 831 338 868 q 217 794 267 794 m -121 -283 q -135 -267 -137 -283 l -118 -132 q -100 -117 -115 -115 q -11 -88 -39 -118 q 24 0 17 -58 l 110 697 q 116 709 111 704 q 128 714 121 714 l 286 714 q 297 709 293 714 q 300 697 301 704 l 214 0 q 176 -162 201 -104 q 82 -253 150 -221 q -121 -283 14 -285 z "},"ȷ":{"ha":296,"x_min":-137,"x_max":301,"o":"m -121 -283 q -135 -267 -137 -283 l -118 -132 q -100 -117 -115 -115 q -11 -88 -39 -118 q 24 0 17 -58 l 110 697 q 116 709 111 704 q 128 714 121 714 l 286 714 q 297 709 293 714 q 300 697 301 704 l 214 0 q 176 -162 201 -104 q 82 -253 150 -221 q -121 -283 14 -285 z "},"ĵ":{"ha":296,"x_min":-137,"x_max":413,"o":"m -121 -283 q -135 -267 -137 -283 l -118 -132 q -100 -117 -115 -115 q -11 -88 -39 -118 q 24 0 17 -58 l 110 697 q 116 709 111 704 q 128 714 121 714 l 286 714 q 297 709 293 714 q 300 697 301 704 l 214 0 q 176 -162 201 -104 q 82 -253 150 -221 q -121 -283 14 -285 m 33 797 q 21 806 21 797 q 25 817 21 811 l 128 961 q 149 972 135 972 l 322 972 q 339 961 335 972 l 411 817 q 413 810 413 814 q 397 797 413 797 l 279 797 q 261 810 265 797 l 231 888 q 222 888 226 894 l 172 810 q 163 801 169 804 q 151 797 157 797 l 33 797 z "},"k":{"ha":606,"x_min":25,"x_max":624,"o":"m 40 0 q 29 5 33 0 q 26 17 25 10 l 142 956 q 148 967 143 963 q 160 972 153 972 l 318 972 q 329 967 325 972 q 332 956 333 963 l 275 496 q 277 490 274 490 q 283 493 281 489 l 426 703 q 447 714 432 714 l 610 714 q 621 708 618 714 q 618 694 624 703 l 443 461 q 440 451 440 456 l 551 19 l 553 14 q 536 0 553 0 l 374 0 q 357 14 361 0 l 306 289 q 301 294 304 293 q 297 290 299 294 l 243 218 q 240 210 240 213 l 217 17 q 210 5 215 10 q 199 0 206 0 l 40 0 z "},"ǩ":{"ha":606,"x_min":25,"x_max":625,"o":"m 40 0 q 29 5 33 0 q 26 17 25 10 l 142 956 q 148 967 143 963 q 160 972 153 972 l 318 972 q 329 967 325 972 q 332 956 333 963 l 275 496 q 277 490 274 490 q 283 493 281 489 l 426 703 q 447 714 432 714 l 610 714 q 621 708 618 714 q 618 694 624 703 l 443 461 q 440 451 440 456 l 551 19 l 553 14 q 536 0 553 0 l 374 0 q 357 14 361 0 l 306 289 q 301 294 304 293 q 297 290 299 294 l 243 218 q 240 210 240 213 l 217 17 q 210 5 215 10 q 199 0 206 0 l 40 0 z "},"l":{"ha":282,"x_min":19,"x_max":328,"o":"m 35 0 q 24 5 28 0 q 21 17 19 10 l 136 956 q 142 967 138 963 q 154 972 147 972 l 313 972 q 324 967 319 972 q 326 956 328 963 l 211 17 q 205 5 210 10 q 193 0 200 0 l 35 0 z "},"ĺ":{"ha":282,"x_min":19,"x_max":419,"o":"m 35 0 q 24 5 28 0 q 21 17 19 10 l 136 956 q 142 967 138 963 q 154 972 147 972 l 313 972 q 324 967 319 972 q 326 956 328 963 l 211 17 q 205 5 210 10 q 193 0 200 0 l 35 0 m 174 1058 q 160 1067 160 1058 q 164 1078 160 1072 l 260 1219 q 282 1231 267 1231 l 407 1231 q 419 1222 419 1231 q 414 1210 419 1215 l 293 1068 q 272 1058 283 1058 l 174 1058 z "},"ľ":{"ha":546,"x_min":19,"x_max":600,"o":"m 35 0 q 24 5 28 0 q 21 17 19 10 l 136 956 q 142 967 138 963 q 154 972 147 972 l 313 972 q 324 967 319 972 q 326 956 328 963 l 211 17 q 205 5 210 10 q 193 0 200 0 l 35 0 z "},"ļ":{"ha":282,"x_min":-100,"x_max":328,"o":"m 35 0 q 24 5 28 0 q 21 17 19 10 l 136 956 q 142 967 138 963 q 154 972 147 972 l 313 972 q 324 967 319 972 q 326 956 328 963 l 211 17 q 205 5 210 10 q 193 0 200 0 l 35 0 z "},"ŀ":{"ha":306,"x_min":31,"x_max":378,"o":"m 46 0 q 35 5 39 0 q 32 17 31 10 l 147 956 q 153 967 149 963 q 165 972 158 972 l 324 972 q 335 967 331 972 q 338 956 339 963 l 222 17 q 216 5 221 10 q 204 0 211 0 l 46 0 z "},"ł":{"ha":521,"x_min":43,"x_max":543,"o":"m 540 554 q 543 546 543 549 q 532 531 543 538 l 381 450 q 374 442 374 447 l 321 17 q 315 5 321 10 q 303 0 310 0 l 146 0 q 135 5 139 0 q 132 17 131 10 l 169 331 q 168 337 171 335 q 163 336 165 339 l 103 304 l 94 301 q 82 311 86 301 l 44 407 l 43 413 q 53 429 43 422 l 185 500 q 192 508 192 504 l 247 956 q 253 967 247 963 q 265 972 258 972 l 422 972 q 433 967 429 972 q 436 956 438 963 l 396 622 q 397 616 394 618 q 403 617 400 614 l 479 657 q 489 660 485 660 q 500 651 496 660 l 540 554 z "},"m":{"ha":910,"x_min":24,"x_max":900,"o":"m 743 725 q 861 677 822 725 q 900 542 900 629 q 896 482 900 514 l 839 17 q 833 5 838 10 q 821 0 828 0 l 663 0 q 651 5 656 0 q 649 17 647 10 l 704 469 q 706 490 706 476 q 692 540 706 522 q 656 557 679 557 q 607 534 626 557 q 582 469 588 511 l 526 17 q 520 5 525 10 q 508 0 515 0 l 351 0 q 340 5 344 0 q 338 17 336 10 l 393 469 q 394 490 394 476 q 381 540 394 522 q 344 557 368 557 q 296 534 315 557 q 271 469 276 511 l 215 17 q 209 5 214 10 q 197 0 204 0 l 39 0 q 28 5 32 0 q 25 17 24 10 l 108 697 q 115 709 110 704 q 126 714 119 714 l 285 714 q 296 709 292 714 q 299 697 300 704 l 296 679 q 304 675 296 669 q 368 714 335 703 q 431 725 401 725 q 572 639 536 725 q 575 638 572 638 q 585 646 578 638 q 660 708 618 690 q 743 725 703 725 z "},"n":{"ha":601,"x_min":25,"x_max":593,"o":"m 435 725 q 553 678 514 725 q 593 544 593 632 q 589 488 593 517 l 532 17 q 526 5 531 10 q 514 0 521 0 l 356 0 q 344 5 349 0 q 342 17 340 10 l 397 472 q 399 493 399 479 q 347 557 399 557 q 297 534 317 557 q 272 469 278 511 l 217 17 q 210 5 215 10 q 199 0 206 0 l 40 0 q 29 5 33 0 q 26 17 25 10 l 110 697 q 116 709 111 704 q 128 714 121 714 l 286 714 q 297 709 293 714 q 300 697 301 704 l 297 671 l 297 669 q 301 667 297 667 q 308 672 304 668 q 435 725 360 725 z "},"ń":{"ha":601,"x_min":25,"x_max":593,"o":"m 435 725 q 553 678 514 725 q 593 544 593 632 q 589 488 593 517 l 532 17 q 526 5 531 10 q 514 0 521 0 l 356 0 q 344 5 349 0 q 342 17 340 10 l 397 472 q 399 493 399 479 q 347 557 399 557 q 297 534 317 557 q 272 469 278 511 l 217 17 q 210 5 215 10 q 199 0 206 0 l 40 0 q 29 5 33 0 q 26 17 25 10 l 110 697 q 116 709 111 704 q 128 714 121 714 l 286 714 q 297 709 293 714 q 300 697 301 704 l 297 671 l 297 669 q 301 667 297 667 q 308 672 304 668 q 435 725 360 725 m 304 800 q 290 808 290 800 q 294 819 290 814 l 390 961 q 413 972 397 972 l 538 972 q 550 964 550 972 q 544 951 550 957 l 424 810 q 403 800 414 800 l 304 800 z "},"ň":{"ha":601,"x_min":25,"x_max":599,"o":"m 435 725 q 553 678 514 725 q 593 544 593 632 q 589 488 593 517 l 532 17 q 526 5 531 10 q 514 0 521 0 l 356 0 q 344 5 349 0 q 342 17 340 10 l 397 472 q 399 493 399 479 q 347 557 399 557 q 297 534 317 557 q 272 469 278 511 l 217 17 q 210 5 215 10 q 199 0 206 0 l 40 0 q 29 5 33 0 q 26 17 25 10 l 110 697 q 116 709 111 704 q 128 714 121 714 l 286 714 q 297 709 293 714 q 300 697 301 704 l 297 671 l 297 669 q 301 667 297 667 q 308 672 304 668 q 435 725 360 725 m 208 953 q 207 961 207 956 q 222 972 207 972 l 339 972 q 357 960 353 972 l 389 882 q 396 882 392 875 l 446 960 q 467 972 454 972 l 586 972 q 599 964 599 972 q 594 953 599 960 l 488 808 q 467 797 479 797 l 293 797 q 275 808 281 797 l 208 953 z "},"ŋ":{"ha":601,"x_min":25,"x_max":593,"o":"m 529 0 q 497 -144 518 -92 q 411 -229 475 -197 q 221 -260 347 -261 q 208 -255 213 -260 q 206 -243 204 -250 l 222 -111 q 242 -94 225 -94 q 302 -81 282 -94 q 329 -45 322 -68 q 342 19 336 -22 l 397 472 q 399 493 399 479 q 347 557 399 557 q 297 534 317 557 q 272 469 278 511 l 217 17 q 210 5 215 10 q 199 0 206 0 l 40 0 q 29 5 33 0 q 26 17 25 10 l 110 697 q 116 709 111 704 q 128 714 121 714 l 286 714 q 297 709 293 714 q 300 697 301 704 l 297 671 q 299 665 296 667 q 304 668 301 664 q 435 725 356 725 q 553 678 514 725 q 593 544 593 632 q 589 488 593 517 l 529 0 z "},"ñ":{"ha":601,"x_min":25,"x_max":603,"o":"m 344 864 q 296 835 317 864 q 272 829 286 818 l 225 869 q 221 892 217 878 q 276 963 243 939 q 344 988 308 988 q 424 956 385 988 q 448 937 438 943 q 472 931 458 931 q 522 958 501 931 q 546 964 533 974 l 590 926 q 594 904 603 918 q 532 835 568 857 q 463 814 496 814 q 431 820 446 814 q 396 839 417 826 q 378 850 386 844 q 363 860 371 856 q 344 864 354 864 m 435 725 q 553 678 514 725 q 593 544 593 632 q 589 488 593 517 l 532 17 q 526 5 531 10 q 514 0 521 0 l 356 0 q 344 5 349 0 q 342 17 340 10 l 397 472 q 399 493 399 479 q 347 557 399 557 q 297 534 317 557 q 272 469 278 511 l 217 17 q 210 5 215 10 q 199 0 206 0 l 40 0 q 29 5 33 0 q 26 17 25 10 l 110 697 q 116 709 111 704 q 128 714 121 714 l 286 714 q 297 709 293 714 q 300 697 301 704 l 297 671 l 297 669 q 301 667 297 667 q 308 672 304 668 q 435 725 360 725 z "},"o":{"ha":596,"x_min":40,"x_max":592,"o":"m 269 -11 q 101 42 161 -11 q 40 188 40 94 q 42 222 40 210 l 75 492 q 165 661 88 597 q 360 725 242 725 q 531 672 469 725 q 592 526 592 618 q 589 492 592 514 l 556 222 q 466 51 542 114 q 269 -11 390 -11 m 290 158 q 341 181 319 158 q 367 238 363 203 l 397 478 q 385 535 401 513 q 339 557 368 557 q 289 535 310 557 q 264 478 268 513 l 233 238 q 245 181 229 203 q 290 158 261 158 z "},"ó":{"ha":596,"x_min":40,"x_max":592,"o":"m 269 -11 q 101 42 161 -11 q 40 188 40 94 q 42 222 40 210 l 75 492 q 165 661 88 597 q 360 725 242 725 q 531 672 469 725 q 592 526 592 618 q 589 492 592 514 l 556 222 q 466 51 542 114 q 269 -11 390 -11 m 290 158 q 341 181 319 158 q 367 238 363 203 l 397 478 q 385 535 401 513 q 339 557 368 557 q 289 535 310 557 q 264 478 268 513 l 233 238 q 245 181 229 203 q 290 158 261 158 m 297 800 q 283 808 283 800 q 288 819 283 814 l 383 961 q 406 972 390 972 l 531 972 q 543 964 543 972 q 538 951 543 957 l 417 810 q 396 800 407 800 l 297 800 z "},"ŏ":{"ha":596,"x_min":40,"x_max":592,"o":"m 269 -11 q 101 42 161 -11 q 40 188 40 94 q 42 222 40 210 l 75 492 q 165 661 88 597 q 360 725 242 725 q 531 672 469 725 q 592 526 592 618 q 589 492 592 514 l 556 222 q 466 51 542 114 q 269 -11 390 -11 m 290 158 q 341 181 319 158 q 367 238 363 203 l 397 478 q 385 535 401 513 q 339 557 368 557 q 289 535 310 557 q 264 478 268 513 l 233 238 q 245 181 229 203 q 290 158 261 158 m 368 785 q 262 825 300 785 q 226 932 224 865 q 243 949 226 949 l 310 949 q 325 932 325 949 q 341 888 326 904 q 379 871 356 871 q 422 888 403 871 q 449 932 440 904 q 468 949 453 949 l 535 949 q 549 932 551 949 q 485 825 535 865 q 368 785 436 785 z "},"ô":{"ha":596,"x_min":40,"x_max":592,"o":"m 269 -11 q 101 42 161 -11 q 40 188 40 94 q 42 222 40 210 l 75 492 q 165 661 88 597 q 360 725 242 725 q 531 672 469 725 q 592 526 592 618 q 589 492 592 514 l 556 222 q 466 51 542 114 q 269 -11 390 -11 m 290 158 q 341 181 319 158 q 367 238 363 203 l 397 478 q 385 535 401 513 q 339 557 368 557 q 289 535 310 557 q 264 478 268 513 l 233 238 q 245 181 229 203 q 290 158 261 158 m 186 797 q 174 806 174 797 q 178 817 174 811 l 281 961 q 301 972 288 972 l 475 972 q 492 961 488 972 l 564 817 q 565 810 565 814 q 550 797 565 797 l 432 797 q 414 810 418 797 l 383 888 q 375 888 379 894 l 325 810 q 316 801 322 804 q 304 797 310 797 l 186 797 z "},"ố":{"ha":596,"x_min":40,"x_max":825,"o":"m 269 -11 q 101 42 161 -11 q 40 188 40 94 q 42 222 40 210 l 75 492 q 165 661 88 597 q 360 725 242 725 q 531 672 469 725 q 592 526 592 618 q 589 492 592 514 l 556 222 q 466 51 542 114 q 269 -11 390 -11 m 290 158 q 341 181 319 158 q 367 238 363 203 l 397 478 q 385 535 401 513 q 339 557 368 557 q 289 535 310 557 q 264 478 268 513 l 233 238 q 245 181 229 203 q 290 158 261 158 z "},"ộ":{"ha":596,"x_min":40,"x_max":592,"o":"m 269 -11 q 101 42 161 -11 q 40 188 40 94 q 42 222 40 210 l 75 492 q 165 661 88 597 q 360 725 242 725 q 531 672 469 725 q 592 526 592 618 q 589 492 592 514 l 556 222 q 466 51 542 114 q 269 -11 390 -11 m 290 158 q 341 181 319 158 q 367 238 363 203 l 397 478 q 385 535 401 513 q 339 557 368 557 q 289 535 310 557 q 264 478 268 513 l 233 238 q 245 181 229 203 q 290 158 261 158 m 231 -333 q 165 -308 190 -333 q 140 -243 140 -283 q 174 -158 140 -192 q 256 -125 207 -125 q 320 -149 296 -125 q 344 -211 344 -172 q 311 -298 344 -262 q 231 -333 278 -333 m 186 797 q 174 806 174 797 q 178 817 174 811 l 281 961 q 301 972 288 972 l 475 972 q 492 961 488 972 l 564 817 q 565 810 565 814 q 550 797 565 797 l 432 797 q 414 810 418 797 l 383 888 q 375 888 379 894 l 325 810 q 316 801 322 804 q 304 797 310 797 l 186 797 z "},"ồ":{"ha":596,"x_min":40,"x_max":675,"o":"m 269 -11 q 101 42 161 -11 q 40 188 40 94 q 42 222 40 210 l 75 492 q 165 661 88 597 q 360 725 242 725 q 531 672 469 725 q 592 526 592 618 q 589 492 592 514 l 556 222 q 466 51 542 114 q 269 -11 390 -11 m 290 158 q 341 181 319 158 q 367 238 363 203 l 397 478 q 385 535 401 513 q 339 557 368 557 q 289 535 310 557 q 264 478 268 513 l 233 238 q 245 181 229 203 q 290 158 261 158 z "},"ổ":{"ha":596,"x_min":40,"x_max":739,"o":"m 269 -11 q 101 42 161 -11 q 40 188 40 94 q 42 222 40 210 l 75 492 q 165 661 88 597 q 360 725 242 725 q 531 672 469 725 q 592 526 592 618 q 589 492 592 514 l 556 222 q 466 51 542 114 q 269 -11 390 -11 m 290 158 q 341 181 319 158 q 367 238 363 203 l 397 478 q 385 535 401 513 q 339 557 368 557 q 289 535 310 557 q 264 478 268 513 l 233 238 q 245 181 229 203 q 290 158 261 158 m 575 940 q 564 947 567 942 q 565 961 561 953 q 595 1007 579 990 q 614 1026 611 1024 q 636 1051 629 1040 q 646 1078 643 1061 q 638 1101 647 1092 q 613 1110 628 1110 q 585 1101 597 1110 q 551 1071 572 1093 q 528 1067 540 1057 l 490 1099 q 485 1110 485 1103 q 490 1122 485 1117 q 553 1180 522 1163 q 629 1197 585 1197 q 710 1171 681 1197 q 739 1097 739 1144 q 724 1036 739 1060 q 679 982 710 1013 q 642 942 651 957 q 621 932 633 929 l 575 940 m 186 797 q 174 806 174 797 q 178 817 174 811 l 281 961 q 301 972 288 972 l 475 972 q 492 961 488 972 l 564 817 q 565 810 565 814 q 550 797 565 797 l 432 797 q 414 810 418 797 l 383 888 q 375 888 379 894 l 325 810 q 316 801 322 804 q 304 797 310 797 l 186 797 z "},"ỗ":{"ha":596,"x_min":40,"x_max":604,"o":"m 269 -11 q 101 42 161 -11 q 40 188 40 94 q 42 222 40 210 l 75 492 q 165 661 88 597 q 360 725 242 725 q 531 672 469 725 q 592 526 592 618 q 589 492 592 514 l 556 222 q 466 51 542 114 q 269 -11 390 -11 m 290 158 q 341 181 319 158 q 367 238 363 203 l 397 478 q 385 535 401 513 q 339 557 368 557 q 289 535 310 557 q 264 478 268 513 l 233 238 q 245 181 229 203 q 290 158 261 158 z "},"ö":{"ha":596,"x_min":40,"x_max":614,"o":"m 269 -11 q 101 42 161 -11 q 40 188 40 94 q 42 222 40 210 l 75 492 q 165 661 88 597 q 360 725 242 725 q 531 672 469 725 q 592 526 592 618 q 589 492 592 514 l 556 222 q 466 51 542 114 q 269 -11 390 -11 m 290 158 q 341 181 319 158 q 367 238 363 203 l 397 478 q 385 535 401 513 q 339 557 368 557 q 289 535 310 557 q 264 478 268 513 l 233 238 q 245 181 229 203 q 290 158 261 158 z "},"ọ":{"ha":596,"x_min":40,"x_max":592,"o":"m 269 -11 q 101 42 161 -11 q 40 188 40 94 q 42 222 40 210 l 75 492 q 165 661 88 597 q 360 725 242 725 q 531 672 469 725 q 592 526 592 618 q 589 492 592 514 l 556 222 q 466 51 542 114 q 269 -11 390 -11 m 290 158 q 341 181 319 158 q 367 238 363 203 l 397 478 q 385 535 401 513 q 339 557 368 557 q 289 535 310 557 q 264 478 268 513 l 233 238 q 245 181 229 203 q 290 158 261 158 m 231 -333 q 165 -308 190 -333 q 140 -243 140 -283 q 174 -158 140 -192 q 256 -125 207 -125 q 320 -149 296 -125 q 344 -211 344 -172 q 311 -298 344 -262 q 231 -333 278 -333 z "},"ò":{"ha":596,"x_min":40,"x_max":592,"o":"m 269 -11 q 101 42 161 -11 q 40 188 40 94 q 42 222 40 210 l 75 492 q 165 661 88 597 q 360 725 242 725 q 531 672 469 725 q 592 526 592 618 q 589 492 592 514 l 556 222 q 466 51 542 114 q 269 -11 390 -11 m 290 158 q 341 181 319 158 q 367 238 363 203 l 397 478 q 385 535 401 513 q 339 557 368 557 q 289 535 310 557 q 264 478 268 513 l 233 238 q 245 181 229 203 q 290 158 261 158 m 431 819 q 432 811 432 817 q 417 800 432 800 l 315 800 q 297 810 306 800 l 213 951 q 210 961 210 957 q 214 969 210 965 q 225 972 218 972 l 350 972 q 368 961 363 972 l 431 819 z "},"ỏ":{"ha":596,"x_min":40,"x_max":592,"o":"m 269 -11 q 101 42 161 -11 q 40 188 40 94 q 42 222 40 210 l 75 492 q 165 661 88 597 q 360 725 242 725 q 531 672 469 725 q 592 526 592 618 q 589 492 592 514 l 556 222 q 466 51 542 114 q 269 -11 390 -11 m 290 158 q 341 181 319 158 q 367 238 363 203 l 397 478 q 385 535 401 513 q 339 557 368 557 q 289 535 310 557 q 264 478 268 513 l 233 238 q 245 181 229 203 q 290 158 261 158 m 350 772 q 340 793 332 776 q 393 864 358 829 q 416 890 408 879 q 425 919 424 901 q 417 943 426 933 q 392 953 407 953 q 360 944 374 953 q 325 911 346 935 q 313 903 319 904 q 300 907 306 901 l 258 942 q 253 953 253 946 q 258 965 253 960 q 327 1028 294 1010 q 407 1047 360 1047 q 495 1019 464 1047 q 526 940 526 990 q 510 874 526 899 q 461 817 494 849 q 421 772 429 785 q 400 763 411 761 l 350 772 z "},"ơ":{"ha":596,"x_min":40,"x_max":639,"o":"m 549 663 q 547 653 546 660 q 590 524 590 604 q 589 492 590 503 l 556 222 q 466 51 542 114 q 269 -11 390 -11 q 101 42 161 -11 q 40 188 40 94 q 42 222 40 210 l 75 492 q 165 661 88 597 q 360 725 242 725 q 443 715 400 725 q 451 714 446 714 q 503 742 479 718 q 536 815 526 765 q 542 828 538 824 q 554 832 547 832 l 622 832 q 635 807 639 832 q 549 663 615 710 m 397 478 q 385 535 401 513 q 339 557 368 557 q 289 535 310 557 q 264 478 268 513 l 233 238 q 245 181 229 203 q 290 158 261 158 q 341 181 319 158 q 367 238 363 203 l 397 478 z "},"ớ":{"ha":596,"x_min":40,"x_max":639,"o":"m 549 663 q 547 653 546 660 q 590 524 590 604 q 589 492 590 503 l 556 222 q 466 51 542 114 q 269 -11 390 -11 q 101 42 161 -11 q 40 188 40 94 q 42 222 40 210 l 75 492 q 165 661 88 597 q 360 725 242 725 q 443 715 400 725 q 451 714 446 714 q 503 742 479 718 q 536 815 526 765 q 542 828 538 824 q 554 832 547 832 l 622 832 q 635 807 639 832 q 549 663 615 710 m 397 478 q 385 535 401 513 q 339 557 368 557 q 289 535 310 557 q 264 478 268 513 l 233 238 q 245 181 229 203 q 290 158 261 158 q 341 181 319 158 q 367 238 363 203 l 397 478 m 297 800 q 283 808 283 800 q 288 819 283 814 l 383 961 q 406 972 390 972 l 531 972 q 543 964 543 972 q 538 951 543 957 l 417 810 q 396 800 407 800 l 297 800 z "},"ợ":{"ha":596,"x_min":40,"x_max":639,"o":"m 549 663 q 547 653 546 660 q 590 524 590 604 q 589 492 590 503 l 556 222 q 466 51 542 114 q 269 -11 390 -11 q 101 42 161 -11 q 40 188 40 94 q 42 222 40 210 l 75 492 q 165 661 88 597 q 360 725 242 725 q 443 715 400 725 q 451 714 446 714 q 503 742 479 718 q 536 815 526 765 q 542 828 538 824 q 554 832 547 832 l 622 832 q 635 807 639 832 q 549 663 615 710 m 397 478 q 385 535 401 513 q 339 557 368 557 q 289 535 310 557 q 264 478 268 513 l 233 238 q 245 181 229 203 q 290 158 261 158 q 341 181 319 158 q 367 238 363 203 l 397 478 m 231 -333 q 165 -308 190 -333 q 140 -243 140 -283 q 174 -158 140 -192 q 256 -125 207 -125 q 320 -149 296 -125 q 344 -211 344 -172 q 311 -298 344 -262 q 231 -333 278 -333 z "},"ờ":{"ha":596,"x_min":40,"x_max":639,"o":"m 549 663 q 547 653 546 660 q 590 524 590 604 q 589 492 590 503 l 556 222 q 466 51 542 114 q 269 -11 390 -11 q 101 42 161 -11 q 40 188 40 94 q 42 222 40 210 l 75 492 q 165 661 88 597 q 360 725 242 725 q 443 715 400 725 q 451 714 446 714 q 503 742 479 718 q 536 815 526 765 q 542 828 538 824 q 554 832 547 832 l 622 832 q 635 807 639 832 q 549 663 615 710 m 397 478 q 385 535 401 513 q 339 557 368 557 q 289 535 310 557 q 264 478 268 513 l 233 238 q 245 181 229 203 q 290 158 261 158 q 341 181 319 158 q 367 238 363 203 l 397 478 m 431 819 q 432 811 432 817 q 417 800 432 800 l 315 800 q 297 810 306 800 l 213 951 q 210 961 210 957 q 214 969 210 965 q 225 972 218 972 l 350 972 q 368 961 363 972 l 431 819 z "},"ở":{"ha":596,"x_min":40,"x_max":639,"o":"m 549 663 q 547 653 546 660 q 590 524 590 604 q 589 492 590 503 l 556 222 q 466 51 542 114 q 269 -11 390 -11 q 101 42 161 -11 q 40 188 40 94 q 42 222 40 210 l 75 492 q 165 661 88 597 q 360 725 242 725 q 443 715 400 725 q 451 714 446 714 q 503 742 479 718 q 536 815 526 765 q 542 828 538 824 q 554 832 547 832 l 622 832 q 635 807 639 832 q 549 663 615 710 m 397 478 q 385 535 401 513 q 339 557 368 557 q 289 535 310 557 q 264 478 268 513 l 233 238 q 245 181 229 203 q 290 158 261 158 q 341 181 319 158 q 367 238 363 203 l 397 478 m 350 772 q 340 793 332 776 q 393 864 358 829 q 416 890 408 879 q 425 919 424 901 q 417 943 426 933 q 392 953 407 953 q 360 944 374 953 q 325 911 346 935 q 313 903 319 904 q 300 907 306 901 l 258 942 q 253 953 253 946 q 258 965 253 960 q 327 1028 294 1010 q 407 1047 360 1047 q 495 1019 464 1047 q 526 940 526 990 q 510 874 526 899 q 461 817 494 849 q 421 772 429 785 q 400 763 411 761 l 350 772 z "},"ỡ":{"ha":596,"x_min":40,"x_max":639,"o":"m 549 663 q 547 653 546 660 q 590 524 590 604 q 589 492 590 503 l 556 222 q 466 51 542 114 q 269 -11 390 -11 q 101 42 161 -11 q 40 188 40 94 q 42 222 40 210 l 75 492 q 165 661 88 597 q 360 725 242 725 q 443 715 400 725 q 451 714 446 714 q 503 742 479 718 q 536 815 526 765 q 542 828 538 824 q 554 832 547 832 l 622 832 q 635 807 639 832 q 549 663 615 710 m 397 478 q 385 535 401 513 q 339 557 368 557 q 289 535 310 557 q 264 478 268 513 l 233 238 q 245 181 229 203 q 290 158 261 158 q 341 181 319 158 q 367 238 363 203 l 397 478 m 426 826 q 356 851 396 826 q 330 867 344 857 q 303 876 315 876 q 250 846 272 876 q 226 840 240 832 l 175 882 q 172 904 167 890 q 230 976 196 951 q 301 1000 264 1000 q 383 968 344 1000 q 397 958 388 965 q 415 947 406 951 q 436 943 425 943 q 488 971 467 943 q 511 978 500 988 l 561 939 q 567 928 567 933 q 558 907 567 919 q 494 846 531 865 q 426 826 458 826 z "},"ő":{"ha":596,"x_min":40,"x_max":663,"o":"m 269 -11 q 101 42 161 -11 q 40 188 40 94 q 42 222 40 210 l 75 492 q 165 661 88 597 q 360 725 242 725 q 531 672 469 725 q 592 526 592 618 q 589 492 592 514 l 556 222 q 466 51 542 114 q 269 -11 390 -11 m 290 158 q 341 181 319 158 q 367 238 363 203 l 397 478 q 385 535 401 513 q 339 557 368 557 q 289 535 310 557 q 264 478 268 513 l 233 238 q 245 181 229 203 q 290 158 261 158 m 214 800 q 202 805 206 800 q 204 819 199 810 l 285 960 q 306 972 292 972 l 435 972 q 447 967 444 972 q 444 953 450 961 l 356 813 q 335 800 349 800 l 214 800 m 428 800 q 415 806 418 800 q 418 819 413 811 l 506 960 q 528 972 514 972 l 647 972 q 660 967 657 972 q 657 953 663 961 l 569 813 q 547 800 561 800 l 428 800 z "},"ō":{"ha":596,"x_min":40,"x_max":592,"o":"m 269 -11 q 101 42 161 -11 q 40 188 40 94 q 42 222 40 210 l 75 492 q 165 661 88 597 q 360 725 242 725 q 531 672 469 725 q 592 526 592 618 q 589 492 592 514 l 556 222 q 466 51 542 114 q 269 -11 390 -11 m 290 158 q 341 181 319 158 q 367 238 363 203 l 397 478 q 385 535 401 513 q 339 557 368 557 q 289 535 310 557 q 264 478 268 513 l 233 238 q 245 181 229 203 q 290 158 261 158 m 233 807 q 222 812 226 807 q 219 824 218 817 l 232 924 q 238 935 232 931 q 250 940 243 940 l 514 940 q 525 935 521 940 q 528 924 529 931 l 515 824 q 509 812 514 817 q 497 807 504 807 l 233 807 z "},"ø":{"ha":615,"x_min":4,"x_max":632,"o":"m 619 715 q 624 693 632 707 l 575 615 l 574 607 q 589 528 589 568 q 586 492 589 517 l 553 222 q 463 51 539 114 q 267 -11 388 -11 q 176 0 221 -11 q 168 -4 169 1 l 132 -62 q 122 -72 129 -69 q 108 -69 115 -74 l 15 -6 q 11 17 4 3 l 54 85 q 56 94 58 90 q 38 188 38 135 q 39 222 38 210 l 72 492 q 162 661 85 597 q 357 725 239 725 q 457 710 411 725 q 467 714 463 708 l 503 774 q 514 782 507 781 q 526 779 521 783 l 619 715 m 394 478 q 382 535 399 513 q 336 557 365 557 q 286 535 307 557 q 261 478 265 513 l 231 238 q 242 181 226 203 q 288 158 258 158 q 338 181 317 158 q 365 238 360 203 l 394 478 z "},"ǿ":{"ha":596,"x_min":4,"x_max":632,"o":"m 619 715 q 624 693 632 707 l 575 615 l 574 607 q 589 528 589 568 q 586 492 589 517 l 553 222 q 463 51 539 114 q 267 -11 388 -11 q 176 0 221 -11 q 168 -4 169 1 l 132 -62 q 122 -72 129 -69 q 108 -69 115 -74 l 15 -6 q 11 17 4 3 l 54 85 q 56 94 58 90 q 38 188 38 135 q 39 222 38 210 l 72 492 q 162 661 85 597 q 357 725 239 725 q 457 710 411 725 q 467 714 463 708 l 503 774 q 514 782 507 781 q 526 779 521 783 l 619 715 m 394 478 q 382 535 399 513 q 336 557 365 557 q 286 535 307 557 q 261 478 265 513 l 231 238 q 242 181 226 203 q 288 158 258 158 q 338 181 317 158 q 365 238 360 203 l 394 478 m 297 800 q 283 808 283 800 q 288 819 283 814 l 383 961 q 406 972 390 972 l 531 972 q 543 964 543 972 q 538 951 543 957 l 417 810 q 396 800 407 800 l 297 800 z "},"õ":{"ha":596,"x_min":40,"x_max":601,"o":"m 269 -11 q 101 42 161 -11 q 40 188 40 94 q 42 222 40 210 l 75 492 q 165 661 88 597 q 360 725 242 725 q 531 672 469 725 q 592 526 592 618 q 589 492 592 514 l 556 222 q 466 51 542 114 q 269 -11 390 -11 m 290 158 q 341 181 319 158 q 367 238 363 203 l 397 478 q 385 535 401 513 q 339 557 368 557 q 289 535 310 557 q 264 478 268 513 l 233 238 q 245 181 229 203 q 290 158 261 158 m 461 814 q 390 839 431 814 q 365 854 379 844 q 338 864 350 864 q 285 833 307 864 q 261 828 275 819 l 210 869 q 207 892 201 878 q 265 963 231 939 q 336 988 299 988 q 418 956 379 988 q 431 946 422 953 q 450 935 440 939 q 471 931 460 931 q 522 958 501 931 q 546 965 535 975 l 596 926 q 601 915 601 921 q 593 894 601 907 q 529 833 565 853 q 461 814 493 814 z "}}}
